<svg xmlns="http://www.w3.org/2000/svg" viewBox="0 0 30 30">
  <path fill="#FFF" fill-rule="evenodd" d="M8.78245614,21.4200438 C8.78245614,21.9773757 9.22087281,22.4333745 9.75671841,22.4333745 L10.7309807,22.4333745 L10.7309807,25.9800039 C10.7309807,26.8210628 11.3837518,27.5 12.1923876,27.5 C13.0010234,27.5 13.6537944,26.8210628 13.6537944,25.9800039 L13.6537944,22.4333465 L15.6023459,22.4333465 L15.6023459,25.9799759 C15.6023459,26.8210348 16.255117,27.5 17.0637528,27.5 C17.8723886,27.5 18.5251597,26.8210348 18.5251597,25.9799759 L18.5251597,22.4333465 L19.4994219,22.4333465 C20.0352675,22.4333465 20.4736842,21.9773476 20.4736842,21.4200157 L20.4736842,11.2867647 L8.78245614,11.2867647 L8.78245614,21.4200438 Z M6.54736842,11.2867647 C5.69116779,11.2867647 5,11.9626839 5,12.8000042 L5,19.8617605 C5,20.6990808 5.69116779,21.375 6.54736842,21.375 C7.40356905,21.375 8.09473684,20.6990808 8.09473684,19.8617605 L8.09473684,12.8000042 C8.09473684,11.9626839 7.40356905,11.2867647 6.54736842,11.2867647 Z M23.0526316,11.2867647 C22.1964309,11.2867647 21.5052632,11.9626839 21.5052632,12.8000042 L21.5052632,19.8617605 C21.5052632,20.6990808 22.1964309,21.375 23.0526316,21.375 C23.9088322,21.375 24.6,20.6990808 24.6,19.8617605 L24.6,12.8000042 C24.6,11.9626839 23.9088322,11.2867647 23.0526316,11.2867647 Z M18.4110847,5.22441784 L19.6825116,3.88129036 C19.8724882,3.68059871 19.8724882,3.35639355 19.6825116,3.15567343 C19.4925351,2.95498178 19.1856334,2.95498178 18.9956568,3.15567343 L17.5537499,4.673776 C16.7743472,4.267238 15.9023698,4.0305204 14.9719298,4.0305204 C14.0366359,4.0305204 13.1597776,4.267238 12.3754941,4.67893071 L10.9287063,3.15051874 C10.7387297,2.94982709 10.431828,2.94982709 10.2418515,3.15051874 C10.0518749,3.35121039 10.0518749,3.67541555 10.2418515,3.87613567 L11.5181324,5.22441784 C10.0713445,6.35141804 9.12631579,8.16285451 9.12631579,10.2058824 L20.8175439,10.2058824 C20.8175439,8.15772829 19.8676343,6.34629182 18.4110847,5.22441784 Z M12.9087719,8.04411765 L11.877193,8.04411765 L11.877193,6.96323529 L12.9087719,6.96323529 L12.9087719,8.04411765 Z M17.722807,8.04411765 L16.6912281,8.04411765 L16.6912281,6.96323529 L17.722807,6.96323529 L17.722807,8.04411765 Z" opacity=".8"/>
</svg>
