<svg xmlns="http://www.w3.org/2000/svg" viewBox="0 0 64 64">
  <defs>
    <linearGradient id="android-灰-a" x1="73.118%" x2="26.511%" y1="16.067%" y2="100%">
      <stop offset="0%" stop-color="#F8FCFF"/>
      <stop offset="100%" stop-color="#B8DBF8"/>
    </linearGradient>
  </defs>
  <path fill="#D3E2F8" stroke="url(#android-灰-a)" d="M16.3999856,47.5008265 C16.3999856,48.9215906 17.5699723,50.084034 18.9999641,50.084034 L21.5999425,50.084034 L21.5999425,59.1251887 C21.5999425,61.2692367 23.341969,63 25.4999461,63 C27.6579231,63 29.3999497,61.2692367 29.3999497,59.1251887 L29.3999496,50.0839625 L34.5999784,50.0839625 L34.5999784,59.1251173 C34.5999784,61.2691652 36.342005,63 38.499982,63 C40.6579591,63 42.3999856,61.2691652 42.3999856,59.1251173 L42.3999856,50.0839625 L44.9999641,50.0839625 C46.4299558,50.0839625 47.5999425,48.9215191 47.5999425,47.500755 L47.5999425,21.6688229 L16.3999856,21.6688229 L16.3999856,47.5008265 Z M9.90000359,21.6688229 C7.74202655,21.6688229 6,23.3995862 6,25.5436341 L6,43.6260152 C6,45.7700631 7.74202655,47.5008265 9.90000359,47.5008265 C12.0579806,47.5008265 13.8000072,45.7700631 13.8000072,43.6260152 L13.8000072,25.5436341 C13.8000072,23.3995862 12.0579806,21.6688229 9.90000359,21.6688229 Z M54.0999964,21.6688229 C51.9420194,21.6688229 50.1999928,23.3995862 50.1999928,25.5436341 L50.1999928,43.6260152 C50.1999928,45.7700631 51.9420194,47.5008265 54.0999964,47.5008265 C56.2579735,47.5008265 58,45.7700631 58,43.6260152 L58,25.5436341 C58,23.3995862 56.2579735,21.6688229 54.0999964,21.6688229 Z M41.1779691,6.582934 L44.5709881,3.21189824 C45.0779727,2.7081942 45.0779727,1.89449097 44.5709881,1.39071548 C44.0640035,0.887011443 43.244984,0.887011443 42.7379994,1.39071548 L38.8900255,5.20091079 C36.8100572,4.18056527 34.4830373,3.58644185 32,3.58644185 C29.5040092,3.58644185 27.1639639,4.18056527 25.0709701,5.21384831 L21.2099709,1.37777803 C20.7029863,0.874073991 19.8839668,0.874073991 19.3769822,1.37777803 C18.8699975,1.88148206 18.8699975,2.69518529 19.3769822,3.19896078 L22.7829546,6.582934 C18.9219554,9.41152475 16.3999856,13.9579414 16.3999856,19.0856154 L47.6000144,19.0856154 C47.6000144,13.9450754 45.0650192,9.39865876 41.1779691,6.582934 Z M26.7999712,13.9192004 L24.1999927,13.9192004 L24.1999927,11.3359929 L26.7999712,11.3359929 L26.7999712,13.9192004 Z M39.8000072,13.9192004 L37.2000287,13.9192004 L37.2000287,11.3359929 L39.8000072,11.3359929 L39.8000072,13.9192004 Z"/>
</svg>
