<svg xmlns="http://www.w3.org/2000/svg" viewBox="0 0 64 64">
  <defs>
    <linearGradient id="apple-灰-a" x1="72.823%" x2="26.811%" y1="16.067%" y2="100%">
      <stop offset="0%" stop-color="#F8FCFF"/>
      <stop offset="100%" stop-color="#B8DBF8"/>
    </linearGradient>
  </defs>
  <path fill="#D3E2F8" stroke="url(#apple-灰-a)" d="M48.7603179,33.5944582 C48.6835626,25.9178206 55.1022251,22.2376277 55.3881386,22.0539022 C51.7806392,16.8432945 46.1621508,16.1311213 44.1607562,16.0477819 C39.3789006,15.5704743 34.8311487,18.8263938 32.4037621,18.8263938 C29.9840511,18.8263938 26.2383922,16.1178627 22.2720617,16.1898377 C17.0603764,16.2656008 12.2535754,19.1805863 9.57097741,23.7888773 C4.15589056,33.0641165 8.18362525,46.8037559 13.4624714,54.3270324 C16.0414497,58.0091193 19.1174186,62.1438909 23.1547477,61.9961528 C27.042404,61.8427326 28.514187,59.513017 33.2135306,59.513017 C37.9128742,59.513017 39.2349844,61.9961528 43.3509877,61.9203897 C47.5341519,61.8427326 50.1860477,58.1682219 52.747756,54.4747704 C55.708592,50.2036253 56.9290013,46.0669596 57,45.8548229 C56.9078936,45.8131532 48.840911,42.7636882 48.7603179,33.5944582 L48.7603179,33.5944582 Z M40.8566333,11.6852249 C42.9233109,9.11702924 44.3183645,5.55377625 43.9372225,2 C40.9602448,2.12509292 37.3523475,4.03181234 35.2172125,6.59242659 C33.3004014,8.86494805 31.6241169,12.4926428 32.0737164,15.9762912 C35.3966822,16.2416399 38.7881056,14.2458391 40.8566333,11.6852249 Z"/>
</svg>
