<?xml version="1.0" encoding="utf-8"?>
<!-- Generator: Adobe Illustrator 23.0.0, SVG Export Plug-In . SVG Version: 6.00 Build 0)  -->
<svg version="1.1" id="图层_1" xmlns="http://www.w3.org/2000/svg" xmlns:xlink="http://www.w3.org/1999/xlink" x="0px" y="0px"
	 viewBox="0 0 391 409" style="enable-background:new 0 0 391 409;" xml:space="preserve">
<style type="text/css">
	.st0{display:none;opacity:0.33;}
	.st1{display:inline;opacity:0.269;filter:url(#多人协作_02-b);enable-background:new    ;}
	.st2{fill-rule:evenodd;clip-rule:evenodd;fill:url(#SVGID_1_);}
	.st3{display:inline;fill-rule:evenodd;clip-rule:evenodd;fill:#FAFCFF;stroke:url(#SVGID_2_);stroke-width:4;stroke-miterlimit:2;}
	.st4{display:inline;opacity:0.2;}
	.st5{fill:none;stroke:#ADC6DA;}
	.st6{display:inline;fill:none;stroke:#C7D6E5;stroke-width:2;}
	.st7{display:inline;fill-rule:evenodd;clip-rule:evenodd;fill:#C7D6E5;}
	.st8{display:inline;fill:#C7D6E5;fill-opacity:0.402;}
	.st9{opacity:0.33;}
	.st10{display:none;opacity:0.277;fill-rule:evenodd;clip-rule:evenodd;fill:url(#SVGID_3_);enable-background:new    ;}
	.st11{fill-rule:evenodd;clip-rule:evenodd;fill:#FAFCFF;}
	.st12{fill:none;stroke:url(#SVGID_4_);stroke-width:2;}
	.st13{opacity:0.2;}
	.st14{fill:none;stroke:#C7D6E5;stroke-width:2;}
	.st15{fill-rule:evenodd;clip-rule:evenodd;fill:#C7D6E5;}
	.st16{fill:#C7D6E5;fill-opacity:0.402;}
</style>
<filter  filterUnits="objectBoundingBox" height="115.7%" id="多人协作_02-b" width="115.7%" x="-7.8%" y="-7.8%">
	<feGaussianBlur  in="SourceGraphic" stdDeviation="9"></feGaussianBlur>
</filter>
<g transform="translate(23)" class="st0">
	<g class="st1">
		
			<linearGradient id="SVGID_1_" gradientUnits="userSpaceOnUse" x1="-784.7801" y1="744.0342" x2="-783.3623" y2="742.5859" gradientTransform="matrix(345 0 0 -345 270751 256731)">
			<stop  offset="0" style="stop-color:#8CA7C0"/>
			<stop  offset="1" style="stop-color:#E8E8E8"/>
		</linearGradient>
		<circle class="st2" cx="172.5" cy="213.5" r="172.5"/>
	</g>
	
		<linearGradient id="SVGID_2_" gradientUnits="userSpaceOnUse" x1="-784.761" y1="743.9238" x2="-783.8728" y2="743.2043" gradientTransform="matrix(341 0 0 -341 267605 253712)">
		<stop  offset="0" style="stop-color:#FFFFFF"/>
		<stop  offset="1" style="stop-color:#ACC2D1"/>
	</linearGradient>
	<circle class="st3" cx="172.5" cy="172.5" r="170.5"/>
	<g transform="translate(25 26)" class="st4">
		<line class="st5" x1="147.1" y1="0" x2="147.1" y2="75.3"/>
		<line class="st5" x1="265.1" y1="56.6" x2="206.5" y2="104"/>
		<line class="st5" x1="294.3" y1="184.5" x2="220.9" y2="167.5"/>
		<line class="st5" x1="213" y1="286.7" x2="180" y2="218.9"/>
		<line class="st5" x1="82" y1="286.7" x2="115" y2="218.9"/>
		<line class="st5" x1="0.7" y1="184.5" x2="74.1" y2="167.5"/>
		<line class="st5" x1="29.9" y1="56.6" x2="88.4" y2="104"/>
	</g>
	<polyline class="st6" points="157,111 172,172.4 85,266 	"/>
	<circle class="st7" cx="172" cy="172" r="13"/>
	<path class="st8" d="M173.5,122l11.8,46.5c5,1.7,8.7,6.6,8.7,12.2c0,7.1-5.8,12.9-12.9,12.9c-0.8,0-1.5-0.1-2.3-0.2L101.2,279
		l-3.2-2.9l76.5-84.4c-3.7-2.3-6.3-6.4-6.3-11.1c0-7,5.5-12.7,12.5-12.9l-11.3-44.7L173.5,122z"/>
</g>
<g class="st9">
	
		<linearGradient id="SVGID_3_" gradientUnits="userSpaceOnUse" x1="-761.1901" y1="743.1337" x2="-761.175" y2="742.5098" gradientTransform="matrix(345 0 0 -336 262819 249838)">
		<stop  offset="0" style="stop-color:#98B3CF"/>
		<stop  offset="1" style="stop-color:#DBE6F2"/>
		<stop  offset="1" style="stop-color:#DBE6F2"/>
	</linearGradient>
	<ellipse class="st10" cx="209.5" cy="189" rx="172.5" ry="168"/>
	<g>
		
			<image style="overflow:visible;opacity:0.1;" width="406" height="405" xlink:href="BA033A5982F46C07.png"  transform="matrix(1 0 0 1 4 -11)">
		</image>
		<g>
			<circle class="st11" cx="206.5" cy="181.5" r="171.5"/>
			
				<linearGradient id="SVGID_4_" gradientUnits="userSpaceOnUse" x1="-761.6749" y1="743.4398" x2="-760.7867" y2="742.7202" gradientTransform="matrix(343 0 0 -343 261289 255042)">
				<stop  offset="0" style="stop-color:#FFFFFF"/>
				<stop  offset="1" style="stop-color:#DAE4EB"/>
			</linearGradient>
			<circle class="st12" cx="206.5" cy="181.5" r="171.5"/>
		</g>
	</g>
	<g transform="translate(25 -133)" class="st13">
		<line class="st5" x1="328.3" y1="352.5" x2="254.9" y2="335.5"/>
		<line class="st5" x1="247" y1="454.7" x2="214" y2="386.9"/>
		<line class="st5" x1="116" y1="454.7" x2="149" y2="386.9"/>
		<line class="st5" x1="34.7" y1="352.5" x2="108.1" y2="335.5"/>
	</g>
	<polyline class="st14" points="191,120 206,181.4 119,275 	"/>
	<circle class="st15" cx="206" cy="181" r="13"/>
	<path class="st16" d="M207.6,131l11.8,46.5c5,1.7,8.7,6.6,8.7,12.2c0,7.1-5.8,12.9-12.9,12.9c-0.8,0-1.5-0.1-2.3-0.2L135.2,288
		l-3.2-2.9l76.5-84.4c-3.7-2.3-6.3-6.4-6.3-11.1c0-7,5.5-12.7,12.5-12.9l-11.3-44.7L207.6,131z"/>
</g>
</svg>
