<svg xmlns="http://www.w3.org/2000/svg" xmlns:xlink="http://www.w3.org/1999/xlink" viewBox="0 0 659 395">
  <defs>
    <linearGradient id="深色-b" x1="77.177%" x2="38.441%" y1="34.705%" y2="66.918%">
      <stop offset="0%" stop-color="#333"/>
      <stop offset="100%" stop-color="#262626"/>
    </linearGradient>
    <rect id="深色-a" width="659" height="395" x="0" y="0" rx="6"/>
    <circle id="深色-e" cx="597" cy="72" r="7"/>
    <filter id="深色-d" width="200%" height="200%" x="-64.3%" y="-35.7%" filterUnits="objectBoundingBox">
      <feOffset dx="-2" dy="2" in="SourceAlpha" result="shadowOffsetOuter1"/>
      <feGaussianBlur in="shadowOffsetOuter1" result="shadowBlurOuter1" stdDeviation="2"/>
      <feColorMatrix in="shadowBlurOuter1" values="0 0 0 0 0   0 0 0 0 0   0 0 0 0 0  0 0 0 0.5 0"/>
    </filter>
    <circle id="深色-g" cx="575" cy="72" r="7"/>
    <filter id="深色-f" width="200%" height="200%" x="-64.3%" y="-35.7%" filterUnits="objectBoundingBox">
      <feOffset dx="-2" dy="2" in="SourceAlpha" result="shadowOffsetOuter1"/>
      <feGaussianBlur in="shadowOffsetOuter1" result="shadowBlurOuter1" stdDeviation="2"/>
      <feColorMatrix in="shadowBlurOuter1" values="0 0 0 0 0   0 0 0 0 0   0 0 0 0 0  0 0 0 0.5 0"/>
    </filter>
    <rect id="深色-h" width="138" height="78" x=".36" y="0" rx="1.078"/>
    <filter id="深色-i" width="105.1%" height="109%" x="-2.5%" y="-3.2%" filterUnits="objectBoundingBox">
      <feOffset dy="1" in="SourceAlpha" result="shadowOffsetOuter1"/>
      <feGaussianBlur in="shadowOffsetOuter1" result="shadowBlurOuter1" stdDeviation="1"/>
      <feComposite in="shadowBlurOuter1" in2="SourceAlpha" operator="out" result="shadowBlurOuter1"/>
      <feColorMatrix in="shadowBlurOuter1" values="0 0 0 0 0   0 0 0 0 0   0 0 0 0 0  0 0 0 0.183074738 0"/>
    </filter>
    <path id="深色-l" d="M43.496,57.359 C44.091363,57.359 44.574,58.2544305 44.574,59.359 L44.574,63.359 C44.574,64.4635695 44.091363,65.359 43.496,65.359 L16.546,65.359 C15.950637,65.359 15.468,64.4635695 15.468,63.359 L15.468,59.359 C15.468,58.2544305 15.950637,57.359 16.546,57.359 L43.496,57.359 Z M125.424,27.02 C126.019363,27.02 126.502,27.502637 126.502,28.098 L126.502,48.041 C126.502,48.636363 126.019363,49.119 125.424,49.119 L16.546,49.119 C15.950637,49.119 15.468,48.636363 15.468,48.041 L15.468,28.098 C15.468,27.502637 15.950637,27.02 16.546,27.02 L125.424,27.02 Z M70.446,10.78 C71.041363,10.78 71.524,11.6754305 71.524,12.78 L71.524,16.78 C71.524,17.8845695 71.041363,18.78 70.446,18.78 L16.546,18.78 C15.950637,18.78 15.468,17.8845695 15.468,16.78 L15.468,12.78 C15.468,11.6754305 15.950637,10.78 16.546,10.78 L70.446,10.78 Z"/>
    <filter id="深色-k" width="107.2%" height="114.7%" x="-5.4%" y="-3.7%" filterUnits="objectBoundingBox">
      <feOffset dx="-2" dy="2" in="SourceAlpha" result="shadowOffsetOuter1"/>
      <feGaussianBlur in="shadowOffsetOuter1" result="shadowBlurOuter1" stdDeviation="1"/>
      <feColorMatrix in="shadowBlurOuter1" values="0 0 0 0 0   0 0 0 0 0   0 0 0 0 0  0 0 0 0.417176573 0"/>
    </filter>
    <rect id="深色-m" width="138" height="78" x=".36" y="0" rx="1.078"/>
    <filter id="深色-n" width="105.1%" height="109%" x="-2.5%" y="-3.2%" filterUnits="objectBoundingBox">
      <feOffset dy="1" in="SourceAlpha" result="shadowOffsetOuter1"/>
      <feGaussianBlur in="shadowOffsetOuter1" result="shadowBlurOuter1" stdDeviation="1"/>
      <feComposite in="shadowBlurOuter1" in2="SourceAlpha" operator="out" result="shadowBlurOuter1"/>
      <feColorMatrix in="shadowBlurOuter1" values="0 0 0 0 0   0 0 0 0 0   0 0 0 0 0  0 0 0 0.183074738 0"/>
    </filter>
    <path id="深色-q" d="M43.496,57.359 C44.091363,57.359 44.574,58.2544305 44.574,59.359 L44.574,63.359 C44.574,64.4635695 44.091363,65.359 43.496,65.359 L16.546,65.359 C15.950637,65.359 15.468,64.4635695 15.468,63.359 L15.468,59.359 C15.468,58.2544305 15.950637,57.359 16.546,57.359 L43.496,57.359 Z M125.424,27.02 C126.019363,27.02 126.502,27.502637 126.502,28.098 L126.502,48.041 C126.502,48.636363 126.019363,49.119 125.424,49.119 L16.546,49.119 C15.950637,49.119 15.468,48.636363 15.468,48.041 L15.468,28.098 C15.468,27.502637 15.950637,27.02 16.546,27.02 L125.424,27.02 Z M70.446,10.78 C71.041363,10.78 71.524,11.6754305 71.524,12.78 L71.524,16.78 C71.524,17.8845695 71.041363,18.78 70.446,18.78 L16.546,18.78 C15.950637,18.78 15.468,17.8845695 15.468,16.78 L15.468,12.78 C15.468,11.6754305 15.950637,10.78 16.546,10.78 L70.446,10.78 Z"/>
    <filter id="深色-p" width="107.2%" height="114.7%" x="-5.4%" y="-3.7%" filterUnits="objectBoundingBox">
      <feOffset dx="-2" dy="2" in="SourceAlpha" result="shadowOffsetOuter1"/>
      <feGaussianBlur in="shadowOffsetOuter1" result="shadowBlurOuter1" stdDeviation="1"/>
      <feColorMatrix in="shadowBlurOuter1" values="0 0 0 0 0   0 0 0 0 0   0 0 0 0 0  0 0 0 0.365411932 0"/>
    </filter>
    <path id="深色-s" d="M39.4,6 L345.716667,6 C346.489865,6 347.116667,6.62680135 347.116667,7.4 L347.116667,11.6 C347.116667,12.3731986 346.489865,13 345.716667,13 L39.4,13 C38.6268014,13 38,12.3731986 38,11.6 L38,7.4 C38,6.62680135 38.6268014,6 39.4,6 Z"/>
    <filter id="深色-r" width="101.3%" height="157.1%" x="-.6%" y="-14.3%" filterUnits="objectBoundingBox">
      <feOffset dy="1" in="SourceAlpha" result="shadowOffsetOuter1"/>
      <feGaussianBlur in="shadowOffsetOuter1" result="shadowBlurOuter1" stdDeviation=".5"/>
      <feColorMatrix in="shadowBlurOuter1" values="0 0 0 0 0   0 0 0 0 0   0 0 0 0 0  0 0 0 1 0"/>
    </filter>
    <path id="深色-u" d="M39.4,22 L133.831944,22 C134.605143,22 135.231944,22.6268014 135.231944,23.4 L135.231944,27.6 C135.231944,28.3731986 134.605143,29 133.831944,29 L39.4,29 C38.6268014,29 38,28.3731986 38,27.6 L38,23.4 C38,22.6268014 38.6268014,22 39.4,22 Z"/>
    <filter id="深色-t" width="104.1%" height="157.1%" x="-2.1%" y="-14.3%" filterUnits="objectBoundingBox">
      <feOffset dy="1" in="SourceAlpha" result="shadowOffsetOuter1"/>
      <feGaussianBlur in="shadowOffsetOuter1" result="shadowBlurOuter1" stdDeviation=".5"/>
      <feColorMatrix in="shadowBlurOuter1" values="0 0 0 0 0   0 0 0 0 0   0 0 0 0 0  0 0 0 1 0"/>
    </filter>
    <linearGradient id="深色-w" x1="50%" x2="50%" y1="0%" y2="100%">
      <stop offset="0%" stop-color="#5FA0F8"/>
      <stop offset="100%" stop-color="#4991F2"/>
    </linearGradient>
    <path id="深色-v" d="M1.4955997,-5.13841088e-16 L24.171067,-1.10818087e-15 C24.6911196,6.43884998e-16 24.8797032,0.0541482732 25.0698267,0.155827411 C25.2599501,0.257506548 25.4091601,0.406716549 25.5108393,0.596840006 C25.6125184,0.786963463 25.6666667,0.975547102 25.6666667,1.4955997 L25.6666667,24.171067 C25.6666667,24.6911196 25.6125184,24.8797032 25.5108393,25.0698267 C25.4091601,25.2599501 25.2599501,25.4091601 25.0698267,25.5108393 C24.8797032,25.6125184 24.6911196,25.6666667 24.171067,25.6666667 L1.4955997,25.6666667 C0.975547102,25.6666667 0.786963463,25.6125184 0.596840006,25.5108393 C0.406716549,25.4091601 0.257506548,25.2599501 0.155827411,25.0698267 C0.0541482732,24.8797032 8.80972727e-16,24.6911196 -1.51622902e-15,24.171067 L4.02826786e-17,1.4955997 C-2.34053963e-17,0.975547102 0.0541482732,0.786963463 0.155827411,0.596840006 C0.257506548,0.406716549 0.406716549,0.257506548 0.596840006,0.155827411 C0.786963463,0.0541482732 0.975547102,2.98556469e-16 1.4955997,-5.13841088e-16 Z"/>
    <path id="深色-y" d="M39.4,6 L345.716667,6 C346.489865,6 347.116667,6.62680135 347.116667,7.4 L347.116667,11.6 C347.116667,12.3731986 346.489865,13 345.716667,13 L39.4,13 C38.6268014,13 38,12.3731986 38,11.6 L38,7.4 C38,6.62680135 38.6268014,6 39.4,6 Z"/>
    <filter id="深色-x" width="101.3%" height="157.1%" x="-.6%" y="-14.3%" filterUnits="objectBoundingBox">
      <feOffset dy="1" in="SourceAlpha" result="shadowOffsetOuter1"/>
      <feGaussianBlur in="shadowOffsetOuter1" result="shadowBlurOuter1" stdDeviation=".5"/>
      <feColorMatrix in="shadowBlurOuter1" values="0 0 0 0 0   0 0 0 0 0   0 0 0 0 0  0 0 0 1 0"/>
    </filter>
    <path id="深色-A" d="M39.4,22 L133.831944,22 C134.605143,22 135.231944,22.6268014 135.231944,23.4 L135.231944,27.6 C135.231944,28.3731986 134.605143,29 133.831944,29 L39.4,29 C38.6268014,29 38,28.3731986 38,27.6 L38,23.4 C38,22.6268014 38.6268014,22 39.4,22 Z"/>
    <filter id="深色-z" width="104.1%" height="157.1%" x="-2.1%" y="-14.3%" filterUnits="objectBoundingBox">
      <feOffset dy="1" in="SourceAlpha" result="shadowOffsetOuter1"/>
      <feGaussianBlur in="shadowOffsetOuter1" result="shadowBlurOuter1" stdDeviation=".5"/>
      <feColorMatrix in="shadowBlurOuter1" values="0 0 0 0 0   0 0 0 0 0   0 0 0 0 0  0 0 0 1 0"/>
    </filter>
    <linearGradient id="深色-C" x1="50%" x2="50%" y1="0%" y2="98.146%">
      <stop offset="0%" stop-color="#FB7951"/>
      <stop offset="100%" stop-color="#F46D43"/>
    </linearGradient>
    <path id="深色-B" d="M1.4955997,-5.13841088e-16 L24.171067,-1.10818087e-15 C24.6911196,6.43884998e-16 24.8797032,0.0541482732 25.0698267,0.155827411 C25.2599501,0.257506548 25.4091601,0.406716549 25.5108393,0.596840006 C25.6125184,0.786963463 25.6666667,0.975547102 25.6666667,1.4955997 L25.6666667,24.171067 C25.6666667,24.6911196 25.6125184,24.8797032 25.5108393,25.0698267 C25.4091601,25.2599501 25.2599501,25.4091601 25.0698267,25.5108393 C24.8797032,25.6125184 24.6911196,25.6666667 24.171067,25.6666667 L1.4955997,25.6666667 C0.975547102,25.6666667 0.786963463,25.6125184 0.596840006,25.5108393 C0.406716549,25.4091601 0.257506548,25.2599501 0.155827411,25.0698267 C0.0541482732,24.8797032 8.80972727e-16,24.6911196 -1.51622902e-15,24.171067 L4.02826786e-17,1.4955997 C-2.34053963e-17,0.975547102 0.0541482732,0.786963463 0.155827411,0.596840006 C0.257506548,0.406716549 0.406716549,0.257506548 0.596840006,0.155827411 C0.786963463,0.0541482732 0.975547102,2.98556469e-16 1.4955997,-5.13841088e-16 Z"/>
    <path id="深色-E" d="M39.4,6 L345.716667,6 C346.489865,6 347.116667,6.62680135 347.116667,7.4 L347.116667,11.6 C347.116667,12.3731986 346.489865,13 345.716667,13 L39.4,13 C38.6268014,13 38,12.3731986 38,11.6 L38,7.4 C38,6.62680135 38.6268014,6 39.4,6 Z"/>
    <filter id="深色-D" width="101.3%" height="157.1%" x="-.6%" y="-14.3%" filterUnits="objectBoundingBox">
      <feOffset dy="1" in="SourceAlpha" result="shadowOffsetOuter1"/>
      <feGaussianBlur in="shadowOffsetOuter1" result="shadowBlurOuter1" stdDeviation=".5"/>
      <feColorMatrix in="shadowBlurOuter1" values="0 0 0 0 0   0 0 0 0 0   0 0 0 0 0  0 0 0 1 0"/>
    </filter>
    <path id="深色-G" d="M39.4,22 L133.831944,22 C134.605143,22 135.231944,22.6268014 135.231944,23.4 L135.231944,27.6 C135.231944,28.3731986 134.605143,29 133.831944,29 L39.4,29 C38.6268014,29 38,28.3731986 38,27.6 L38,23.4 C38,22.6268014 38.6268014,22 39.4,22 Z"/>
    <filter id="深色-F" width="104.1%" height="157.1%" x="-2.1%" y="-14.3%" filterUnits="objectBoundingBox">
      <feOffset dy="1" in="SourceAlpha" result="shadowOffsetOuter1"/>
      <feGaussianBlur in="shadowOffsetOuter1" result="shadowBlurOuter1" stdDeviation=".5"/>
      <feColorMatrix in="shadowBlurOuter1" values="0 0 0 0 0   0 0 0 0 0   0 0 0 0 0  0 0 0 1 0"/>
    </filter>
    <linearGradient id="深色-I" x1="50%" x2="50%" y1="0%" y2="100%">
      <stop offset="0%" stop-color="#3CCD93"/>
      <stop offset="100%" stop-color="#1FBB7D"/>
    </linearGradient>
    <path id="深色-H" d="M1.4955997,-5.13841088e-16 L24.171067,-1.10818087e-15 C24.6911196,6.43884998e-16 24.8797032,0.0541482732 25.0698267,0.155827411 C25.2599501,0.257506548 25.4091601,0.406716549 25.5108393,0.596840006 C25.6125184,0.786963463 25.6666667,0.975547102 25.6666667,1.4955997 L25.6666667,24.171067 C25.6666667,24.6911196 25.6125184,24.8797032 25.5108393,25.0698267 C25.4091601,25.2599501 25.2599501,25.4091601 25.0698267,25.5108393 C24.8797032,25.6125184 24.6911196,25.6666667 24.171067,25.6666667 L1.4955997,25.6666667 C0.975547102,25.6666667 0.786963463,25.6125184 0.596840006,25.5108393 C0.406716549,25.4091601 0.257506548,25.2599501 0.155827411,25.0698267 C0.0541482732,24.8797032 8.80972727e-16,24.6911196 -1.51622902e-15,24.171067 L4.02826786e-17,1.4955997 C-2.34053963e-17,0.975547102 0.0541482732,0.786963463 0.155827411,0.596840006 C0.257506548,0.406716549 0.406716549,0.257506548 0.596840006,0.155827411 C0.786963463,0.0541482732 0.975547102,2.98556469e-16 1.4955997,-5.13841088e-16 Z"/>
    <path id="深色-K" d="M1.344,0 L161.656,0 C162.398271,1.56860988e-14 163,0.601729296 163,1.344 L163,51.656 C163,52.3982707 162.398271,53 161.656,53 L1.344,53 C0.601729296,53 -5.90430239e-15,52.3982707 0,51.656 L0,1.344 C-9.09019441e-17,0.601729296 0.601729296,1.24657594e-15 1.344,0 Z"/>
    <filter id="深色-J" width="106.7%" height="120.8%" x="-4.6%" y="-8.5%" filterUnits="objectBoundingBox">
      <feOffset dx="-2" dy="1" in="SourceAlpha" result="shadowOffsetOuter1"/>
      <feGaussianBlur in="shadowOffsetOuter1" result="shadowBlurOuter1" stdDeviation="1.5"/>
      <feComposite in="shadowBlurOuter1" in2="SourceAlpha" operator="out" result="shadowBlurOuter1"/>
      <feColorMatrix in="shadowBlurOuter1" values="0 0 0 0 0   0 0 0 0 0   0 0 0 0 0  0 0 0 0.5 0"/>
    </filter>
    <path id="深色-L" d="M1.2819426,-5.17920154e-17 L20.7180574,5.17920154e-17 C21.1638168,-3.00926524e-17 21.3254599,0.0464128056 21.4884229,0.133566352 C21.6513858,0.220719898 21.7792801,0.348614185 21.8664336,0.511577148 C21.9535872,0.674540111 22,0.83618323 22,1.2819426 L22,20.7180574 C22,21.1638168 21.9535872,21.3254599 21.8664336,21.4884229 C21.7792801,21.6513858 21.6513858,21.7792801 21.4884229,21.8664336 C21.3254599,21.9535872 21.1638168,22 20.7180574,22 L1.2819426,22 C0.83618323,22 0.674540111,21.9535872 0.511577148,21.8664336 C0.348614185,21.7792801 0.220719898,21.6513858 0.133566352,21.4884229 C0.0464128056,21.3254599 2.00617683e-17,21.1638168 -3.45280103e-17,20.7180574 L3.45280103e-17,1.2819426 C-2.00617683e-17,0.83618323 0.0464128056,0.674540111 0.133566352,0.511577148 C0.220719898,0.348614185 0.348614185,0.220719898 0.511577148,0.133566352 C0.674540111,0.0464128056 0.83618323,3.00926524e-17 1.2819426,-5.17920154e-17 Z"/>
    <path id="深色-N" d="M82.0550847,29 C82.799265,29 83.4025424,29.8208113 83.4025424,30.8333333 L83.4025424,34.5 C83.4025424,35.5125217 82.799265,36.333333 82.0550847,36.333333 L46.3474576,36.333333 C45.6032773,36.333333 45,35.5125217 45,34.5 L45,30.8333333 C45,29.8208113 45.6032773,29 46.3474576,29 L82.0550847,29 Z M113.720339,15 C114.464519,15 115.067797,15.8208113 115.067797,16.8333333 L115.067797,20.5 C115.067797,21.5125217 114.464519,22.333333 113.720339,22.333333 L46.3474576,22.333333 C45.6032773,22.333333 45,21.5125217 45,20.5 L45,16.8333333 C45,15.8208113 45.6032773,15 46.3474576,15 L113.720339,15 Z"/>
    <filter id="深色-M" width="105.7%" height="118.8%" x="-2.9%" y="-4.7%" filterUnits="objectBoundingBox">
      <feOffset dy="1" in="SourceAlpha" result="shadowOffsetOuter1"/>
      <feGaussianBlur in="shadowOffsetOuter1" result="shadowBlurOuter1" stdDeviation=".5"/>
      <feColorMatrix in="shadowBlurOuter1" values="0 0 0 0 0   0 0 0 0 0   0 0 0 0 0  0 0 0 1 0"/>
    </filter>
    <path id="深色-P" d="M1.344,0 L161.656,0 C162.398271,1.56860988e-14 163,0.601729296 163,1.344 L163,51.656 C163,52.3982707 162.398271,53 161.656,53 L1.344,53 C0.601729296,53 -5.90430239e-15,52.3982707 0,51.656 L0,1.344 C-9.09019441e-17,0.601729296 0.601729296,1.24657594e-15 1.344,0 Z"/>
    <filter id="深色-O" width="106.7%" height="120.8%" x="-4.6%" y="-8.5%" filterUnits="objectBoundingBox">
      <feOffset dx="-2" dy="1" in="SourceAlpha" result="shadowOffsetOuter1"/>
      <feGaussianBlur in="shadowOffsetOuter1" result="shadowBlurOuter1" stdDeviation="1.5"/>
      <feComposite in="shadowBlurOuter1" in2="SourceAlpha" operator="out" result="shadowBlurOuter1"/>
      <feColorMatrix in="shadowBlurOuter1" values="0 0 0 0 0   0 0 0 0 0   0 0 0 0 0  0 0 0 0.5 0"/>
    </filter>
    <path id="深色-Q" d="M1.2819426,-5.17920154e-17 L20.7180574,5.17920154e-17 C21.1638168,-3.00926524e-17 21.3254599,0.0464128056 21.4884229,0.133566352 C21.6513858,0.220719898 21.7792801,0.348614185 21.8664336,0.511577148 C21.9535872,0.674540111 22,0.83618323 22,1.2819426 L22,20.7180574 C22,21.1638168 21.9535872,21.3254599 21.8664336,21.4884229 C21.7792801,21.6513858 21.6513858,21.7792801 21.4884229,21.8664336 C21.3254599,21.9535872 21.1638168,22 20.7180574,22 L1.2819426,22 C0.83618323,22 0.674540111,21.9535872 0.511577148,21.8664336 C0.348614185,21.7792801 0.220719898,21.6513858 0.133566352,21.4884229 C0.0464128056,21.3254599 2.00617683e-17,21.1638168 -3.45280103e-17,20.7180574 L3.45280103e-17,1.2819426 C-2.00617683e-17,0.83618323 0.0464128056,0.674540111 0.133566352,0.511577148 C0.220719898,0.348614185 0.348614185,0.220719898 0.511577148,0.133566352 C0.674540111,0.0464128056 0.83618323,3.00926524e-17 1.2819426,-5.17920154e-17 Z"/>
    <path id="深色-S" d="M82.0550847,29 C82.799265,29 83.4025424,29.8208113 83.4025424,30.8333333 L83.4025424,34.5 C83.4025424,35.5125217 82.799265,36.333333 82.0550847,36.333333 L46.3474576,36.333333 C45.6032773,36.333333 45,35.5125217 45,34.5 L45,30.8333333 C45,29.8208113 45.6032773,29 46.3474576,29 L82.0550847,29 Z M113.720339,15 C114.464519,15 115.067797,15.8208113 115.067797,16.8333333 L115.067797,20.5 C115.067797,21.5125217 114.464519,22.333333 113.720339,22.333333 L46.3474576,22.333333 C45.6032773,22.333333 45,21.5125217 45,20.5 L45,16.8333333 C45,15.8208113 45.6032773,15 46.3474576,15 L113.720339,15 Z"/>
    <filter id="深色-R" width="105.7%" height="118.8%" x="-2.9%" y="-4.7%" filterUnits="objectBoundingBox">
      <feOffset dy="1" in="SourceAlpha" result="shadowOffsetOuter1"/>
      <feGaussianBlur in="shadowOffsetOuter1" result="shadowBlurOuter1" stdDeviation=".5"/>
      <feColorMatrix in="shadowBlurOuter1" values="0 0 0 0 0   0 0 0 0 0   0 0 0 0 0  0 0 0 1 0"/>
    </filter>
    <filter id="深色-T" width="153.8%" height="160.3%" x="-26.9%" y="-30.2%" filterUnits="objectBoundingBox">
      <feOffset dy="3" in="SourceAlpha" result="shadowOffsetOuter1"/>
      <feGaussianBlur in="shadowOffsetOuter1" result="shadowBlurOuter1" stdDeviation="3"/>
      <feColorMatrix in="shadowBlurOuter1" result="shadowMatrixOuter1" values="0 0 0 0 0   0 0 0 0 0   0 0 0 0 0  0 0 0 1 0"/>
      <feMerge>
        <feMergeNode in="shadowMatrixOuter1"/>
        <feMergeNode in="SourceGraphic"/>
      </feMerge>
    </filter>
    <filter id="深色-U" width="204.3%" height="209.1%" x="-52.2%" y="-54.5%" filterUnits="objectBoundingBox">
      <feOffset dx="-2" dy="2" in="SourceAlpha" result="shadowOffsetOuter1"/>
      <feGaussianBlur in="shadowOffsetOuter1" result="shadowBlurOuter1" stdDeviation="2"/>
      <feColorMatrix in="shadowBlurOuter1" result="shadowMatrixOuter1" values="0 0 0 0 0   0 0 0 0 0   0 0 0 0 0  0 0 0 0.5 0"/>
      <feMerge>
        <feMergeNode in="shadowMatrixOuter1"/>
        <feMergeNode in="SourceGraphic"/>
      </feMerge>
    </filter>
    <filter id="深色-V" width="222.7%" height="217.4%" x="-61.4%" y="-58.7%" filterUnits="objectBoundingBox">
      <feOffset dy="2" in="SourceAlpha" result="shadowOffsetOuter1"/>
      <feGaussianBlur in="shadowOffsetOuter1" result="shadowBlurOuter1" stdDeviation="2.5"/>
      <feColorMatrix in="shadowBlurOuter1" result="shadowMatrixOuter1" values="0 0 0 0 0   0 0 0 0 0   0 0 0 0 0  0 0 0 0.601343969 0"/>
      <feMerge>
        <feMergeNode in="shadowMatrixOuter1"/>
        <feMergeNode in="SourceGraphic"/>
      </feMerge>
    </filter>
    <filter id="深色-W" width="153.8%" height="160.3%" x="-26.9%" y="-30.2%" filterUnits="objectBoundingBox">
      <feOffset dy="3" in="SourceAlpha" result="shadowOffsetOuter1"/>
      <feGaussianBlur in="shadowOffsetOuter1" result="shadowBlurOuter1" stdDeviation="3"/>
      <feColorMatrix in="shadowBlurOuter1" result="shadowMatrixOuter1" values="0 0 0 0 0   0 0 0 0 0   0 0 0 0 0  0 0 0 1 0"/>
      <feMerge>
        <feMergeNode in="shadowMatrixOuter1"/>
        <feMergeNode in="SourceGraphic"/>
      </feMerge>
    </filter>
    <filter id="深色-X" width="200%" height="209.1%" x="-50%" y="-54.5%" filterUnits="objectBoundingBox">
      <feOffset dx="-2" dy="2" in="SourceAlpha" result="shadowOffsetOuter1"/>
      <feGaussianBlur in="shadowOffsetOuter1" result="shadowBlurOuter1" stdDeviation="2"/>
      <feColorMatrix in="shadowBlurOuter1" result="shadowMatrixOuter1" values="0 0 0 0 0   0 0 0 0 0   0 0 0 0 0  0 0 0 0.5 0"/>
      <feMerge>
        <feMergeNode in="shadowMatrixOuter1"/>
        <feMergeNode in="SourceGraphic"/>
      </feMerge>
    </filter>
    <filter id="深色-Y" width="153.8%" height="160.3%" x="-26.9%" y="-30.2%" filterUnits="objectBoundingBox">
      <feOffset dy="3" in="SourceAlpha" result="shadowOffsetOuter1"/>
      <feGaussianBlur in="shadowOffsetOuter1" result="shadowBlurOuter1" stdDeviation="3"/>
      <feColorMatrix in="shadowBlurOuter1" result="shadowMatrixOuter1" values="0 0 0 0 0   0 0 0 0 0   0 0 0 0 0  0 0 0 1 0"/>
      <feMerge>
        <feMergeNode in="shadowMatrixOuter1"/>
        <feMergeNode in="SourceGraphic"/>
      </feMerge>
    </filter>
    <filter id="深色-Z" width="196%" height="192.3%" x="-48%" y="-46.2%" filterUnits="objectBoundingBox">
      <feOffset dx="-2" dy="2" in="SourceAlpha" result="shadowOffsetOuter1"/>
      <feGaussianBlur in="shadowOffsetOuter1" result="shadowBlurOuter1" stdDeviation="2"/>
      <feColorMatrix in="shadowBlurOuter1" result="shadowMatrixOuter1" values="0 0 0 0 0   0 0 0 0 0   0 0 0 0 0  0 0 0 0.5 0"/>
      <feMerge>
        <feMergeNode in="shadowMatrixOuter1"/>
        <feMergeNode in="SourceGraphic"/>
      </feMerge>
    </filter>
    <rect id="深色-ab" width="401" height="25" x="127" y="59" rx="12.5"/>
    <filter id="深色-aa" width="103.5%" height="156%" x="-2.2%" y="-20%" filterUnits="objectBoundingBox">
      <feOffset dx="-2" dy="2" in="SourceAlpha" result="shadowOffsetOuter1"/>
      <feGaussianBlur in="shadowOffsetOuter1" result="shadowBlurOuter1" stdDeviation="2"/>
      <feColorMatrix in="shadowBlurOuter1" values="0 0 0 0 0   0 0 0 0 0   0 0 0 0 0  0 0 0 0.688155594 0"/>
    </filter>
    <filter id="深色-ac" width="208.3%" height="208.3%" x="-54.2%" y="-54.2%" filterUnits="objectBoundingBox">
      <feOffset dx="-2" dy="2" in="SourceAlpha" result="shadowOffsetOuter1"/>
      <feGaussianBlur in="shadowOffsetOuter1" result="shadowBlurOuter1" stdDeviation="2"/>
      <feColorMatrix in="shadowBlurOuter1" result="shadowMatrixOuter1" values="0 0 0 0 0   0 0 0 0 0   0 0 0 0 0  0 0 0 0.5 0"/>
      <feMerge>
        <feMergeNode in="shadowMatrixOuter1"/>
        <feMergeNode in="SourceGraphic"/>
      </feMerge>
    </filter>
    <circle id="深色-ad" cx="12" cy="12" r="12"/>
    <circle id="深色-af" cx="12" cy="12" r="12"/>
    <linearGradient id="深色-ag" x1="0%" x2="100%" y1="0%" y2="100%">
      <stop offset="0%" stop-color="#6FCAFF"/>
      <stop offset="100%" stop-color="#4192FF"/>
    </linearGradient>
    <linearGradient id="深色-ah" x1="0%" x2="100%" y1="0%" y2="100%">
      <stop offset="0%" stop-color="#FFA763"/>
      <stop offset="100%" stop-color="#FF6E41"/>
    </linearGradient>
    <linearGradient id="深色-ai" x1=".359%" x2="99.093%" y1=".359%" y2="99.093%">
      <stop offset="0%" stop-color="#3AE191"/>
      <stop offset="100%" stop-color="#16B978"/>
    </linearGradient>
  </defs>
  <g fill="none" fill-rule="evenodd">
    <mask id="深色-c" fill="#fff">
      <use xlink:href="#深色-a"/>
    </mask>
    <use fill="url(#深色-b)" xlink:href="#深色-a"/>
    <g mask="url(#深色-c)">
      <use fill="#000" filter="url(#深色-d)" xlink:href="#深色-e"/>
      <use fill="#727272" xlink:href="#深色-e"/>
    </g>
    <g mask="url(#深色-c)">
      <use fill="#000" filter="url(#深色-f)" xlink:href="#深色-g"/>
      <use fill="#727272" xlink:href="#深色-g"/>
    </g>
    <g mask="url(#深色-c)">
      <g transform="translate(498 110)">
        <mask id="深色-j" fill="#fff">
          <use xlink:href="#深色-h"/>
        </mask>
        <use fill="#000" filter="url(#深色-i)" xlink:href="#深色-h"/>
        <use fill="#FFF" fill-opacity=".03" xlink:href="#深色-h"/>
        <g fill-opacity="0" mask="url(#深色-j)">
          <rect width="12.936" height="12.936" rx="2.156" transform="translate(122.19 4.312)"/>
        </g>
        <g opacity=".605">
          <use fill="#000" filter="url(#深色-k)" xlink:href="#深色-l"/>
          <use fill="#676768" xlink:href="#深色-l"/>
        </g>
      </g>
    </g>
    <g mask="url(#深色-c)">
      <g transform="translate(498 208)">
        <mask id="深色-o" fill="#fff">
          <use xlink:href="#深色-m"/>
        </mask>
        <use fill="#000" filter="url(#深色-n)" xlink:href="#深色-m"/>
        <use fill="#FFF" fill-opacity=".03" xlink:href="#深色-m"/>
        <g fill-opacity="0" mask="url(#深色-o)">
          <rect width="12.936" height="12.936" rx="2.156" transform="translate(122.19 4.312)"/>
        </g>
        <g opacity=".605">
          <use fill="#000" filter="url(#深色-p)" xlink:href="#深色-q"/>
          <use fill="#676768" xlink:href="#深色-q"/>
        </g>
      </g>
    </g>
    <rect width="659" height="36" fill="#181818" mask="url(#深色-c)"/>
    <g transform="translate(127 197)">
      <g opacity=".814">
        <use fill="#000" filter="url(#深色-r)" xlink:href="#深色-s"/>
        <use fill="#676768" xlink:href="#深色-s"/>
      </g>
      <g opacity=".814">
        <use fill="#000" filter="url(#深色-t)" xlink:href="#深色-u"/>
        <use fill="#676768" xlink:href="#深色-u"/>
      </g>
      <g opacity=".8" transform="translate(3.167 1.167)">
        <g fill-rule="nonzero">
          <use fill="#5598F2" xlink:href="#深色-v"/>
          <use fill="url(#深色-w)" xlink:href="#深色-v"/>
        </g>
        <polyline stroke="#FFF" stroke-linecap="round" stroke-linejoin="round" stroke-width="1.75" points="7 7 7 18.083 12.833 13.125 18.667 18.083 18.667 7"/>
      </g>
    </g>
    <g transform="translate(127 252)">
      <g opacity=".814">
        <use fill="#000" filter="url(#深色-x)" xlink:href="#深色-y"/>
        <use fill="#676768" xlink:href="#深色-y"/>
      </g>
      <g opacity=".814">
        <use fill="#000" filter="url(#深色-z)" xlink:href="#深色-A"/>
        <use fill="#676768" xlink:href="#深色-A"/>
      </g>
      <g opacity=".8" transform="translate(3.167 5.167)">
        <use fill="#F88460" xlink:href="#深色-B"/>
        <use fill="url(#深色-C)" xlink:href="#深色-B"/>
        <path stroke="#FFF" stroke-linecap="round" stroke-linejoin="round" stroke-width="1.75" d="M7.05079267,7.00857594 L16.9166673,7.00195682 C18.5264171,7.00087682 19.8322527,8.30496136 19.8333327,9.91471116 C19.8333331,9.91536299 19.8333333,9.91601483 19.8333333,9.91666667 C19.8333333,11.5274972 18.5274972,12.8333333 16.9166667,12.8333333 L7,12.8333333 L7,12.8333333 L7,19.25"/>
      </g>
    </g>
    <g transform="translate(127 307)">
      <g opacity=".814">
        <use fill="#000" filter="url(#深色-D)" xlink:href="#深色-E"/>
        <use fill="#676768" xlink:href="#深色-E"/>
      </g>
      <g opacity=".814">
        <use fill="#000" filter="url(#深色-F)" xlink:href="#深色-G"/>
        <use fill="#676768" xlink:href="#深色-G"/>
      </g>
      <g opacity=".8" transform="translate(3.167 1.167)">
        <use fill="#55D1A5" xlink:href="#深色-H"/>
        <use fill="url(#深色-I)" xlink:href="#深色-H"/>
        <path stroke="#FFF" stroke-linecap="round" stroke-width="1.75" d="M18.6966374,7 L9.33333333,7 C7.72250281,7 6.41666667,8.30583615 6.41666667,9.91666667 C6.41666667,11.5274972 7.72250281,12.8333333 9.33333333,12.8333333 L16.3333333,12.8333333 C17.9441639,12.8333333 19.25,14.1391695 19.25,15.75 C19.25,17.3608305 17.9441639,18.6666667 16.3333333,18.6666667 L7.00431851,18.6666667 L7.00431851,18.6666667"/>
      </g>
    </g>
    <g transform="translate(127 119)">
      <use fill="#000" filter="url(#深色-J)" xlink:href="#深色-K"/>
      <use fill="#FFF" fill-opacity=".08" xlink:href="#深色-K"/>
      <g opacity=".8" transform="translate(15.106 14.333)">
        <g fill-rule="nonzero">
          <use fill="#5598F2" xlink:href="#深色-L"/>
          <use fill="url(#深色-w)" xlink:href="#深色-L"/>
        </g>
        <polyline stroke="#FFF" stroke-linecap="round" stroke-linejoin="round" stroke-width="1.5" points="6 6 6 15.5 11 11.25 16 15.5 16 6"/>
      </g>
      <g opacity=".814">
        <use fill="#000" filter="url(#深色-M)" xlink:href="#深色-N"/>
        <use fill="#676768" xlink:href="#深色-N"/>
      </g>
    </g>
    <g transform="translate(312 119)">
      <use fill="#000" filter="url(#深色-O)" xlink:href="#深色-P"/>
      <use fill="#FFF" fill-opacity=".08" xlink:href="#深色-P"/>
      <g opacity=".8" transform="translate(15.106 14.333)">
        <g fill-rule="nonzero">
          <use fill="#5598F2" xlink:href="#深色-Q"/>
          <use fill="url(#深色-w)" xlink:href="#深色-Q"/>
        </g>
        <polyline stroke="#FFF" stroke-linecap="round" stroke-linejoin="round" stroke-width="1.5" points="6 6 6 15.5 11 11.25 16 15.5 16 6"/>
      </g>
      <g opacity=".814">
        <use fill="#000" filter="url(#深色-R)" xlink:href="#深色-S"/>
        <use fill="#676768" xlink:href="#深色-S"/>
      </g>
    </g>
    <g transform="translate(9 52)">
      <g fill="#FFF" fill-opacity=".4" fill-rule="nonzero" filter="url(#深色-T)" transform="translate(0 200.2)">
        <g filter="url(#深色-U)" transform="translate(21.113 13.25)">
          <path d="M8.55405417,0.715625 C8.88807598,0.715625 9.15885417,0.986403183 9.15885417,1.320425 L9.15865625,3.192625 L14.0216562,3.192625 L14.0223958,1.320425 C14.0223958,0.986403183 14.293174,0.715625 14.6271958,0.715625 L17.0652521,0.715625 C17.3992739,0.715625 17.6700521,0.986403183 17.6700521,1.320425 L17.6696562,3.192625 L21.3239937,3.19270833 C21.9920374,3.19270833 22.5335937,3.7342647 22.5335937,4.40230833 L22.5335937,20.5612333 C22.5335937,21.229277 21.9920374,21.7708333 21.3239937,21.7708333 L1.85725625,21.7708333 C1.18921262,21.7708333 0.64765625,21.229277 0.64765625,20.5612333 L0.64765625,4.40230833 C0.64765625,3.7342647 1.18921262,3.19270833 1.85725625,3.19270833 L5.51065625,3.192625 L5.51119792,1.320425 C5.51119792,0.986403183 5.7819761,0.715625 6.11599792,0.715625 L8.55405417,0.715625 Z M16.984298,7.67456504 C16.7501028,7.50910505 16.4240056,7.52942324 16.2121308,7.73742227 L16.2121308,7.73742227 L16.2042359,7.74531717 L10.6236573,13.4291981 L8.47394827,11.2394373 L8.39083555,11.1686852 C8.15664033,11.0032252 7.83054314,11.0235434 7.61866834,11.2315424 L7.61866834,11.2315424 L7.61077345,11.2394373 L6.73878126,12.1276778 L6.67035159,12.2109524 C6.51068237,12.4449335 6.53349226,12.7659486 6.73878126,12.9750628 L6.73878126,12.9750628 L9.24548827,15.5281365 C9.26544692,15.5573842 9.28825681,15.5852719 9.31391793,15.6114112 L9.31391793,15.6114112 L10.1859101,16.4996517 L10.2690228,16.5704038 C10.5032181,16.7358638 10.8293153,16.7155456 11.0411901,16.5075466 L11.0411901,16.5075466 L11.0490849,16.4996517 L17.9394029,9.48094269 L18.0078326,9.39766804 C18.1675018,9.16368695 18.1446919,8.84267192 17.9394029,8.63355766 L17.9394029,8.63355766 L17.0674107,7.74531717 Z"/>
        </g>
      </g>
      <g transform="translate(0 133)">
        <rect width="64.4" height="57.4" fill="#FFF" fill-opacity=".1" rx="2.016"/>
        <g fill="#498FF2" fill-rule="nonzero" filter="url(#深色-V)" transform="translate(22.113 16.35)">
          <path d="M15.7037107,0.371894737 C15.9558877,0.371894737 16.1981029,0.470337059 16.3787804,0.646259898 L21.2853897,5.42374788 C21.4724735,5.60590841 21.578,5.85594434 21.578,6.11706272 L21.578,21.9372147 C21.578,22.4716496 21.1447549,22.9048947 20.61032,22.9048947 L1.83968,22.9048947 C1.30524509,22.9048947 0.872,22.4716496 0.872,21.9372147 L0.872,1.33957474 C0.872,0.80513983 1.30524509,0.371894737 1.83968,0.371894737 L15.7037107,0.371894737 Z M12.4472,13.4173158 L6.3488,13.4173158 C6.01477818,13.4173158 5.744,13.688094 5.744,14.0221158 L5.744,14.0221158 L5.744,15.1844105 C5.744,15.5184323 6.01477818,15.7892105 6.3488,15.7892105 L6.3488,15.7892105 L12.4472,15.7892105 C12.7812218,15.7892105 13.052,15.5184323 13.052,15.1844105 L13.052,15.1844105 L13.052,14.0221158 C13.052,13.688094 12.7812218,13.4173158 12.4472,13.4173158 L12.4472,13.4173158 Z M16.1012,7.48757895 L6.3488,7.48757895 C6.01477818,7.48757895 5.744,7.75835713 5.744,8.09237895 L5.744,8.09237895 L5.744,9.25467368 C5.744,9.5886955 6.01477818,9.85947368 6.3488,9.85947368 L6.3488,9.85947368 L16.1012,9.85947368 C16.4352218,9.85947368 16.706,9.5886955 16.706,9.25467368 L16.706,9.25467368 L16.706,8.09237895 C16.706,7.75835713 16.4352218,7.48757895 16.1012,7.48757895 L16.1012,7.48757895 Z"/>
        </g>
      </g>
      <g fill="#FFF" fill-opacity=".4" fill-rule="nonzero" filter="url(#深色-W)" transform="translate(0 65.8)">
        <g filter="url(#深色-X)" transform="translate(21.113 13.25)">
          <path d="M6.867852,0.715625 C6.97474213,0.715625 7.07972289,0.743953607 7.17210283,0.797725783 L7.17210283,0.797725783 L11.1456055,3.11060755 C11.2379854,3.16437973 11.3429662,3.19270833 11.4498563,3.19270833 L11.4498563,3.19270833 L22.5398792,3.19270833 C23.2079228,3.19270833 23.7494792,3.7342647 23.7494792,4.40230833 L23.7494792,4.40230833 L23.7494792,20.5612333 C23.7494792,21.229277 23.2079228,21.7708333 22.5398792,21.7708333 L22.5398792,21.7708333 L1.85725625,21.7708333 C1.18921262,21.7708333 0.64765625,21.229277 0.64765625,20.5612333 L0.64765625,20.5612333 L0.64765625,1.925225 C0.64765625,1.25718137 1.18921262,0.715625 1.85725625,0.715625 L1.85725625,0.715625 Z M18.2811375,6.90833333 L6.11599792,6.90833333 C5.7819761,6.90833333 5.51119792,7.17911152 5.51119792,7.51313333 L5.51119792,7.51313333 L5.51119792,8.78061667 C5.51119792,9.11463848 5.7819761,9.38541667 6.11599792,9.38541667 L6.11599792,9.38541667 L18.2811375,9.38541667 C18.6151593,9.38541667 18.8859375,9.11463848 18.8859375,8.78061667 L18.8859375,8.78061667 L18.8859375,7.51313333 C18.8859375,7.17911152 18.6151593,6.90833333 18.2811375,6.90833333 L18.2811375,6.90833333 Z"/>
        </g>
      </g>
      <g fill="#FFF" fill-opacity=".4" fill-rule="nonzero" filter="url(#深色-Y)">
        <g filter="url(#深色-Z)" transform="translate(20.113 12.25)">
          <path d="M12.6534792,0.477083333 C19.3339155,0.477083333 24.7494792,5.892647 24.7494792,12.5730833 L24.7494792,13.1519167 C24.7494792,19.832353 19.3339155,25.2479167 12.6534792,25.2479167 L12.5277708,25.2479167 C5.8473345,25.2479167 0.431770833,19.832353 0.431770833,13.1519167 L0.431770833,12.5730833 C0.431770833,5.892647 5.8473345,0.477083333 12.5277708,0.477083333 L12.6534792,0.477083333 Z M13.2026886,6.66542488 L11.9805177,6.66542488 C11.6464959,6.66542488 11.3757177,6.93620306 11.3757177,7.27022488 L11.3757177,7.27022488 L11.3747708,11.6230833 L7.11599792,11.6239583 C6.81537828,11.6239583 6.56598599,11.8432887 6.51911373,12.1306566 L6.51119792,12.2287583 L6.51119792,13.5007962 C6.51119792,13.8348181 6.7819761,14.1055962 7.11599792,14.1055962 L7.11599792,14.1055962 L11.3747708,14.1050833 L11.3757177,18.4460415 C11.3757177,18.7466612 11.5950481,18.9960535 11.882416,19.0429257 L11.9805177,19.0508415 L13.2026886,19.0508415 C13.5367104,19.0508415 13.8074886,18.7800634 13.8074886,18.4460415 L13.8074886,18.4460415 L13.8067708,14.1050833 L18.0652521,14.1055962 C18.3658717,14.1055962 18.615264,13.8862659 18.6621363,13.5988979 L18.6700521,13.5007962 L18.6700521,12.2287583 C18.6700521,11.8947365 18.3992739,11.6239583 18.0652521,11.6239583 L18.0652521,11.6239583 L13.8067708,11.6230833 L13.8074886,7.27022488 C13.8074886,6.96960525 13.5881583,6.72021295 13.3007903,6.67334069 L13.2026886,6.66542488 Z"/>
        </g>
      </g>
    </g>
    <polygon fill="#181818" points="86 72 87 72 87 395 86 395"/>
    <use fill="#000" filter="url(#深色-aa)" xlink:href="#深色-ab"/>
    <use fill="#181818" xlink:href="#深色-ab"/>
    <g filter="url(#深色-ac)" transform="translate(614 59)">
      <mask id="深色-ae" fill="#fff">
        <use xlink:href="#深色-ad"/>
      </mask>
      <use fill="#727272" xlink:href="#深色-ad"/>
      <circle cx="12" cy="8" r="4" fill="#333" mask="url(#深色-ae)"/>
      <circle cx="12" cy="24" r="10" fill="#333" mask="url(#深色-ae)"/>
      <use stroke="#727272" xlink:href="#深色-af"/>
    </g>
    <g transform="translate(7 7)">
      <path fill="#2B2B2B" d="M2,0 L51,0 C52.1045695,-2.02906125e-16 53,0.8954305 53,2 L53,30 L53,30 L0,30 L0,2 C-1.3527075e-16,0.8954305 0.8954305,2.02906125e-16 2,0 Z"/>
      <g fill-rule="nonzero" transform="translate(15 4)">
        <rect width="22" height="22" x="1"/>
        <path fill="#717171" d="M7.29806218,6 C7.56618581,6 7.81454182,6.12997792 7.96793274,6.3434025 L8.03636631,6.45685326 L9.416,9.224375 L8.493375,11.069625 L6.78670443,7.65 L2.16945443,7.65 L6.56532943,16.33175 L11.4907925,6.45685326 C11.6104396,6.21690566 11.8375847,6.05264951 12.0970303,6.01061607 L12.2290967,6 L18.7010794,6 C19.2752281,6 19.6608832,6.56533991 19.4837646,7.08689898 L19.4370603,7.19776954 L13.6915246,18.5415195 C13.4069599,19.1033524 12.6407503,19.1411936 12.290358,18.6577983 L12.2172881,18.536994 L10.113125,14.31875 L11.03575,12.4735 L12.9604544,16.33175 L17.3563294,7.65 L12.7390794,7.65 L7.30987075,18.536994 C7.02876075,19.1005633 6.26279792,19.143108 5.90944444,18.6618729 L5.83563425,18.5415195 L0.0900985365,7.19776954 C-0.169325871,6.68557263 0.160757654,6.08608626 0.706069073,6.00843118 L0.826079426,6 L7.29806218,6 Z"/>
      </g>
      <g transform="translate(58)">
        <path fill="#FFF" d="M2,0 L85,0 C86.1045695,-2.02906125e-16 87,0.8954305 87,2 L87,29 L87,29 L0,29 L0,2 C-1.3527075e-16,0.8954305 0.8954305,2.02906125e-16 2,0 Z" opacity=".14"/>
        <g transform="translate(11 9)">
          <g fill-rule="nonzero">
            <path fill="url(#深色-ag)" d="M1.2819426,-5.17920154e-17 L10.7180574,5.17920154e-17 C11.1638168,-3.00926524e-17 11.3254599,0.0464128056 11.4884229,0.133566352 C11.6513858,0.220719898 11.7792801,0.348614185 11.8664336,0.511577148 C11.9535872,0.674540111 12,0.83618323 12,1.2819426 L12,10.7180574 C12,11.1638168 11.9535872,11.3254599 11.8664336,11.4884229 C11.7792801,11.6513858 11.6513858,11.7792801 11.4884229,11.8664336 C11.3254599,11.9535872 11.1638168,12 10.7180574,12 L1.2819426,12 C0.83618323,12 0.674540111,11.9535872 0.511577148,11.8664336 C0.348614185,11.7792801 0.220719898,11.6513858 0.133566352,11.4884229 C0.0464128056,11.3254599 2.00617683e-17,11.1638168 -3.45280103e-17,10.7180574 L3.45280103e-17,1.2819426 C-2.00617683e-17,0.83618323 0.0464128056,0.674540111 0.133566352,0.511577148 C0.220719898,0.348614185 0.348614185,0.220719898 0.511577148,0.133566352 C0.674540111,0.0464128056 0.83618323,3.00926524e-17 1.2819426,-5.17920154e-17 Z"/>
            <path fill="#FFF" d="M8.25,7.63894664 L8.25,8.61320186 L8.89823285,8.34880939 L8.25,7.63894664 Z M3.10176715,8.34880939 L3.75,8.61320186 L3.75,7.63894664 L3.10176715,8.34880939 Z M6,6.30223594 L3.64823285,8.87759432 C3.41556178,9.13238629 3,8.96289256 3,8.61320186 L3,3.38602108 C3,2.87132631 3.75,2.87132631 3.75,3.38602108 L3.75,7.63894664 L5.72676715,5.4742409 C5.87485899,5.31206941 6.12514101,5.31206941 6.27323285,5.4742409 L8.25,7.63894664 L8.25,3.38602108 C8.25,2.87132631 9,2.87132631 9,3.38602108 L9,8.61320186 C9,8.96289256 8.58443822,9.13238629 8.35176715,8.87759432 L6,6.30223594 Z M8.25,7.63894664 L8.25,8.61320186 L8.89823285,8.34880939 L8.25,7.63894664 Z M3.10176715,8.34880939 L3.75,8.61320186 L3.75,7.63894664 L3.10176715,8.34880939 Z"/>
          </g>
          <path d="M1.2819426,-5.17920154e-17 L10.7180574,5.17920154e-17 C11.1638168,-3.00926524e-17 11.3254599,0.0464128056 11.4884229,0.133566352 C11.6513858,0.220719898 11.7792801,0.348614185 11.8664336,0.511577148 C11.9535872,0.674540111 12,0.83618323 12,1.2819426 L12,10.7180574 C12,11.1638168 11.9535872,11.3254599 11.8664336,11.4884229 C11.7792801,11.6513858 11.6513858,11.7792801 11.4884229,11.8664336 C11.3254599,11.9535872 11.1638168,12 10.7180574,12 L1.2819426,12 C0.83618323,12 0.674540111,11.9535872 0.511577148,11.8664336 C0.348614185,11.7792801 0.220719898,11.6513858 0.133566352,11.4884229 C0.0464128056,11.3254599 2.00617683e-17,11.1638168 -3.45280103e-17,10.7180574 L3.45280103e-17,1.2819426 C-2.00617683e-17,0.83618323 0.0464128056,0.674540111 0.133566352,0.511577148 C0.220719898,0.348614185 0.348614185,0.220719898 0.511577148,0.133566352 C0.674540111,0.0464128056 0.83618323,3.00926524e-17 1.2819426,-5.17920154e-17 Z"/>
          <path fill="#FFF" fill-opacity=".343" d="M19,4 L57,4 C57.5522847,4 58,4.44771525 58,5 L58,8 C58,8.55228475 57.5522847,9 57,9 L19,9 C18.4477153,9 18,8.55228475 18,8 L18,5 C18,4.44771525 18.4477153,4 19,4 Z"/>
        </g>
      </g>
      <g transform="translate(149)">
        <path fill="#FFF" d="M2,0 L85,0 C86.1045695,-2.02906125e-16 87,0.8954305 87,2 L87,29 L87,29 L0,29 L0,2 C-1.3527075e-16,0.8954305 0.8954305,2.02906125e-16 2,0 Z" opacity=".14"/>
        <g transform="translate(11 9)">
          <path d="M1.2819426,-5.17920154e-17 L10.7180574,5.17920154e-17 C11.1638168,-3.00926524e-17 11.3254599,0.0464128056 11.4884229,0.133566352 C11.6513858,0.220719898 11.7792801,0.348614185 11.8664336,0.511577148 C11.9535872,0.674540111 12,0.83618323 12,1.2819426 L12,10.7180574 C12,11.1638168 11.9535872,11.3254599 11.8664336,11.4884229 C11.7792801,11.6513858 11.6513858,11.7792801 11.4884229,11.8664336 C11.3254599,11.9535872 11.1638168,12 10.7180574,12 L1.2819426,12 C0.83618323,12 0.674540111,11.9535872 0.511577148,11.8664336 C0.348614185,11.7792801 0.220719898,11.6513858 0.133566352,11.4884229 C0.0464128056,11.3254599 2.00617683e-17,11.1638168 -3.45280103e-17,10.7180574 L3.45280103e-17,1.2819426 C-2.00617683e-17,0.83618323 0.0464128056,0.674540111 0.133566352,0.511577148 C0.220719898,0.348614185 0.348614185,0.220719898 0.511577148,0.133566352 C0.674540111,0.0464128056 0.83618323,3.00926524e-17 1.2819426,-5.17920154e-17 Z"/>
          <path d="M1.2819426,-5.17920154e-17 L10.7180574,5.17920154e-17 C11.1638168,-3.00926524e-17 11.3254599,0.0464128056 11.4884229,0.133566352 C11.6513858,0.220719898 11.7792801,0.348614185 11.8664336,0.511577148 C11.9535872,0.674540111 12,0.83618323 12,1.2819426 L12,10.7180574 C12,11.1638168 11.9535872,11.3254599 11.8664336,11.4884229 C11.7792801,11.6513858 11.6513858,11.7792801 11.4884229,11.8664336 C11.3254599,11.9535872 11.1638168,12 10.7180574,12 L1.2819426,12 C0.83618323,12 0.674540111,11.9535872 0.511577148,11.8664336 C0.348614185,11.7792801 0.220719898,11.6513858 0.133566352,11.4884229 C0.0464128056,11.3254599 2.00617683e-17,11.1638168 -3.45280103e-17,10.7180574 L3.45280103e-17,1.2819426 C-2.00617683e-17,0.83618323 0.0464128056,0.674540111 0.133566352,0.511577148 C0.220719898,0.348614185 0.348614185,0.220719898 0.511577148,0.133566352 C0.674540111,0.0464128056 0.83618323,3.00926524e-17 1.2819426,-5.17920154e-17 Z"/>
          <path fill="url(#深色-ah)" d="M1.2819426,-5.17920154e-17 L10.7180574,5.17920154e-17 C11.1638168,-3.00926524e-17 11.3254599,0.0464128056 11.4884229,0.133566352 C11.6513858,0.220719898 11.7792801,0.348614185 11.8664336,0.511577148 C11.9535872,0.674540111 12,0.83618323 12,1.2819426 L12,10.7180574 C12,11.1638168 11.9535872,11.3254599 11.8664336,11.4884229 C11.7792801,11.6513858 11.6513858,11.7792801 11.4884229,11.8664336 C11.3254599,11.9535872 11.1638168,12 10.7180574,12 L1.2819426,12 C0.83618323,12 0.674540111,11.9535872 0.511577148,11.8664336 C0.348614185,11.7792801 0.220719898,11.6513858 0.133566352,11.4884229 C0.0464128056,11.3254599 2.00617683e-17,11.1638168 -3.45280103e-17,10.7180574 L3.45280103e-17,1.2819426 C-2.00617683e-17,0.83618323 0.0464128056,0.674540111 0.133566352,0.511577148 C0.220719898,0.348614185 0.348614185,0.220719898 0.511577148,0.133566352 C0.674540111,0.0464128056 0.83618323,3.00926524e-17 1.2819426,-5.17920154e-17 Z"/>
          <path fill="#FFF" fill-rule="nonzero" d="M3.77542499,6.52941176 L3.77542499,8.64705882 C3.77542499,8.84198285 3.60184019,9 3.38771249,9 C3.1735848,9 3,8.84198285 3,8.64705882 L3,6.17647059 C3,5.98154656 3.1735848,5.82352941 3.38771249,5.82352941 L7.81143753,5.82352941 C8.45382062,5.82352941 8.97457501,5.34947797 8.97457501,4.76470588 C8.97457501,4.17993379 8.45382062,3.70588235 7.81143753,3.70588235 L3.38771249,3.70588235 C3.1735848,3.70588235 3,3.54786521 3,3.35294118 C3,3.15801715 3.1735848,3 3.38771249,3 L7.81143753,3 C8.88207602,3 9.75,3.79008574 9.75,4.76470588 C9.75,5.73932603 8.88207602,6.52941176 7.81143753,6.52941176 L3.77542499,6.52941176 Z"/>
          <rect width="40" height="5" x="18" y="4" fill="#FFF" fill-opacity=".343" rx="1"/>
        </g>
      </g>
      <g transform="translate(240)">
        <path fill="#FFF" d="M2,0 L85,0 C86.1045695,-2.02906125e-16 87,0.8954305 87,2 L87,29 L87,29 L0,29 L0,2 C-1.3527075e-16,0.8954305 0.8954305,2.02906125e-16 2,0 Z" opacity=".14"/>
        <g transform="translate(11 9)">
          <path d="M1.2819426,-5.17920154e-17 L10.7180574,5.17920154e-17 C11.1638168,-3.00926524e-17 11.3254599,0.0464128056 11.4884229,0.133566352 C11.6513858,0.220719898 11.7792801,0.348614185 11.8664336,0.511577148 C11.9535872,0.674540111 12,0.83618323 12,1.2819426 L12,10.7180574 C12,11.1638168 11.9535872,11.3254599 11.8664336,11.4884229 C11.7792801,11.6513858 11.6513858,11.7792801 11.4884229,11.8664336 C11.3254599,11.9535872 11.1638168,12 10.7180574,12 L1.2819426,12 C0.83618323,12 0.674540111,11.9535872 0.511577148,11.8664336 C0.348614185,11.7792801 0.220719898,11.6513858 0.133566352,11.4884229 C0.0464128056,11.3254599 2.00617683e-17,11.1638168 -3.45280103e-17,10.7180574 L3.45280103e-17,1.2819426 C-2.00617683e-17,0.83618323 0.0464128056,0.674540111 0.133566352,0.511577148 C0.220719898,0.348614185 0.348614185,0.220719898 0.511577148,0.133566352 C0.674540111,0.0464128056 0.83618323,3.00926524e-17 1.2819426,-5.17920154e-17 Z"/>
          <path d="M1.2819426,-5.17920154e-17 L10.7180574,5.17920154e-17 C11.1638168,-3.00926524e-17 11.3254599,0.0464128056 11.4884229,0.133566352 C11.6513858,0.220719898 11.7792801,0.348614185 11.8664336,0.511577148 C11.9535872,0.674540111 12,0.83618323 12,1.2819426 L12,10.7180574 C12,11.1638168 11.9535872,11.3254599 11.8664336,11.4884229 C11.7792801,11.6513858 11.6513858,11.7792801 11.4884229,11.8664336 C11.3254599,11.9535872 11.1638168,12 10.7180574,12 L1.2819426,12 C0.83618323,12 0.674540111,11.9535872 0.511577148,11.8664336 C0.348614185,11.7792801 0.220719898,11.6513858 0.133566352,11.4884229 C0.0464128056,11.3254599 2.00617683e-17,11.1638168 -3.45280103e-17,10.7180574 L3.45280103e-17,1.2819426 C-2.00617683e-17,0.83618323 0.0464128056,0.674540111 0.133566352,0.511577148 C0.220719898,0.348614185 0.348614185,0.220719898 0.511577148,0.133566352 C0.674540111,0.0464128056 0.83618323,3.00926524e-17 1.2819426,-5.17920154e-17 Z"/>
          <path fill="url(#深色-ai)" d="M1.2819426,-5.17920154e-17 L10.7180574,5.17920154e-17 C11.1638168,-3.00926524e-17 11.3254599,0.0464128056 11.4884229,0.133566352 C11.6513858,0.220719898 11.7792801,0.348614185 11.8664336,0.511577148 C11.9535872,0.674540111 12,0.83618323 12,1.2819426 L12,10.7180574 C12,11.1638168 11.9535872,11.3254599 11.8664336,11.4884229 C11.7792801,11.6513858 11.6513858,11.7792801 11.4884229,11.8664336 C11.3254599,11.9535872 11.1638168,12 10.7180574,12 L1.2819426,12 C0.83618323,12 0.674540111,11.9535872 0.511577148,11.8664336 C0.348614185,11.7792801 0.220719898,11.6513858 0.133566352,11.4884229 C0.0464128056,11.3254599 2.00617683e-17,11.1638168 -3.45280103e-17,10.7180574 L3.45280103e-17,1.2819426 C-2.00617683e-17,0.83618323 0.0464128056,0.674540111 0.133566352,0.511577148 C0.220719898,0.348614185 0.348614185,0.220719898 0.511577148,0.133566352 C0.674540111,0.0464128056 0.83618323,3.00926524e-17 1.2819426,-5.17920154e-17 Z"/>
          <path fill="#FFF" fill-rule="nonzero" d="M8.4375,3 C8.64460678,3 8.8125,3.16789322 8.8125,3.375 C8.8125,3.58210678 8.64460678,3.75 8.4375,3.75 L4.6875,3.75 C4.16973305,3.75 3.75,4.16973305 3.75,4.6875 C3.75,5.20526695 4.16973305,5.625 4.6875,5.625 L7.3125,5.625 C8.24448052,5.625 9,6.38051948 9,7.3125 C9,8.24448052 8.24448052,9 7.3125,9 L3.5625,9 C3.35539322,9 3.1875,8.83210678 3.1875,8.625 C3.1875,8.41789322 3.35539322,8.25 3.5625,8.25 L7.3125,8.25 C7.83026695,8.25 8.25,7.83026695 8.25,7.3125 C8.25,6.79473305 7.83026695,6.375 7.3125,6.375 L4.6875,6.375 C3.75551948,6.375 3,5.61948052 3,4.6875 C3,3.75551948 3.75551948,3 4.6875,3 L8.4375,3 Z"/>
          <rect width="40" height="5" x="18" y="4" fill="#FFF" fill-opacity=".343" rx="1"/>
        </g>
      </g>
    </g>
  </g>
</svg>
