<svg xmlns="http://www.w3.org/2000/svg" viewBox="0 0 19 19">
  <path fill="#2F2F2F" d="M9.5,0 C14.7467051,0 19,4.25329488 19,9.5 C19,14.7467051 14.7467051,19 9.5,19 C4.25329488,19 0,14.7467051 0,9.5 C0,4.25329488 4.25329488,0 9.5,0 Z M9.5,1.2 C4.91603658,1.2 1.2,4.91603658 1.2,9.5 C1.2,14.0839634 4.91603658,17.8 9.5,17.8 C14.0839634,17.8 17.8,14.0839634 17.8,9.5 C17.8,4.91603658 14.0839634,1.2 9.5,1.2 Z M10.0920959,5.89115646 L10.1,6 L10.1,12.05 L12.5757359,9.57573593 C12.7840156,9.36745631 13.1073248,9.34431413 13.3411666,9.50630939 L13.4242641,9.57573593 C13.6325437,9.78401555 13.6556859,10.1073248 13.4936906,10.3411666 L13.4242641,10.4242641 L9.90860044,13.9404662 L9.8504721,13.9876611 L9.77173143,14.0364799 C9.71788581,14.0642897 9.66163421,14.0827507 9.60476295,14.0926028 L9.51921461,14.1010167 L9.48078539,14.1010167 L9.39523705,14.0926028 C9.33836579,14.0827507 9.28211419,14.0642897 9.22826857,14.0364799 L9.1495279,13.9876611 L9.09195334,13.9412658 L5.57573593,10.4242641 C5.36745631,10.2159844 5.34431413,9.89267517 5.50630939,9.6588334 L5.57573593,9.57573593 C5.78401555,9.36745631 6.10732483,9.34431413 6.3411666,9.50630939 L6.42426407,9.57573593 L8.9,12.051 L8.9,6 L8.90790411,5.89115646 C9.0063816,5.23628118 9.9936184,5.23628118 10.0920959,5.89115646 Z"/>
</svg>
