<svg xmlns="http://www.w3.org/2000/svg" viewBox="0 0 26 26">
  <g fill="none">
    <path fill="#E64248" d="M0,13 C0,20.1797017 5.82029825,26 13,26 C20.1797017,26 26,20.1797017 26,13 C26,5.82029825 20.1797017,0 13,0 C5.82029825,0 0,5.82029825 0,13 Z"/>
    <path fill="#FFF" d="M13.0023404,7.0787234 C13.5312766,7.0787234 13.9619149,7.50702128 13.9619149,8.03829787 L13.9611489,15.3607234 L16.5691489,12.7542553 C16.943617,12.3797872 17.5497872,12.3797872 17.9242553,12.7542553 C18.2987234,13.1287234 18.2987234,13.7348936 17.9242553,14.1093617 L13.7879518,18.2469808 C13.7554441,18.2939983 13.7182545,18.3387668 13.676383,18.3806383 C13.5035516,18.5534697 13.2813635,18.6465328 13.0553787,18.6598275 L12.9188766,18.6598275 C12.6928919,18.6465328 12.4707038,18.5534697 12.2978723,18.3806383 C12.2560008,18.3387668 12.2188112,18.2939983 12.1863035,18.2469808 L8.05,14.1093617 C7.67553191,13.7348936 7.67553191,13.1287234 8.05,12.7542553 C8.42446809,12.3797872 9.0306383,12.3797872 9.40510638,12.7542553 L12.0421489,15.3917234 L12.042766,8.03829787 C12.0451064,7.50702128 12.4734043,7.0787234 13.0023404,7.0787234 Z"/>
  </g>
</svg>
