<svg xmlns="http://www.w3.org/2000/svg" xmlns:xlink="http://www.w3.org/1999/xlink" viewBox="0 0 218 255">
  <defs>
    <rect id="表单-b" width="54" height="54" x="0" y="0" rx="3"/>
    <filter id="表单-a" width="107.4%" height="107.4%" x="-5.6%" y="-1.9%" filterUnits="objectBoundingBox">
      <feOffset dx="-1" dy="1" in="SourceAlpha" result="shadowOffsetOuter1"/>
      <feGaussianBlur in="shadowOffsetOuter1" result="shadowBlurOuter1" stdDeviation=".5"/>
      <feColorMatrix in="shadowBlurOuter1" values="0 0 0 0 0.372499047   0 0 0 0 0.439517686   0 0 0 0 0.529891304  0 0 0 0.414772727 0"/>
    </filter>
    <path id="表单-d" d="M29.1108814,0.695421953 C29.7863488,0.695421953 30.3419166,1.20877306 30.4087241,1.86661447 L30.4154595,2 L30.4154595,7.81689409 C30.4154595,8.11266181 30.3150211,8.39810381 30.1329886,8.62759291 L30.03526,8.73746349 L17.4839261,21.340734 C17.2740899,21.5514385 16.9997242,21.6830641 16.7071421,21.7163713 L16.5595474,21.7247427 L7.52258695,21.7247427 C6.80208839,21.7247427 6.21800891,21.1406632 6.21800891,20.4201646 C6.21800891,19.7446972 6.73136002,19.1891294 7.38920143,19.122322 L7.52258695,19.1155866 L16.017,19.115 L27.806,7.278 L27.806,3.304 L3.304,3.304 L3.304,27.84 L27.806,27.84 L27.8063034,20.9049058 C27.8063034,20.2294384 28.3196545,19.6738706 28.9774959,19.6070631 L29.1108814,19.6003278 C29.7863488,19.6003278 30.3419166,20.1136789 30.4087241,20.7715203 L30.4154595,20.9049058 L30.4154595,29.1455058 C30.4154595,29.8209732 29.9021083,30.376541 29.2442669,30.4433484 L29.1108814,30.4500838 L2,30.4500838 C1.3245326,30.4500838 0.768964775,29.9367327 0.702157342,29.2788913 L0.695421953,29.1455058 L0.695421953,2 C0.695421953,1.3245326 1.20877306,0.768964775 1.86661447,0.702157342 L2,0.695421953 L29.1108814,0.695421953 Z M13.9420795,9.07901958 C14.745225,9.07901958 15.396303,9.73009762 15.396303,10.5332431 C15.396303,11.3363886 14.745225,11.9874666 13.9420795,11.9874666 L7.81356608,11.9874666 C7.0104206,11.9874666 6.35934255,11.3363886 6.35934255,10.5332431 C6.35934255,9.73009762 7.0104206,9.07901958 7.81356608,9.07901958 L13.9420795,9.07901958 Z"/>
    <filter id="表单-c" width="123.6%" height="123.5%" x="-11.8%" y="-8.4%" filterUnits="objectBoundingBox">
      <feOffset dy="1" in="SourceAlpha" result="shadowOffsetOuter1"/>
      <feGaussianBlur in="shadowOffsetOuter1" result="shadowBlurOuter1" stdDeviation="1"/>
      <feColorMatrix in="shadowBlurOuter1" values="0 0 0 0 0.0841205067   0 0 0 0 0.294137761   0 0 0 0 0.577077672  0 0 0 0.84604458 0"/>
    </filter>
    <path id="表单-f" d="M186.799338,69.5774959 C189.201,69.5774959 191.147932,71.5244275 191.147932,73.9260894 C191.147932,76.3277512 189.201,78.2746828 186.799338,78.2746828 L107.496525,78.2746828 C105.094863,78.2746828 103.147932,76.3277512 103.147932,73.9260894 C103.147932,71.5244275 105.094863,69.5774959 107.496525,69.5774959 L186.799338,69.5774959 Z M186.799338,41.7464975 C189.201,41.7464975 191.147932,43.6934291 191.147932,46.095091 C191.147932,48.4967529 189.201,50.4436845 186.799338,50.4436845 L107.496525,50.4436845 C105.094863,50.4436845 103.147932,48.4967529 103.147932,46.095091 C103.147932,43.6934291 105.094863,41.7464975 107.496525,41.7464975 L186.799338,41.7464975 Z"/>
    <filter id="表单-e" width="104.5%" height="111%" x="-3.4%" y="-2.7%" filterUnits="objectBoundingBox">
      <feOffset dx="-1" dy="1" in="SourceAlpha" result="shadowOffsetOuter1"/>
      <feGaussianBlur in="shadowOffsetOuter1" result="shadowBlurOuter1" stdDeviation=".5"/>
      <feColorMatrix in="shadowBlurOuter1" values="0 0 0 0 0.395550272   0 0 0 0 0.395550272   0 0 0 0 0.395550272  0 0 0 0.518056163 0"/>
    </filter>
    <path id="表单-h" d="M187,194 C189.209139,194 191,195.790861 191,198 C191,200.209139 189.209139,202 187,202 L87,202 C84.790861,202 83,200.209139 83,198 C83,195.790861 84.790861,194 87,194 L187,194 Z M187.111535,156.656194 C189.494794,156.656194 191.426806,158.588207 191.426806,160.971465 C191.426806,163.354723 189.494794,165.286736 187.111535,165.286736 L87.7420772,165.286736 C85.3588189,165.286736 83.4268063,163.354723 83.4268063,160.971465 C83.4268063,158.588207 85.3588189,156.656194 87.7420772,156.656194 L187.111535,156.656194 Z M187.030651,118 C189.222862,118 191,119.777138 191,121.969349 C191,124.161559 189.222862,125.938697 187.030651,125.938697 L86.9693487,125.938697 C84.7771379,125.938697 83,124.161559 83,121.969349 C83,119.777138 84.7771379,118 86.9693487,118 L187.030651,118 Z"/>
    <filter id="表单-g" width="103.7%" height="104.8%" x="-2.8%" y="-1.2%" filterUnits="objectBoundingBox">
      <feOffset dx="-1" dy="1" in="SourceAlpha" result="shadowOffsetOuter1"/>
      <feGaussianBlur in="shadowOffsetOuter1" result="shadowBlurOuter1" stdDeviation=".5"/>
      <feColorMatrix in="shadowBlurOuter1" values="0 0 0 0 0.395550272   0 0 0 0 0.395550272   0 0 0 0 0.395550272  0 0 0 0.518056163 0"/>
    </filter>
    <path id="表单-j" d="M65.1051296,188.118735 L65.1051296,212.118735 L41.1051296,212.118735 L41.1051296,188.118735 L65.1051296,188.118735 Z M60.6046725,192.6186 L45.604995,192.6186 L45.604995,207.618278 L60.6046725,207.618278 L60.6046725,192.6186 Z M65.1051296,150.118735 L65.1051296,174.118735 L41.1051296,174.118735 L41.1051296,150.118735 L65.1051296,150.118735 Z M60.6044261,154.618157 L45.6047486,154.618157 L45.6047486,169.618697 L60.6044261,169.618697 L60.6044261,154.618157 Z M65.1051296,112.118735 L65.1051296,136.118735 L41.1051296,136.118735 L41.1051296,112.118735 L65.1051296,112.118735 Z M60.6044261,116.618694 L45.6047486,116.618694 L45.6047486,131.618372 L60.6044261,131.618372 L60.6044261,116.618694 Z"/>
    <filter id="表单-i" width="116.7%" height="104%" x="-12.5%" y="-2%" filterUnits="objectBoundingBox">
      <feOffset dx="-1" in="SourceAlpha" result="shadowOffsetOuter1"/>
      <feGaussianBlur in="shadowOffsetOuter1" result="shadowBlurOuter1" stdDeviation=".5"/>
      <feColorMatrix in="shadowBlurOuter1" values="0 0 0 0 0.395550272   0 0 0 0 0.395550272   0 0 0 0 0.395550272  0 0 0 0.518056163 0"/>
    </filter>
  </defs>
  <g fill="none" fill-rule="evenodd">
    <rect width="218" height="255" fill="#FFF" rx="4"/>
    <g fill-rule="nonzero" transform="translate(29 34)">
      <use fill="#000" filter="url(#表单-a)" xlink:href="#表单-b"/>
      <use fill="#4991F2" xlink:href="#表单-b"/>
      <g transform="translate(11.057 11.496)">
        <use fill="#000" filter="url(#表单-c)" xlink:href="#表单-d"/>
        <use fill="#FFF" xlink:href="#表单-d"/>
      </g>
    </g>
    <use fill="#000" filter="url(#表单-e)" xlink:href="#表单-f"/>
    <use fill="#DFE8F3" xlink:href="#表单-f"/>
    <use fill="#000" filter="url(#表单-g)" xlink:href="#表单-h"/>
    <use fill="#DFE8F3" xlink:href="#表单-h"/>
    <use fill="#000" filter="url(#表单-i)" xlink:href="#表单-j"/>
    <use fill="#448CEC" xlink:href="#表单-j"/>
  </g>
</svg>
