<svg xmlns="http://www.w3.org/2000/svg" xmlns:xlink="http://www.w3.org/1999/xlink" viewBox="0 0 380 240">
  <defs>
    <rect id="多种文档格式_01-b" width="341" height="222" x="0" y="0" rx="4"/>
    <filter id="多种文档格式_01-a" width="107.6%" height="111.7%" x="-3.8%" y="-5%" filterUnits="objectBoundingBox">
      <feOffset dy="2" in="SourceAlpha" result="shadowOffsetOuter1"/>
      <feGaussianBlur in="shadowOffsetOuter1" result="shadowBlurOuter1" stdDeviation="4"/>
      <feColorMatrix in="shadowBlurOuter1" values="0 0 0 0 0   0 0 0 0 0   0 0 0 0 0  0 0 0 0.0603966346 0"/>
    </filter>
  </defs>
  <g fill="none" fill-rule="evenodd" opacity=".561" transform="translate(19 9)">
    <path fill="#FBFDFF" d="M0.695715535,0 L340.304284,0 C340.701836,0 341,0.333495856 341,0.778156997 L341,224.776207 C341,226.554851 339.707957,228 338.11775,228 L2.88225007,228 C1.29204314,228 0,226.554851 0,224.776207 L0,0.666991711 C0,0.333495856 0.298163801,0 0.695715535,0 Z"/>
    <use fill="#000" filter="url(#多种文档格式_01-a)" xlink:href="#多种文档格式_01-b"/>
    <use fill="#FBFEFF" xlink:href="#多种文档格式_01-b"/>
    <path fill="#E5EAEF" d="M83.3533372,135.853081 C83.3533372,152.473934 96.5301522,165.909953 112.901347,166.208531 L113.400468,166.208531 L113.400468,189 C84.6510539,189 61.3919789,165.7109 60.8928571,136.748815 L60.8928571,135.853081 L83.3533372,135.853081 Z M127.675351,84.3981043 C150.135831,90.7677725 165.90808,111.56872 165.90808,135.454976 C165.90808,158.246445 151.533372,178.350711 130.570258,185.616114 L129.971311,185.815166 L122.983607,164.218009 C135.062354,160.137441 143.4476,148.691943 143.4476,135.454976 C143.4476,121.919431 134.563232,110.175355 122.085187,106.393365 L121.68589,106.293839 L127.675351,84.3981043 Z M113.400468,82.7061611 L113.400468,105.49763 C100.722775,105.49763 89.6422717,113.559242 85.3498244,125.303318 L85.25,125.701422 L63.9874122,118.236967 C71.2745902,97.1374408 91.0398126,82.7061611 113.400468,82.7061611 Z M164.810012,56.2322275 L164.810012,57.5260664 L124.580796,57.5260664 L109.607143,79.6208531 L108.608899,78.9241706 L123.98185,56.3317536 L164.810012,56.3317536 L164.810012,56.2322275 Z M182.87822,48.7677725 C183.477166,48.7677725 183.976288,49.2654028 183.976288,49.8625592 L183.976288,63.5971564 C183.976288,64.1943128 183.477166,64.6919431 182.87822,64.6919431 L169.202283,64.6919431 C168.603337,64.6919431 168.104215,64.1943128 168.104215,63.5971564 L168.104215,49.8625592 C168.104215,49.2654028 168.603337,48.7677725 169.202283,48.7677725 L182.87822,48.7677725 Z M337.007026,0 C339.203162,0 341,1.79146919 341,3.98104265 L341,23.2890995 L0,23.2890995 L0,3.98104265 C0,1.79146919 1.79683841,0 3.99297424,0 L337.007026,0 Z M15.0734778,6.07109005 C12.8773419,6.07109005 11.0805035,7.86255924 11.0805035,10.1516588 C11.0805035,12.4407583 12.8773419,14.2322275 15.0734778,14.2322275 C17.2696136,14.2322275 19.066452,12.4407583 19.066452,10.1516588 C19.066452,7.86255924 17.2696136,6.07109005 15.0734778,6.07109005 Z M32.1434426,6.07109005 C29.9473068,6.07109005 28.1504684,7.86255924 28.1504684,10.1516588 C28.1504684,12.4407583 29.9473068,14.2322275 32.1434426,14.2322275 C34.3395785,14.2322275 36.1364169,12.4407583 36.1364169,10.1516588 C36.1364169,7.86255924 34.3395785,6.07109005 32.1434426,6.07109005 Z M48.1153396,6.07109005 C45.9192037,6.07109005 44.1223653,7.86255924 44.1223653,10.1516588 C44.1223653,12.4407583 45.9192037,14.2322275 48.1153396,14.2322275 C50.3114754,14.2322275 52.1083138,12.4407583 52.1083138,10.1516588 C52.1083138,7.86255924 50.3114754,6.07109005 48.1153396,6.07109005 Z"/>
  </g>
</svg>
