<?xml version="1.0" encoding="utf-8"?>
<!-- Generator: Adobe Illustrator 23.0.0, SVG Export Plug-In . SVG Version: 6.00 Build 0)  -->
<svg version="1.1" id="图层_1" xmlns="http://www.w3.org/2000/svg" xmlns:xlink="http://www.w3.org/1999/xlink" x="0px" y="0px"
	 viewBox="0 0 380 240" style="enable-background:new 0 0 380 240;" xml:space="preserve">
<style type="text/css">
	.st0{display:none;}
	.st1{display:inline;opacity:0.447;}
	.st2{opacity:0.323;fill-rule:evenodd;clip-rule:evenodd;fill:#C1C5CF;fill-opacity:0.632;enable-background:new    ;}
	.st3{fill-rule:evenodd;clip-rule:evenodd;fill:#FFFFFF;}
	.st4{opacity:0.502;fill:none;stroke:#D6DDF1;stroke-width:3;enable-background:new    ;}
	.st5{display:inline;}
	.st6{opacity:0.231;fill:#D6DDF1;enable-background:new    ;}
	.st7{fill:#FBFEFF;}
	.st8{opacity:0.447;}
	.st9{opacity:0.218;fill-rule:evenodd;clip-rule:evenodd;fill:#C1C5CF;fill-opacity:0.632;enable-background:new    ;}
	.st10{fill-rule:evenodd;clip-rule:evenodd;fill:#FCFEFF;}
	.st11{opacity:0.429;fill:none;stroke:#D6DDF1;stroke-width:3;enable-background:new    ;}
</style>
<g class="st0">
	<g class="st1">
		<polygon class="st2" points="0,25.7 372.5,3.5 321.4,233.5 0,233.5 		"/>
		<rect x="29.6" class="st3" width="343" height="222"/>
		<path class="st4" d="M51.5,1.1v221.4 M148.3,1.1v221.4 M245,1.1v221.4 M341.8,1.1v221.4 M28,116.1h337.8 M28,38.6h337.8 M28,194.7
			h337.8"/>
	</g>
	<g transform="matrix(-1 0 0 1 352 28)" class="st5">
		<path class="st6" d="M238.2,0c17,0,32.6,17.2,49.9,48.5l0.9,1.6c5.4,10.1,18.8,36.8,21.1,40.6c0.7,1.2,0.4,2.8-0.8,3.5
			c-1.2,0.7-2.8,0.4-3.5-0.8l-0.2-0.3c-3-5.1-16.8-32.7-21.6-41.5l-0.3-0.6c-16.4-29.6-31.1-45.9-45.4-45.9
			c-10,0-19.8,12.5-35.1,41.4l-4.4,8.5l-4.1,7.9c-8.9,17.3-13.8,25.8-19.7,34c-8.6,11.9-16.8,18.2-25.5,18.2
			c-8.2,0-15.7-2.4-23.3-7.1l-0.9-0.6c-5.2-3.3-9.9-7.2-17.1-13.9l-4.9-4.6c-0.9-0.9-1.8-1.6-2.6-2.3l-1.2-1
			c-10.5-9.3-17.9-13.4-26.3-13.4c-2.4,0-5,0.7-7.7,2.2c-11.4,6.3-23.8,24.5-38,53.3l-1,1.9C20.9,141.2,6.9,172,4.8,176.2
			c-0.6,1.3-2.2,1.8-3.4,1.1s-1.8-2.2-1.1-3.4l0.5-1c3.3-7,16.7-36.4,21.6-46.3l0.9-1.9C37.9,95.5,50.5,77.1,63,70.1
			c3.4-1.9,6.8-2.9,10.2-2.9c10.1,0,18.5,4.7,30.2,15.2l1.3,1.2c0.6,0.5,1.2,1.1,1.9,1.7l4.3,4c16.2,15,25.5,20.7,38.5,20.7
			c6.5,0,13.4-5.2,20.9-15.6l0.4-0.6c6-8.3,11-17.1,20.6-35.8l6.3-12.1l1.3-2.6c6.9-13.1,12-21.7,17.2-28.5l0.3-0.4
			C223.9,5,230.9,0,238.2,0z"/>
		<ellipse class="st7" cx="203.9" cy="38.3" rx="11.5" ry="-11.5"/>
		<ellipse class="st7" cx="107.1" cy="89.4" rx="11.5" ry="-11.5"/>
	</g>
</g>
<g transform="translate(20)">
	<g class="st8">
		<polygon class="st9" points="0,12 342.5,8.5 350,235 -10,235 		"/>
		<rect x="-0.4" y="5" class="st10" width="343" height="222"/>
		<path class="st11" d="M21.5,6.1v221.4 M118.3,6.1v221.4 M215,6.1v221.4 M311.8,6.1v221.4 M-2,121.1h337.8 M-2,43.6h337.8
			 M-2,199.7h337.8"/>
	</g>
	<g transform="matrix(-1 0 0 1 332 28)">
		<path class="st6" d="M248.2,5c17,0,32.6,17.2,49.9,48.5l0.9,1.6c5.4,10.1,18.8,36.8,21.1,40.6c0.7,1.2,0.4,2.8-0.8,3.5
			c-1.2,0.7-2.8,0.4-3.5-0.8l-0.2-0.3c-3-5.1-16.8-32.7-21.6-41.5l-0.3-0.6c-16.4-29.6-31.1-45.9-45.4-45.9
			c-10,0-19.8,12.5-35.1,41.4l-4.4,8.5l-4.1,7.9c-8.9,17.3-13.8,25.8-19.7,34c-8.6,11.9-16.8,18.2-25.5,18.2
			c-8.2,0-15.7-2.4-23.3-7.1l-0.9-0.6c-5.2-3.3-9.9-7.2-17.1-13.9l-4.9-4.6c-0.9-0.9-1.8-1.6-2.6-2.3l-1.2-1
			c-10.5-9.3-17.9-13.4-26.3-13.4c-2.4,0-5,0.7-7.7,2.2c-11.4,6.3-23.8,24.5-38,53.3l-1,1.9c-5.6,11.4-19.6,42.2-21.7,46.4
			c-0.6,1.3-2.2,1.8-3.4,1.1s-1.8-2.2-1.1-3.4l0.5-1c3.3-7,16.7-36.4,21.6-46.3l0.9-1.9C47.9,100.5,60.5,82.1,73,75.1
			c3.4-1.9,6.8-2.9,10.2-2.9c10.1,0,18.5,4.7,30.2,15.2l1.3,1.2c0.6,0.5,1.2,1.1,1.9,1.7l4.3,4c16.2,15,25.5,20.7,38.5,20.7
			c6.5,0,13.4-5.2,20.9-15.6l0.4-0.6c6-8.3,11-17.1,20.6-35.8l6.3-12.1l1.3-2.6c6.9-13.1,12-21.7,17.2-28.5l0.3-0.4
			C233.9,10,240.9,5,248.2,5z"/>
		<ellipse class="st7" cx="213.9" cy="43.3" rx="11.5" ry="-11.5"/>
		<ellipse class="st7" cx="117.1" cy="94.4" rx="11.5" ry="-11.5"/>
	</g>
</g>
</svg>
