<svg xmlns="http://www.w3.org/2000/svg" viewBox="0 0 66 66">
  <path fill="#FFF" d="M10.4757694,49.6002081 C10.5666201,49.4177557 10.7483214,49.3265294 10.9300228,49.2353032 C11.6568282,49.0528507 12.3836337,48.8703982 13.1104391,48.8703982 C15.1091541,48.8703982 16.9261676,49.6002081 18.3797785,50.8773756 C18.5614799,51.0598281 18.5614799,51.3335068 18.4706292,51.5159593 L14.7457513,57.9017964 C14.0189459,59.1789638 12.6561857,59.9087738 11.2934255,59.9087738 C10.4757694,59.9087738 9.65811327,59.635095 8.93130783,59.0877376 C7.2959956,57.9017964 6.93259288,55.529914 7.93195035,53.7966154 L10.4757694,49.6002081 Z M58.8991817,39.839 C60.9887473,39.839 62.8057609,41.3898462 62.9874623,43.3968235 C63.1691636,45.7687059 61.35215,47.7756833 59.080883,47.7756833 L54.265797,47.7756833 L57.8089735,53.8878416 C58.808331,55.6211403 58.4449283,57.9930226 56.809616,59.1789638 C56.0828106,59.7263213 55.2651545,60 54.4474984,60 C53.0847382,60 51.721978,59.27019 50.9951725,57.9930226 L42.4552086,43.1231448 L35.7322583,31.4461855 C35.6414077,31.3549593 35.6414077,31.263733 35.6414077,31.0812805 C35.6414077,30.6251493 35.550557,30.1690181 35.550557,29.7128869 C35.550557,26.5199683 36.2773624,23.3270498 37.7309733,20.7727149 C37.9126747,20.4990362 38.3669281,20.4990362 38.5486294,20.7727149 L49.6324123,39.7477738 L58.8991817,39.7477738 L58.8991817,39.839 Z M38.0035253,40.0214525 C40.0022403,41.2073937 41.2741498,43.4880498 41.2741498,46.0423846 C41.2741498,46.5897421 41.1832991,47.0458733 41.0924485,47.5932308 C41.0924485,47.684457 40.9107471,47.7756833 40.8198964,47.7756833 L28.1008013,47.7756833 L6.93259288,47.7756833 C4.66132589,47.7756833 2.75346161,45.7687059 3.02601365,43.3968235 C3.20771501,41.2986199 5.0247286,39.839 7.11429424,39.839 L16.1085115,39.839 L28.3733533,18.6745113 L25.0118781,12.9272579 C23.8308193,10.9202805 24.6484754,8.27471945 26.8288917,7.362457 C28.736756,6.5414208 30.9171723,7.362457 32.0073805,9.09575565 L33.006738,10.8290543 L34.0969461,9.0045294 C35.2780049,6.99755203 37.9126747,6.35896832 39.8205389,7.72736198 C41.5467018,8.91330316 41.9101046,11.2851855 40.8198964,13.1097104 L25.1935795,39.839 L31.5531271,39.839 L37.3675706,39.839 C37.6401226,39.839 37.821824,39.9302262 38.0035253,40.0214525 Z"/>
</svg>
