<svg xmlns="http://www.w3.org/2000/svg" viewBox="0 0 30 30">
  <path fill="#FFF" fill-rule="evenodd" d="M5.17991164,22.0539873 C5.21901798,21.9745888 5.29723065,21.9348896 5.37544333,21.8951904 C5.68829403,21.8157919 6.00114473,21.7363934 6.31399543,21.7363934 C7.17433486,21.7363934 7.95646162,22.0539873 8.58216302,22.6097765 C8.6603757,22.6891749 8.6603757,22.8082726 8.62126936,22.887671 L7.01790951,25.666617 C6.70505881,26.2224062 6.11846374,26.54 5.53186868,26.54 C5.17991164,26.54 4.8279546,26.4209023 4.5151039,26.182707 C3.81118982,25.666617 3.65476447,24.6344371 4.08493418,23.8801517 L5.17991164,22.0539873 Z M25.7146236,18.0385332 C26.6141684,18.0385332 27.3963813,18.6924922 27.4746026,19.5387921 C27.5528239,20.5389646 26.770611,21.3852645 25.7928449,21.3852645 L23.7199809,21.3852645 L25.2452959,23.9626322 C25.675513,24.6935276 25.5190704,25.6937001 24.8150789,26.1937864 C24.5021937,26.4245955 24.1501979,26.54 23.7982021,26.54 C23.2115425,26.54 22.6248829,26.2322546 22.3119977,25.6937001 L18.6355973,19.4233875 L15.7414097,14.4994611 C15.702299,14.4609929 15.702299,14.4225247 15.702299,14.3455884 C15.702299,14.1532475 15.6631884,13.9609066 15.6631884,13.7685657 C15.6631884,12.4221796 15.9760735,11.0757935 16.6018438,9.99868454 C16.6800651,9.88328002 16.8756183,9.88328002 16.9538396,9.99868454 L21.7253381,18.000065 L25.7146236,18.000065 L25.7146236,18.0385332 Z M16.7963241,18.0642591 C17.6412,18.5693667 18.1788483,19.5407273 18.1788483,20.6286512 C18.1788483,20.8617777 18.1404448,21.0560498 18.1020414,21.2891764 C18.1020414,21.3280308 18.0252345,21.3668852 17.986831,21.3668852 L12.6103482,21.3668852 L3.66234453,21.3668852 C2.7022583,21.3668852 1.89578587,20.5120879 2.01099622,19.5018729 C2.08780312,18.6082211 2.8558721,17.9865503 3.73915143,17.9865503 L7.54109288,17.9865503 L12.7255585,8.97232375 L11.3046309,6.52449499 C10.8053861,5.66969764 11.1510171,4.54291932 12.0726999,4.15437508 C12.8791723,3.80468525 13.8008551,4.15437508 14.2616965,4.89260915 L14.6841344,5.63084322 L15.1449758,4.85375472 C15.6442206,3.99895738 16.7579207,3.7269764 17.5643931,4.30979277 C18.2940586,4.8149003 18.4476724,5.82511534 17.986831,6.60220384 L11.3814378,17.9865503 L14.0696792,17.9865503 L16.5275,17.9865503 C16.6427103,17.9865503 16.7195172,18.0254047 16.7963241,18.0642591 Z" opacity=".8"/>
</svg>
