<svg xmlns="http://www.w3.org/2000/svg" viewBox="0 0 30 30">
  <path fill="#FFF" fill-rule="evenodd" d="M24.2313312,23.1321597 C23.8117461,22.3522047 23.4119022,21.2788032 23.3167338,20.4278398 C23.1152143,18.6264671 23.5164561,17.7097563 22.5661421,15.9445276 C21.99556,14.8846624 21.2205771,13.959079 20.5759942,12.9479557 C18.9496883,10.3968855 19.5529346,7.78183093 18.3478114,5.16097512 C17.9291107,4.2503783 17.2274724,3.50341079 16.2546786,3.1911103 C15.1129153,2.82457951 13.7431303,2.99474944 12.722353,3.620232 C9.92792425,5.33253849 11.9634882,10.4637136 10.3764079,13.0773463 C9.37802472,14.7215165 8.30310181,16.1768334 7.72601541,18.0645424 C7.27065661,19.5539843 7.3863934,21.3761163 5.61111599,22.0239508 C5.1323645,22.1986422 4.42045629,22.1737594 4.15717435,22.695758 C3.99199909,23.023301 4.10576747,23.3978511 4.18430417,23.732276 C4.25151538,24.0185278 4.27057187,24.297073 4.23765093,24.5893819 C4.19055173,25.0076974 4.02606114,25.4103437 4.00161292,25.8304223 C3.97656562,26.2610228 4.24595248,26.5285911 4.62077764,26.6987326 C5.97293253,27.3125558 7.86100838,27.6735413 9.31840187,27.9432708 C11.2020274,28.2918576 11.0188797,27.7334875 12.6225061,27.2883839 C13.7548267,26.9740928 15.1462357,26.8915388 16.3084533,27.0942412 C17.5372259,27.3085461 18.3900038,28.3467988 19.5061207,28.48 C20.4538102,28.48 25.5006132,25.8838564 25.5580965,24.7524993 C25.6097601,23.7343804 24.5956867,23.8094269 24.2313312,23.1321597 Z M16.4014913,6.46882574 C17.3267658,7.13087188 16.3534391,9.1234467 16.0037703,8.78577445 C17.1224363,7.91763015 15.063634,6.57499994 15.2129776,8.47448617 C13.7819182,8.16349044 15.1257149,5.55599891 16.4014913,6.46882574 L16.4014913,6.46882574 Z M16.0579497,9.75458168 C16.1081674,10.5673734 14.3139612,11.1397656 13.7513451,11.372 C11.6026948,11.3533777 12.2919774,9.01868572 13.9573267,8.82624574 C14.2788332,8.78911574 16.0247417,9.21719943 16.0579497,9.75458168 Z M12.3911952,6.46803429 C13.6272771,5.64622791 14.4426701,7.6882478 13.3650947,8.33677359 C13.855475,5.85327325 11.0356131,7.9988158 13.0007254,8.65885038 C12.2131857,9.48494434 11.6378151,6.9689204 12.3911952,6.46803429 L12.3911952,6.46803429 Z" opacity=".8"/>
</svg>
