<svg xmlns="http://www.w3.org/2000/svg" viewBox="0 0 64 64">
  <defs>
    <linearGradient id="linux-a" x1="73.118%" x2="26.511%" y1="16.067%" y2="100%">
      <stop offset="0%" stop-color="#F8FCFF"/>
      <stop offset="100%" stop-color="#B8DBF8"/>
    </linearGradient>
  </defs>
  <path fill="#D3E2F8" stroke="url(#linux-a)" d="M35.5567387,1.46502506 C37.9029947,2.22493992 39.5952576,4.04252177 40.605111,6.25825971 C41.8507989,8.99137913 42.2953842,11.7219058 42.7054902,14.4386953 L42.8695109,15.524652 C43.3669594,18.7801657 43.9619496,22.0137581 45.9792068,25.2061716 C47.5338594,27.6665189 49.4030204,29.9187233 50.7791925,32.4976731 C53.07123,36.7929705 52.1034854,39.0235857 52.589525,43.4068316 C52.8190591,45.4774647 53.7834322,48.0893521 54.7954185,49.9872017 C55.674198,51.6351832 58.120015,51.4525739 57.9954089,53.9299434 C57.8567665,56.682853 45.6845143,63 43.3988069,63 C40.7068738,62.6758841 38.6500811,60.1495235 35.6864364,59.6280594 C32.8833142,59.1348275 29.5274113,59.3357046 26.7963969,60.1004632 C22.9286524,61.1835253 23.3703815,62.5421966 18.8273144,61.6939871 C15.3122651,61.0376593 10.7584644,60.1592802 7.49723736,58.6656759 C6.59320635,58.2516738 5.94347922,57.6006049 6.00389015,56.552833 C6.06285617,55.5306638 6.45958673,54.5509119 6.57318405,53.5330329 C6.65258521,52.8217631 6.60662336,52.1439843 6.4445184,51.4474534 C6.25509779,50.6337037 5.98070281,49.7223179 6.37908469,48.9253138 C7.01408752,47.6551446 8.7311203,47.7156915 9.88580851,47.290618 C12.9574952,46.1597488 13.6819198,43.5583198 14.2515355,40.8401804 L14.4046942,40.0969931 C14.5742663,39.2702747 14.7479252,38.444141 14.9866791,37.6562648 C16.1614553,33.7793433 18.1916148,30.6519524 20.2441859,27.3651534 C21.0630444,25.7032271 21.8771596,24.0527412 22.5526864,22.4202142 C22.9892472,20.4446273 23.0563072,18.2109409 23.0824151,15.9523771 L23.0981448,14.3723738 C23.1516646,9.50633264 23.3699656,4.77627735 27.0372149,2.50919874 C29.4992012,0.987223911 32.8029498,0.573152651 35.5567387,1.46502506 Z M22.5166297,55.1454561 C22.7394802,55.0537733 22.9274437,54.9470797 23.0833029,54.8266337 C21.9189401,52.2055998 19.854847,49.4860987 18.8588959,48.2615819 C18.6659926,48.023938 18.4703433,47.7885621 18.2719879,47.5555018 C17.6053347,46.5964397 17.0638381,46.0250158 16.484017,45.8209557 C15.00966,44.8751793 14.1931492,46.145556 11.5936214,48.4076555 C10.6536053,49.2256953 10.0842426,49.5390166 9.69810803,49.7520724 C9.07273793,49.9219495 9.08195782,49.6153403 8.19402722,51.5713149 C8.13798229,51.6947613 7.99477657,52.7135839 7.87110056,53.7918712 L7.82584589,54.1973837 C7.79656426,54.4674067 7.76933675,54.7346158 7.7458304,54.9859497 C7.65232419,55.5659539 7.60278447,56.0330296 7.66009917,56.1309425 C7.66133767,56.1331568 7.66292019,56.1353019 7.66422748,56.1375162 C7.65947993,56.318188 7.66464031,56.4403196 7.68363054,56.4754022 C9.01487279,58.9358878 18.8599968,60.1495235 21.5099588,60.8996125 C24.4783372,60.2205622 24.5168994,58.3287951 23.6594207,56.3105712 L23.6291548,56.2432215 C23.2292682,55.9103833 22.8566494,55.5442746 22.5166297,55.1454561 Z M44.0991746,46.2076251 C43.8002162,48.3640618 37.6173157,65.179479 48.6255221,58.5550308 C51.2680531,56.9648284 55.8297665,55.3911638 55.614888,52.6770734 C55.6718586,53.39637 50.4836055,47.1023346 51.7075805,46.7233459 C51.1422549,46.8983747 50.4856366,47.3302765 49.7985424,47.8132051 L49.5684657,47.9757889 L49.4527372,48.0579687 L49.4527372,48.0579687 L49.2202128,48.2230454 L48.8696962,48.4692765 C48.7916773,48.5234571 48.7136158,48.5771381 48.6355952,48.6300373 L48.4017394,48.7861067 C46.4553536,50.0624323 44.5866592,50.6736041 44.0991746,46.2076251 Z M30.0624366,11.9418086 L29.9730189,11.9476053 C25.0129696,12.4985001 22.9600216,19.1819844 29.3595267,19.2352941 C31.0352135,18.5704805 36.3790479,16.9319029 36.2294804,14.6051373 C36.1305742,13.066782 30.9305888,11.8413139 29.9730189,11.9476053 Z"/>
</svg>
