<svg xmlns="http://www.w3.org/2000/svg" viewBox="0 0 278 26">
  <g fill="#FFF" fill-rule="evenodd">
    <path d="M88.5263516,22.1202346 C89.3403243,22.1202346 90,22.7907587 90,23.6181173 C90,24.4454759 89.3403243,25.116 88.5263516,25.116 C87.7123789,25.116 87.0515851,24.4454759 87.0515851,23.6181173 C87.0515851,22.7907587 87.7123789,22.1202346 88.5263516,22.1202346 Z M75.6796709,2.116 C81.8962756,2.116 86.935527,7.23925884 86.935527,13.5569598 C86.935527,19.8757972 81.8962756,24.9979196 75.6796709,24.9979196 C69.4630662,24.9979196 64.4238149,19.8757972 64.4238149,13.5569598 C64.4238149,7.23925884 69.4630662,2.116 75.6796709,2.116 Z M75.6796709,3.90368548 C70.4346902,3.90368548 66.1825774,8.22572482 66.1825774,13.5569598 C66.1825774,18.8881947 70.4346902,23.2102341 75.6796709,23.2102341 C80.9246516,23.2102341 85.1767645,18.8881947 85.1767645,13.5569598 C85.1767645,8.22572482 80.9246516,3.90368548 75.6796709,3.90368548 Z M18.7985206,5.26700875 C19.2278689,4.90219817 19.8663008,4.96015873 20.2229729,5.39770413 C20.3828604,5.59545192 20.4488279,5.82843064 20.4477098,6.06709176 L20.4477098,6.06709176 L20.4577727,6.06027287 L20.4577727,21.2936716 L20.4443555,21.2902622 C20.4443555,21.5243774 20.3817423,21.759629 20.2229729,21.9539674 C19.8640646,22.3881033 19.2245146,22.4472004 18.7918121,22.0823898 L18.7918121,22.0823898 L10.2283273,15.0043827 L1.66596061,22.0823898 C1.23549428,22.4506098 0.59370811,22.3915128 0.234799818,21.9539674 C0.0771485115,21.759629 0.0122990381,21.5243774 0.0134171324,21.2902622 L0.0134171324,21.2902622 L-2.39808173e-13,21.2982175 L-2.39808173e-13,6.06027287 C0.00559047185,5.82502119 0.0704399453,5.58976951 0.229209346,5.39770413 C0.586999544,4.96015873 1.22543143,4.90219817 1.65366157,5.26700875 L1.65366157,5.26700875 L1.74869959,5.34201653 C1.75093578,5.34542598 1.75429007,5.35224487 1.75764435,5.35565431 L1.75764435,5.35565431 L8.97158922,11.3267284 L7.37830475,12.6507294 L2.025987,8.22527023 L2.025987,19.1286742 L4.48020414,17.1023276 C4.48467652,17.0966452 4.49026699,17.0966452 4.49585746,17.0898263 L4.49585746,17.0898263 L6.87963466,15.1168944 L8.62274378,13.6758358 L8.6193895,13.6758358 L10.2115559,12.3575172 L15.99434,17.143241 C16.0290009,17.1761989 16.0703704,17.1864273 16.1072675,17.2057475 L16.1072675,17.2057475 L18.4329038,19.1286742 L18.4329038,8.22299727 L13.0626965,12.6598212 L11.457113,11.3335473 Z M59.5520541,5.02721114 C60.1099832,5.02721114 60.5639295,5.48634969 60.5639295,6.05572695 C60.5639295,6.62510421 60.1099832,7.08424275 59.5520541,7.08424275 L59.5520541,7.08424275 L47.70249,7.08424275 C46.1919445,7.08424275 44.9687493,8.33323598 44.9687493,9.86521311 C44.9687493,11.4005997 46.1919445,12.642774 47.70249,12.642774 L47.70249,12.642774 L47.70249,12.6473199 L56.4079728,12.6473199 C59.0377307,12.642774 61.1677005,14.8111808 61.1677005,17.4841854 C61.1677005,20.1526441 59.0388488,22.318778 56.4135632,22.3221874 L56.4135632,22.3221874 L44.5617629,22.3221874 C44.0015976,22.3221874 43.5476513,21.8630489 43.5476513,21.2936716 C43.5476513,20.7242943 44.0015976,20.2651558 44.5617629,20.2651558 L44.5617629,20.2651558 L56.4079728,20.2651558 C57.9185183,20.2651558 59.1417135,19.0207085 59.1417135,17.4841854 C59.1417135,15.9487989 57.9185183,14.705488 56.4079728,14.705488 L56.4079728,14.705488 L56.4079728,14.7020786 L47.70249,14.7020786 C45.0760863,14.7020786 42.9438804,12.5348083 42.9438804,9.86521311 C42.9438804,7.19334498 45.0760863,5.02721114 47.70249,5.02721114 L47.70249,5.02721114 Z M36.7607067,5.02732479 C39.3904646,5.02732479 41.5204344,7.19345863 41.5204344,9.86532676 C41.5204344,12.5349219 39.3915827,14.6999193 36.7651791,14.7021922 C36.7651791,14.7021922 36.764061,14.7056017 36.7607067,14.7056017 L36.7607067,14.7056017 L26.6374803,14.7056017 C26.1343378,14.7056017 25.7284695,15.119281 25.7284695,15.6295612 L25.7284695,15.6295612 L25.7284695,18.4537178 L25.7251153,18.4525814 L25.7251153,21.2937852 C25.7251153,21.8631625 25.2711689,22.322301 24.7110037,22.322301 C24.1530746,22.322301 23.7002464,21.8631625 23.7002464,21.2937852 L23.7002464,21.2937852 L23.7002464,15.6295612 C23.7024825,13.9827994 25.0151253,12.6428877 26.6374803,12.6428877 C26.6453069,12.6428877 26.6520155,12.6474336 26.6598421,12.6474336 L26.6598421,12.6474336 L36.7607067,12.6474336 C38.269016,12.6428877 39.4944474,11.4007133 39.4944474,9.86532676 C39.4944474,8.33334963 38.2723703,7.09003881 36.7618248,7.0843564 C36.7618248,7.0843564 36.7618248,7.09003881 36.7607067,7.09003881 L36.7607067,7.09003881 L24.7110037,7.09003881 C24.1530746,7.09003881 23.7002464,6.62521785 23.7002464,6.06038652 C23.7002464,5.48987278 24.1530746,5.03073424 24.7110037,5.03073424 L24.7110037,5.03073424 L36.7607067,5.03073424 Z M73.3986466,9.08297286 L73.4444885,9.08865527 L73.4444885,9.08865527 C73.4713227,9.08979175 73.4970389,9.09092823 73.5227551,9.09547415 C73.5439989,9.0988836 73.5641246,9.10456601 73.5853684,9.11024842 C73.6110845,9.1170673 73.6379188,9.12615916 73.663635,9.13525101 C73.6804064,9.1420699 73.6982959,9.15002527 73.7150673,9.15911712 C73.7430197,9.17161842 73.7687358,9.1852562 73.794452,9.20116694 L73.830231,9.22730601 L73.830231,9.22730601 C73.8581834,9.24776268 73.8838996,9.26935583 73.9096157,9.29435843 C73.9185605,9.3023138 73.9263872,9.31140565 73.9342138,9.3204975 C73.9588119,9.3455001 73.9822919,9.37391214 74.0024176,9.40346066 C74.0102442,9.41368899 74.0158347,9.42619029 74.0236614,9.4375551 C74.0359604,9.45687529 74.0493775,9.47505899 74.0605585,9.49665214 L74.0605585,9.49778862 L75.4715936,12.3514938 L74.6442037,14.0255311 L73.0811078,10.86043 C73.0811078,10.86043 72.9424641,10.5854015 72.6405786,10.5854015 L70.1617634,10.5854015 C69.8643503,10.5854015 69.9940493,10.86043 69.9940493,10.86043 L73.1727915,17.296325 C73.1727915,17.296325 73.3091991,17.5724901 73.4456066,17.296325 C73.5014096,17.1838134 73.7263684,16.7283778 73.9727438,16.2294218 L74.1385456,15.8936227 C74.3595217,15.4460556 74.5714791,15.0166722 74.670656,14.8157532 L74.7291789,14.6971917 L74.7291789,14.6971917 L76.0843093,11.9548617 L77.2974417,9.49778862 L77.2985598,9.49778862 C77.3075045,9.47733196 77.3220398,9.46028473 77.3332207,9.44096455 C77.3421655,9.42732677 77.3499921,9.41368899 77.3589369,9.40118769 C77.3768264,9.37391214 77.3980702,9.34890954 77.4204321,9.32504343 C77.4304949,9.31367861 77.4405578,9.3023138 77.4528568,9.29094898 C77.4752187,9.26935583 77.4986987,9.25003565 77.5232967,9.23185194 C77.537832,9.22048713 77.5523672,9.21025879 77.5680205,9.20003046 C77.5915005,9.1852562 77.6149805,9.1727549 77.6384605,9.16139008 C77.6585862,9.15116175 77.6787119,9.1420699 77.6999556,9.13297805 C77.7223175,9.12615916 77.7446794,9.11820379 77.7681594,9.1113849 C77.7916394,9.10456601 77.8140013,9.0988836 77.8385994,9.09547415 C77.8631974,9.09092823 77.8855593,9.08979175 77.9101574,9.08865527 C77.9269288,9.08751878 77.9425821,9.08297286 77.9604716,9.08297286 L82.7000737,9.08297286 C82.7079003,9.08297286 82.7168451,9.08524582 82.7257898,9.0863823 C82.7481517,9.0863823 82.7693955,9.08979175 82.7917574,9.09320119 C82.8197098,9.09661064 82.846544,9.0988836 82.8733783,9.10683897 C82.8901497,9.11024842 82.9069211,9.1170673 82.9248106,9.12274971 C82.9561173,9.13184156 82.9863058,9.14320638 83.0142582,9.15798064 L83.0220848,9.1609639 C83.0399744,9.16934546 83.047801,9.17616435 83.0578639,9.18184675 C83.0858162,9.19662101 83.1126505,9.21366824 83.1383667,9.23298842 C83.15402,9.24435324 83.1674371,9.25685454 83.1819723,9.26935583 C83.2032161,9.28867602 83.2244599,9.30913269 83.2434675,9.32958935 C83.2568847,9.34436361 83.2691837,9.36141084 83.2814827,9.3761851 C83.2971361,9.39891473 83.3139075,9.42164436 83.3284427,9.44551047 C83.3385056,9.4625577 83.3474503,9.4807414 83.3563951,9.49892511 C83.3686941,9.52279122 83.379875,9.54893029 83.3899379,9.57506937 C83.3966465,9.59552604 83.4022369,9.61598271 83.4089455,9.63530289 C83.4156541,9.66144197 83.4223626,9.68644456 83.4257169,9.71144716 C83.4301893,9.73758623 83.4313074,9.76372531 83.4335436,9.7887279 C83.4346617,9.80463864 83.438016,9.81827642 83.438016,9.83305068 C83.438016,9.84214253 83.4346617,9.84896142 83.4346617,9.85691679 C83.4346617,9.88419235 83.4313074,9.91146791 83.426835,9.93987995 C83.4245988,9.9614731 83.4223626,9.98306625 83.4167722,10.0057959 C83.4111817,10.0307985 83.4022369,10.0546646 83.3944103,10.0796672 C83.3865836,10.1023968 83.378757,10.1251264 83.3686941,10.1467196 C83.3653398,10.1558114 83.3631036,10.1626303 83.3597493,10.1717222 L78.7364291,19.5295113 C78.6715797,19.6943011 78.5530617,19.8374978 78.3853475,19.9215974 C78.356277,19.9363717 78.3260885,19.9454635 78.297018,19.9568283 C78.2880733,19.9602378 78.2802466,19.9636472 78.27242,19.9659202 C78.2411133,19.9761485 78.2098067,19.9829674 78.1773819,19.9886498 C78.1583743,19.9920593 78.1416029,19.9954687 78.1237134,19.9977417 C78.1013515,19.9988782 78.0778715,19.9988782 78.0555097,19.9988782 C78.0264392,20.0000146 77.9984868,19.9988782 77.9716526,19.9966052 C77.9582354,19.9954687 77.9448183,19.9931958 77.9325193,19.9909228 C77.8956222,19.9852404 77.858725,19.9761485 77.822946,19.9647837 C77.8207098,19.9636472 77.8184737,19.9625108 77.8151194,19.9625108 C77.7815765,19.9511459 77.7480337,19.9397811 77.7144909,19.9227339 C77.5456586,19.8374978 77.4249044,19.6920281 77.3611731,19.5261018 L75.8897609,16.5462472 L76.7137964,14.867664 L77.9135117,17.2951886 C77.9135117,17.2951886 78.0499192,17.5713536 78.1852086,17.2951886 C78.3227342,17.0190235 81.365069,10.86043 81.365069,10.86043 C81.365069,10.86043 81.4992403,10.5854015 81.1973548,10.5854015 L78.7185396,10.5854015 C78.4233627,10.5854015 78.2780104,10.86043 78.2780104,10.86043 L77.0581695,13.3300044 L77.0559333,13.3277315 L75.6829134,16.1268855 L75.6795591,16.1212031 L73.995709,19.5295113 C73.9308595,19.6943011 73.8112234,19.8374978 73.6446274,19.9215974 C73.6155569,19.9363717 73.5864865,19.9454635 73.5585341,19.9556919 C73.5484713,19.9591013 73.5406446,19.9636472 73.5316998,19.9659202 C73.5003932,19.9761485 73.4690866,19.9818309 73.4377799,19.9875133 C73.4198904,19.9909228 73.4020009,19.9954687 73.3829933,19.9977417 C73.3606314,19.9988782 73.3371514,19.9988782 73.3147895,19.9988782 C73.2868372,20.0000146 73.2588848,19.9988782 73.2309325,19.9966052 C73.2175153,19.9954687 73.2040982,19.9931958 73.1917992,19.9897863 C73.154902,19.9841039 73.119123,19.9761485 73.083344,19.9647837 C73.0799897,19.9636472 73.0766354,19.9625108 73.0732811,19.9613743 C73.0408564,19.9500095 73.0061955,19.9397811 72.9737707,19.9227339 C72.8071747,19.8374978 72.6875386,19.6931646 72.6226891,19.5295113 L67.9993689,10.1705857 L67.9915422,10.1489926 L67.9915422,10.1489926 C67.9803613,10.1251264 67.9714165,10.1001238 67.9635899,10.0751213 C67.9557632,10.0523916 67.9479366,10.029662 67.9423461,10.0057959 C67.9367556,9.98306625 67.9345194,9.9614731 67.9322832,9.93874347 C67.9278109,9.91146791 67.9244566,9.88419235 67.9233385,9.85578031 C67.9233385,9.84896142 67.9211023,9.84214253 67.9211023,9.83305068 C67.9211023,9.8194129 67.9244566,9.80463864 67.9255747,9.78986438 C67.9266928,9.76372531 67.928929,9.73758623 67.9334013,9.71031067 C67.9367556,9.68644456 67.9434642,9.66257845 67.9490547,9.63984882 C67.9557632,9.61711919 67.9624718,9.59438956 67.9702984,9.57165993 C67.9792432,9.54779381 67.988188,9.52506418 67.9993689,9.50233455 C68.0105498,9.48301436 68.0206127,9.46142121 68.0329117,9.44210103 C68.0452108,9.42050788 68.059746,9.40118769 68.0742812,9.38073102 C68.0876984,9.36254732 68.1033517,9.34436361 68.1178869,9.32731639 C68.1357764,9.30913269 68.1536659,9.2898125 68.1726735,9.27276528 L68.2229878,9.23071546 L68.2229878,9.23071546 C68.2464678,9.21366824 68.2710658,9.19775749 68.296782,9.18411972 C68.3068448,9.17730083 68.3169077,9.16934546 68.3280886,9.16366305 C68.3347972,9.16139008 68.3403877,9.15911712 68.3459782,9.15684416 C68.3728124,9.14320638 68.4018829,9.13297805 68.4298352,9.12388619 C68.4488428,9.1170673 68.4678504,9.11024842 68.486858,9.10683897 C68.5125742,9.0988836 68.5382904,9.09661064 68.5640066,9.09320119 C68.5874865,9.08979175 68.6109665,9.0863823 68.6355646,9.0863823 L68.6590446,9.08297286 L68.6590446,9.08297286 L73.3986466,9.08297286 Z"/>
    <rect width="1" height="12" x="102" y="8.116" rx=".5"/>
    <path fill-rule="nonzero" d="M123.788,10.896 L123.788,0.324 L122.876,0.324 L122.876,3.12 L119.804,3.12 L119.804,3.996 L122.876,3.996 L122.876,7.356 C121.592,7.848 120.32,8.34 119.444,8.628 L119.852,9.516 C120.716,9.156 121.808,8.712 122.876,8.244 L122.876,10.896 L123.788,10.896 Z M129.092,10.74 C130.256,10.74 130.508,9.984 130.616,7.8 C130.364,7.74 129.992,7.56 129.752,7.38 C129.668,9.372 129.584,9.864 129.02,9.864 L127.304,9.864 C126.776,9.864 126.68,9.756 126.68,9.144 L126.68,5.232 C127.964,4.524 129.356,3.696 130.364,2.88 L129.644,2.136 C128.924,2.82 127.796,3.624 126.68,4.308 L126.68,0.324 L125.768,0.324 L125.768,9.132 C125.768,10.392 126.092,10.74 127.22,10.74 L129.092,10.74 Z M142.208,2.448 L142.208,1.572 L137.768,1.572 C137.552,1.116 137.168,0.468 136.832,-9.9475983e-14 L135.992,0.264 C136.256,0.672 136.52,1.164 136.724,1.572 L131.816,1.572 L131.816,2.448 L142.208,2.448 Z M136.976,10.92 C137.384,10.776 137.504,10.536 137.504,10.008 L137.504,6.9 L140.828,6.9 L140.828,3.408 L133.292,3.408 L133.292,6.9 L136.58,6.9 L136.58,9.984 C136.58,10.152 136.532,10.212 136.304,10.212 C136.237538,10.2156923 136.121089,10.2182485 135.967934,10.2193191 L135.567002,10.2190733 C135.265893,10.2170414 134.904615,10.2110769 134.528,10.2 C134.648,10.452 134.78,10.8 134.828,11.052 C135.884,11.064 136.568,11.064 136.976,10.92 Z M139.904,6.108 L134.168,6.108 L134.168,4.188 L139.904,4.188 L139.904,6.108 Z M141.392,10.704 L142.172,10.176 C141.692,9.504 140.696,8.424 139.928,7.656 L139.196,8.1 C140,8.892 140.948,10.02 141.392,10.704 Z M132.332,10.656 C133.172,9.96 134.108,8.904 134.708,7.968 L133.856,7.668 C133.4,8.46 132.476,9.456 131.672,10.104 C131.852,10.236 132.164,10.5 132.332,10.656 Z M149.06,10.116 L149.06,9.168 L146.624,9.168 C146.18,9.168 145.64,9.216 145.184,9.252 C147.248,7.296 148.628,5.508 148.628,3.756 C148.628,2.184 147.644,1.152 146.072,1.152 C144.956,1.152 144.2,1.668 143.48,2.448 L144.116,3.072 C144.596,2.496 145.22,2.052 145.94,2.052 C147.032,2.052 147.56,2.784 147.56,3.792 C147.56,5.304 146.288,7.056 143.528,9.468 L143.528,10.116 L149.06,10.116 Z M152.996,10.272 C154.664,10.272 155.732,8.748 155.732,5.688 C155.732,2.64 154.664,1.152 152.996,1.152 C151.316,1.152 150.248,2.628 150.248,5.688 C150.248,8.748 151.316,10.272 152.996,10.272 Z M152.996,9.396 C151.988,9.396 151.316,8.28 151.316,5.688 C151.316,3.12 151.988,2.04 152.996,2.04 C153.992,2.04 154.664,3.12 154.664,5.688 C154.664,8.28 153.992,9.396 152.996,9.396 Z M162.38,10.116 L162.38,9.168 L159.944,9.168 C159.5,9.168 158.96,9.216 158.504,9.252 C160.568,7.296 161.948,5.508 161.948,3.756 C161.948,2.184 160.964,1.152 159.392,1.152 C158.276,1.152 157.52,1.668 156.8,2.448 L157.436,3.072 C157.916,2.496 158.54,2.052 159.26,2.052 C160.352,2.052 160.88,2.784 160.88,3.792 C160.88,5.304 159.608,7.056 156.848,9.468 L156.848,10.116 L162.38,10.116 Z M169.04,10.116 L169.04,9.168 L166.604,9.168 C166.16,9.168 165.62,9.216 165.164,9.252 C167.228,7.296 168.608,5.508 168.608,3.756 C168.608,2.184 167.624,1.152 166.052,1.152 C164.936,1.152 164.18,1.668 163.46,2.448 L164.096,3.072 C164.576,2.496 165.2,2.052 165.92,2.052 C167.012,2.052 167.54,2.784 167.54,3.792 C167.54,5.304 166.268,7.056 163.508,9.468 L163.508,10.116 L169.04,10.116 Z M176.696,11.04 L176.696,8.292 L181.04,8.292 L181.04,7.428 L176.696,7.428 L176.696,5.052 L180.212,5.052 L180.212,4.212 L176.696,4.212 L176.696,2.388 L180.488,2.388 L180.488,1.524 L173.336,1.524 C173.528,1.116 173.72,0.684 173.888,0.264 L172.988,0.048 C172.424,1.656 171.416,3.204 170.288,4.188 C170.516,4.308 170.888,4.608 171.056,4.752 C171.704,4.128 172.34,3.312 172.88,2.388 L175.796,2.388 L175.796,4.212 L172.22,4.212 L172.22,7.428 L170.252,7.428 L170.252,8.292 L175.796,8.292 L175.796,11.04 L176.696,11.04 Z M175.796,7.428 L173.108,7.428 L173.108,5.052 L175.796,5.052 L175.796,7.428 Z M182.672,7.08 C184.34,6.696 186.092,6.048 187.628,5.136 C189.032,6.036 190.724,6.672 192.536,7.02 C192.668,6.756 192.896,6.384 193.112,6.168 C191.384,5.892 189.764,5.364 188.408,4.62 C189.584,3.792 190.568,2.784 191.228,1.584 L190.64,1.224 L190.496,1.272 L186.584,1.272 C186.824,0.924 187.052,0.576 187.232,0.24 L186.272,0.048 C185.636,1.296 184.388,2.832 182.648,3.936 C182.852,4.08 183.116,4.392 183.248,4.596 C183.992,4.104 184.64,3.528 185.204,2.952 C185.672,3.552 186.224,4.104 186.848,4.584 C185.42,5.376 183.788,5.94 182.24,6.252 C182.408,6.456 182.6,6.84 182.672,7.08 Z M187.604,4.116 C186.848,3.612 186.212,3.036 185.72,2.388 C185.816,2.292 185.912,2.172 185.996,2.064 L189.884,2.064 C189.308,2.844 188.516,3.528 187.604,4.116 Z M189.812,8.592 L190.208,7.788 C189.272,7.416 187.46,6.852 186.2,6.492 L185.804,7.176 C187.1,7.584 188.9,8.208 189.812,8.592 Z M190.184,11.136 L190.604,10.308 C189.236,9.756 186.596,8.988 184.724,8.556 L184.316,9.276 C186.248,9.744 188.864,10.584 190.184,11.136 Z M196.4,6.756 L196.4,1.872 L202.856,1.872 L202.856,6.756 L203.732,6.756 L203.732,1.116 L199.76,1.116 C199.892,0.828 200.036,0.528 200.18,0.204 L199.208,0.036 C199.112,0.348 198.956,0.768 198.8,1.116 L195.56,1.116 L195.56,6.756 L196.4,6.756 Z M197.228,6.552 C197.864,6.192 198.656,5.508 199.22,4.836 L199.22,6.192 L200,6.192 L200,4.548 L202.316,4.548 L202.316,3.9 L200,3.9 L200,2.148 L199.22,2.148 L199.22,3.9 L196.916,3.9 L196.916,4.548 L198.632,4.548 C198.104,5.136 197.348,5.712 196.712,6.012 C196.88,6.144 197.108,6.396 197.228,6.552 Z M201.032,3.828 C201.32,3.504 201.668,3.024 202.004,2.58 L201.32,2.256 C201.14,2.64 200.768,3.204 200.504,3.564 L201.032,3.828 Z M198.044,3.84 L198.644,3.54 C198.464,3.216 198.104,2.712 197.816,2.328 L197.24,2.592 C197.528,2.988 197.864,3.528 198.044,3.84 Z M201.92,6.372 L202.364,5.88 C201.98,5.568 201.236,5.088 200.684,4.74 L200.24,5.172 C200.816,5.532 201.548,6.048 201.92,6.372 Z M204.62,11.064 C204.716,10.8 204.968,10.428 205.16,10.224 C202.952,9.996 201.428,9.312 200.6,8.028 L204.908,8.028 L204.908,7.248 L199.904,7.248 C199.964,7.008 200.012,6.78 200.048,6.516 L199.112,6.516 C199.064,6.78 199.016,7.008 198.956,7.248 L194.348,7.248 L194.348,8.028 L198.668,8.028 C198.104,9.18 196.916,9.912 194.144,10.284 C194.3,10.464 194.504,10.824 194.576,11.052 C197.756,10.584 199.052,9.588 199.664,8.028 C200.564,9.78 202.16,10.692 204.62,11.064 Z M206.84,4.944 C207.536,4.632 208.196,4.272 208.82,3.876 L208.82,4.608 L214.52,4.608 L214.52,3.782 L214.811806,3.95843848 C215.372328,4.2905625 215.95475,4.58775 216.536,4.824 C216.68,4.572 216.956,4.212 217.16,4.032 C215.228,3.372 213.284,2.052 212.192,0.936 C212.3,0.78 212.42,0.612 212.54,0.456 L211.688,0.084 C210.62,1.692 208.52,3.192 206.192,4.188 C206.396,4.356 206.708,4.728 206.84,4.944 Z M214.517,3.78 L208.976,3.78 C210.008,3.12 210.932,2.352 211.676,1.536 C212.381,2.256 213.376625,3.0650625 214.478305,3.75517969 L214.517,3.78 Z M215.672,11.028 L216.464,10.536 C215.936,9.636 214.808,8.364 213.74,7.404 L212.984,7.812 C213.44,8.232 213.944,8.748 214.376,9.252 L208.928,9.66 C209.792,8.892 210.632,7.92 211.376,6.936 L216.608,6.936 L216.608,6.072 L206.756,6.072 L206.756,6.936 L210.164,6.936 C209.384,8.004 208.484,8.952 208.148,9.228 C207.788,9.576 207.512,9.804 207.26,9.852 C207.356,10.116 207.5,10.584 207.56,10.776 C208.004,10.608 208.676,10.56 215.012,10.044 C215.276,10.392 215.504,10.74 215.672,11.028 Z M221.504,11.004 L221.504,5.76 C222.02,6.432 222.692,7.332 222.968,7.788 L223.508,7.056 C223.208,6.684 221.96,5.22 221.504,4.74 L221.504,4.428 L223.592,4.428 L223.592,3.6 L221.504,3.6 L221.504,1.44 C222.248,1.284 222.956,1.092 223.508,0.888 L222.908,0.192 C221.852,0.612 219.98,0.972 218.396,1.188 C218.504,1.392 218.6,1.68 218.648,1.896 C219.284,1.812 219.956,1.716 220.628,1.608 L220.628,3.6 L218.288,3.6 L218.288,4.428 L220.4,4.428 C219.86,5.928 218.9,7.572 217.988,8.484 C218.156,8.7 218.384,9.06 218.48,9.3 C219.248,8.472 220.04,7.116 220.628,5.724 L220.628,11.004 L221.504,11.004 Z M224.876,10.5 L224.876,9.516 L227.552,9.516 L227.552,10.416 L228.44,10.416 L228.44,1.188 L224,1.188 L224,10.5 L224.876,10.5 Z M227.552,8.652 L224.876,8.652 L224.876,2.04 L227.552,2.04 L227.552,8.652 Z M230.672,7.08 C232.34,6.696 234.092,6.048 235.628,5.136 C237.032,6.036 238.724,6.672 240.536,7.02 C240.668,6.756 240.896,6.384 241.112,6.168 C239.384,5.892 237.764,5.364 236.408,4.62 C237.584,3.792 238.568,2.784 239.228,1.584 L238.64,1.224 L238.496,1.272 L234.584,1.272 C234.824,0.924 235.052,0.576 235.232,0.24 L234.272,0.048 C233.636,1.296 232.388,2.832 230.648,3.936 C230.852,4.08 231.116,4.392 231.248,4.596 C231.992,4.104 232.64,3.528 233.204,2.952 C233.672,3.552 234.224,4.104 234.848,4.584 C233.42,5.376 231.788,5.94 230.24,6.252 C230.408,6.456 230.6,6.84 230.672,7.08 Z M235.604,4.116 C234.848,3.612 234.212,3.036 233.72,2.388 C233.816,2.292 233.912,2.172 233.996,2.064 L237.884,2.064 C237.308,2.844 236.516,3.528 235.604,4.116 Z M237.812,8.592 L238.208,7.788 C237.272,7.416 235.46,6.852 234.2,6.492 L233.804,7.176 C235.1,7.584 236.9,8.208 237.812,8.592 Z M238.184,11.136 L238.604,10.308 C237.236,9.756 234.596,8.988 232.724,8.556 L232.316,9.276 C234.248,9.744 236.864,10.584 238.184,11.136 Z M251.9,10.968 C252.716,10.968 252.992,10.572 253.148,9.252 C252.944,9.156 252.668,8.964 252.488,8.772 C252.44,9.828 252.308,10.116 251.984,10.116 C251.456,10.116 251,9.6 250.628,8.712 C251.576,8.016 252.392,7.188 252.992,6.276 L252.248,5.928 C251.768,6.66 251.108,7.332 250.352,7.92 C250.16,7.284 250.004,6.54 249.872,5.712 L252.992,5.112 L252.848,4.332 L249.776,4.908 C249.716,4.416 249.668,3.888 249.62,3.348 L252.668,2.88 L252.512,2.1 L249.572,2.532 C249.536,1.74 249.524,0.924 249.524,0.06 L248.648,0.06 C248.66,0.948 248.684,1.824 248.732,2.664 L246.824,2.94 L246.968,3.744 L248.78,3.48 C248.828,4.032 248.864,4.56 248.924,5.076 L246.584,5.508 L246.728,6.312 L249.032,5.868 C249.188,6.84 249.368,7.704 249.608,8.436 C248.552,9.132 247.34,9.672 246.056,10.056 C246.26,10.26 246.488,10.56 246.596,10.788 C247.784,10.404 248.9,9.864 249.908,9.228 C250.4,10.32 251.048,10.968 251.9,10.968 Z M251.792,1.872 L252.308,1.32 C251.936,1.008 251.168,0.552 250.58,0.3 L250.076,0.792 C250.664,1.08 251.42,1.548 251.792,1.872 Z M242.816,10.98 C244.712,9.684 246.044,7.176 246.524,3.204 L246.008,3.048 L245.852,3.072 L244.292,3.072 C244.424,2.544 244.556,1.992 244.652,1.44 L246.896,1.44 L246.896,0.624 L242.276,0.624 L242.276,1.44 L243.812,1.44 C243.476,3.324 242.948,5.052 242.084,6.204 C242.264,6.36 242.564,6.696 242.684,6.876 C243.248,6.072 243.704,5.04 244.064,3.888 L245.6,3.888 C245.468,4.812 245.276,5.664 245.024,6.408 C244.676,6.144 244.244,5.868 243.872,5.652 L243.404,6.252 C243.824,6.504 244.34,6.888 244.724,7.2 C244.112,8.628 243.248,9.66 242.204,10.332 C242.396,10.476 242.684,10.788 242.816,10.98 Z M256.4,6.756 L256.4,1.872 L262.856,1.872 L262.856,6.756 L263.732,6.756 L263.732,1.116 L259.76,1.116 C259.892,0.828 260.036,0.528 260.18,0.204 L259.208,0.036 C259.112,0.348 258.956,0.768 258.8,1.116 L255.56,1.116 L255.56,6.756 L256.4,6.756 Z M257.228,6.552 C257.864,6.192 258.656,5.508 259.22,4.836 L259.22,6.192 L260,6.192 L260,4.548 L262.316,4.548 L262.316,3.9 L260,3.9 L260,2.148 L259.22,2.148 L259.22,3.9 L256.916,3.9 L256.916,4.548 L258.632,4.548 C258.104,5.136 257.348,5.712 256.712,6.012 C256.88,6.144 257.108,6.396 257.228,6.552 Z M261.032,3.828 C261.32,3.504 261.668,3.024 262.004,2.58 L261.32,2.256 C261.14,2.64 260.768,3.204 260.504,3.564 L261.032,3.828 Z M258.044,3.84 L258.644,3.54 C258.464,3.216 258.104,2.712 257.816,2.328 L257.24,2.592 C257.528,2.988 257.864,3.528 258.044,3.84 Z M261.92,6.372 L262.364,5.88 C261.98,5.568 261.236,5.088 260.684,4.74 L260.24,5.172 C260.816,5.532 261.548,6.048 261.92,6.372 Z M264.62,11.064 C264.716,10.8 264.968,10.428 265.16,10.224 C262.952,9.996 261.428,9.312 260.6,8.028 L264.908,8.028 L264.908,7.248 L259.904,7.248 C259.964,7.008 260.012,6.78 260.048,6.516 L259.112,6.516 C259.064,6.78 259.016,7.008 258.956,7.248 L254.348,7.248 L254.348,8.028 L258.668,8.028 C258.104,9.18 256.916,9.912 254.144,10.284 C254.3,10.464 254.504,10.824 254.576,11.052 C257.756,10.584 259.052,9.588 259.664,8.028 C260.564,9.78 262.16,10.692 264.62,11.064 Z M266.84,4.944 C267.536,4.632 268.196,4.272 268.82,3.876 L268.82,4.608 L274.52,4.608 L274.519,3.781 L274.811806,3.95843848 C275.372328,4.2905625 275.95475,4.58775 276.536,4.824 C276.68,4.572 276.956,4.212 277.16,4.032 C275.228,3.372 273.284,2.052 272.192,0.936 C272.3,0.78 272.42,0.612 272.54,0.456 L271.688,0.084 C270.62,1.692 268.52,3.192 266.192,4.188 C266.396,4.356 266.708,4.728 266.84,4.944 Z M274.517,3.78 L268.976,3.78 C270.008,3.12 270.932,2.352 271.676,1.536 C272.381,2.256 273.376625,3.0650625 274.478305,3.75517969 L274.517,3.78 Z M275.672,11.028 L276.464,10.536 C275.936,9.636 274.808,8.364 273.74,7.404 L272.984,7.812 C273.44,8.232 273.944,8.748 274.376,9.252 L268.928,9.66 C269.792,8.892 270.632,7.92 271.376,6.936 L276.608,6.936 L276.608,6.072 L266.756,6.072 L266.756,6.936 L270.164,6.936 C269.384,8.004 268.484,8.952 268.148,9.228 C267.788,9.576 267.512,9.804 267.26,9.852 C267.356,10.116 267.5,10.584 267.56,10.776 C268.004,10.608 268.676,10.56 275.012,10.044 C275.276,10.392 275.504,10.74 275.672,11.028 Z M120.824,17.348 L120.824,16.064 L129.128,16.064 L129.128,17.348 L130.052,17.348 L130.052,15.224 L125.792,15.224 C125.672,14.864 125.468,14.384 125.264,14.012 L124.376,14.216 C124.532,14.516 124.676,14.9 124.784,15.224 L119.948,15.224 L119.948,17.348 L120.824,17.348 Z M122.336,25.028 L122.336,24.5 L128.048,24.5 L128.048,24.968 L128.948,24.968 L128.948,21.296 L122.336,21.296 L122.336,20.144 L128.516,20.144 L128.516,17.096 L121.448,17.096 L121.448,25.028 L122.336,25.028 Z M127.64,19.364 L122.336,19.364 L122.336,17.876 L127.64,17.876 L127.64,19.364 Z M128.048,23.696 L122.336,23.696 L122.336,22.088 L128.048,22.088 L128.048,23.696 Z M132.248,25.076 C134.504,23.876 135.404,21.896 135.788,19.784 L140.06,19.784 C139.856,22.484 139.628,23.636 139.268,23.948 C139.136,24.056 138.98,24.08 138.704,24.08 C138.392,24.08 137.552,24.068 136.7,23.996 C136.868,24.236 136.988,24.596 137.012,24.86 C137.816,24.92 138.596,24.932 139.016,24.908 C139.484,24.872 139.76,24.788 140.048,24.488 C140.516,24.02 140.756,22.724 140.984,19.352 C141.008,19.22 141.02,18.92 141.02,18.92 L135.92,18.92 C136.004,18.284 136.052,17.648 136.088,17.024 L142.184,17.024 L142.184,16.148 L137.18,16.148 L138.008,15.788 C137.84,15.296 137.468,14.576 137.144,14.012 L136.292,14.348 C136.604,14.9 136.952,15.668 137.108,16.148 L131.864,16.148 L131.864,17.024 L135.104,17.024 C134.972,19.76 134.66,22.832 131.6,24.356 C131.828,24.524 132.104,24.836 132.248,25.076 Z M145.82,25.028 L145.82,17.696 L147.104,17.696 L147.104,16.868 L145.82,16.868 L145.82,14.072 L144.968,14.072 L144.968,16.868 L143.612,16.868 L143.612,17.696 L144.968,17.696 L144.968,25.028 L145.82,25.028 Z M147.068,25.052 C149.852,22.724 150.356,19.712 150.428,17.204 L152.084,17.204 C151.976,21.836 151.844,23.528 151.532,23.9 C151.412,24.056 151.28,24.092 151.076,24.092 C150.812,24.092 150.188,24.08 149.504,24.032 C149.66,24.272 149.756,24.632 149.78,24.884 C150.404,24.92 151.052,24.932 151.424,24.896 C151.808,24.848 152.06,24.752 152.3,24.428 C152.708,23.888 152.816,22.112 152.948,16.796 L152.948,16.34 L150.44,16.34 L150.44,14.192 L149.588,14.192 L149.588,16.34 L147.464,16.34 L147.464,17.204 L149.576,17.204 C149.504,19.52 149.024,22.28 146.396,24.452 C146.612,24.572 146.924,24.86 147.068,25.052 Z M147.188,21.932 C147.728,21.104 148.196,19.844 148.448,18.584 L147.656,18.44 C147.44,19.58 147.044,20.708 146.516,21.464 C146.708,21.56 147.044,21.8 147.188,21.932 Z M153.8,22.028 L154.616,21.824 C154.496,20.984 154.136,19.568 153.788,18.476 L153.044,18.632 C153.368,19.736 153.692,21.176 153.8,22.028 Z M156.956,25.064 L156.956,15.548 L165.056,15.548 L165.056,23.912 C165.056,24.104 164.984,24.176 164.768,24.188 C164.7,24.192 164.577333,24.1946667 164.416,24.1955556 L164.147,24.1955 C163.853,24.194 163.49,24.188 163.112,24.176 C163.256,24.416 163.4,24.8 163.436,25.052 C164.468,25.052 165.068,25.028 165.44,24.884 C165.8,24.728 165.932,24.464 165.932,23.912 L165.932,14.696 L156.092,14.696 L156.092,25.064 L156.956,25.064 Z M164.048,17.576 L164.048,16.796 L158,16.796 L158,17.576 L164.048,17.576 Z M159.428,23.48 L159.428,22.616 L163.412,22.616 L163.412,18.824 L158.6,18.824 L158.6,23.48 L159.428,23.48 Z M162.572,21.848 L159.428,21.848 L159.428,19.58 L162.572,19.58 L162.572,21.848 Z M168.272,25.088 C171.836,22.844 172.496,19.724 172.604,17.168 L175.04,17.168 C174.884,21.608 174.68,23.348 174.308,23.732 C174.164,23.888 174.032,23.924 173.792,23.912 L173.582257,23.9115672 C173.211438,23.9096198 172.601818,23.8989091 171.944,23.84 C172.112,24.116 172.244,24.512 172.256,24.788 C172.988,24.824 173.756,24.848 174.176,24.8 C174.62,24.764 174.896,24.644 175.184,24.296 C175.652,23.72 175.832,21.92 176.024,16.772 C176.024,16.64 176.036,16.28 176.036,16.28 L172.628,16.28 L172.628,14.096 L171.68,14.096 L171.68,16.28 L168.08,16.28 L168.08,17.168 L171.656,17.168 C171.548,19.496 170.9,22.304 167.552,24.356 C167.78,24.524 168.116,24.872 168.272,25.088 Z M177.596,22.088 L178.484,21.776 C178.268,20.816 177.692,19.256 177.128,18.08 L176.324,18.356 C176.876,19.556 177.428,21.128 177.596,22.088 Z M168.404,21.872 C169.088,20.972 169.664,19.58 170.036,18.512 L169.232,18.176 C168.908,19.232 168.308,20.564 167.588,21.392 L168.404,21.872 Z M189.776,19.628 C189.956,19.388 190.292,19.052 190.52,18.872 C189.284,17.876 187.76,15.98 186.968,14.348 L186.092,14.684 C187.016,16.484 188.54,18.488 189.776,19.628 Z M180.488,19.628 C181.784,18.452 183.056,16.64 183.86,14.696 L182.912,14.432 C182.204,16.22 181.004,17.936 179.66,18.992 C179.888,19.136 180.296,19.448 180.488,19.628 Z M189.152,24.956 L190.016,24.476 C189.428,23.396 188.204,21.716 187.16,20.444 L186.332,20.828 C186.8,21.416 187.316,22.112 187.796,22.784 L182.216,23.12 C183.392,21.728 184.568,19.952 185.552,18.14 L184.592,17.708 C183.632,19.7 182.18,21.776 181.712,22.316 C181.256,22.88 180.932,23.24 180.62,23.312 C180.752,23.564 180.92,24.056 180.968,24.248 C181.009111,24.2324444 181.051971,24.2180206 181.100905,24.2043093 L181.162818,24.1881709 C181.674975,24.0640123 182.876667,23.988 188.36,23.612 C188.672,24.104 188.96,24.572 189.152,24.956 Z M197.264,19.292 C197.732,18.608 198.116,17.72 198.404,16.724 L201.476,16.724 C201.308,17.552 201.116,18.44 200.936,19.028 L201.656,19.244 C201.92,18.44 202.232,17.144 202.448,16.052 L201.872,15.884 L201.776,15.908 L198.62,15.908 C198.74,15.356 198.848,14.792 198.944,14.204 L198.08,14.072 C197.828,15.92 197.36,17.672 196.52,18.788 C196.736,18.908 197.108,19.148 197.264,19.292 Z M195.164,24.968 L195.164,22.424 L196.784,22.148 L196.748,21.344 L195.164,21.572 L195.164,19.964 L196.664,19.964 L196.664,19.148 L195.164,19.148 L195.164,17.384 L194.348,17.384 L194.348,19.148 L193.04,19.148 C193.436,18.332 193.832,17.372 194.168,16.352 L196.736,16.352 L196.736,15.5 L194.456,15.5 C194.576,15.104 194.696,14.684 194.792,14.288 L193.928,14.096 C193.832,14.564 193.7,15.044 193.568,15.5 L191.636,15.5 L191.636,16.352 L193.304,16.352 C192.98,17.312 192.668,18.092 192.524,18.392 C192.284,18.92 192.104,19.28 191.876,19.34 C191.984,19.556 192.116,19.952 192.164,20.132 C192.272,20.036 192.644,19.964 193.076,19.964 L194.348,19.964 L194.348,21.692 C193.268,21.848 192.272,21.992 191.516,22.076 L191.708,22.976 C192.452,22.856 193.376,22.712 194.348,22.556 L194.348,24.968 L195.164,24.968 Z M196.892,25.04 C198.356,23.924 199.088,22.604 199.448,21.344 C199.964,22.988 200.744,24.32 201.944,25.016 C202.076,24.8 202.352,24.464 202.532,24.296 C201.056,23.516 200.192,21.644 199.772,19.508 C199.796,19.112 199.808,18.752 199.808,18.416 L199.808,17.852 L198.956,17.852 L198.956,18.404 C198.956,20.072 198.776,22.556 196.232,24.44 C196.448,24.572 196.748,24.848 196.892,25.04 Z M205.892,25.016 L205.892,16.976 C206.348,16.148 206.744,15.26 207.08,14.384 L206.24,14.12 C205.604,15.932 204.548,17.72 203.432,18.884 C203.588,19.088 203.852,19.544 203.936,19.76 C204.308,19.34 204.692,18.872 205.04,18.356 L205.04,25.016 L205.892,25.016 Z M211.124,25.04 L211.124,20.9 L214.376,20.9 L214.376,20.024 L211.124,20.024 L211.124,17.396 L213.86,17.396 L213.86,16.52 L211.124,16.52 L211.124,14.228 L210.236,14.228 L210.236,16.52 L208.64,16.52 C208.796,15.98 208.928,15.416 209.036,14.852 L208.196,14.672 C207.92,16.22 207.428,17.78 206.72,18.764 C206.948,18.872 207.32,19.088 207.488,19.22 C207.812,18.716 208.1,18.092 208.352,17.396 L210.236,17.396 L210.236,20.024 L206.816,20.024 L206.816,20.9 L210.236,20.9 L210.236,25.04 L211.124,25.04 Z M217.868,25.016 L217.868,16.94 C218.336,16.112 218.756,15.236 219.092,14.372 L218.252,14.108 C217.58,15.92 216.476,17.72 215.3,18.86 C215.456,19.076 215.708,19.532 215.804,19.736 C216.212,19.316 216.62,18.824 216.992,18.284 L216.992,25.016 L217.868,25.016 Z M226.484,21.296 L226.484,20.42 L224.636,20.42 L224.636,17.492 L226.34,17.492 L226.34,16.628 L224.636,16.628 L224.636,14.204 L223.772,14.204 L223.772,16.628 L221.432,16.628 L221.432,14.216 L220.568,14.216 L220.568,16.628 L219.02,16.628 L219.02,17.492 L220.568,17.492 L220.568,20.42 L218.732,20.42 L218.732,21.296 L226.484,21.296 Z M223.772,20.42 L221.432,20.42 L221.432,17.492 L223.772,17.492 L223.772,20.42 Z M219.368,25.004 C220.172,24.32 221.06,23.276 221.66,22.232 L220.808,21.968 C220.304,22.892 219.476,23.828 218.66,24.452 C218.864,24.56 219.212,24.848 219.368,25.004 Z M225.596,25.052 L226.352,24.56 C225.932,23.852 225.044,22.784 224.216,22.004 L223.52,22.4 C224.312,23.192 225.2,24.308 225.596,25.052 Z M228.248,25.124 C229.22,23.336 229.376,20.672 229.376,18.872 L229.376,16.46 L238.268,16.46 L238.268,15.608 L234.26,15.608 C234.104,15.188 233.78,14.504 233.48,13.988 L232.616,14.204 C232.844,14.636 233.096,15.188 233.252,15.608 L228.488,15.608 L228.488,18.872 C228.488,20.564 228.404,22.928 227.492,24.632 C227.684,24.716 228.104,24.968 228.248,25.124 Z M238.424,24.476 L238.424,23.624 L235.184,23.624 C236.276,21.776 237.164,19.604 237.74,17.624 L236.804,17.288 C236.336,19.34 235.424,21.776 234.272,23.624 L229.532,23.624 L229.532,24.476 L238.424,24.476 Z M233.768,21.668 L234.608,21.428 C234.428,20.312 233.984,18.644 233.576,17.36 L232.772,17.576 C233.168,18.872 233.6,20.564 233.768,21.668 Z M231.476,22.34 L232.304,22.004 C232.052,20.9 231.476,19.232 230.948,17.936 L230.18,18.248 C230.672,19.532 231.248,21.236 231.476,22.34 Z M250.244,16.136 L250.244,15.368 L245.732,15.368 C245.6,14.972 245.36,14.456 245.156,14.036 L244.292,14.264 C244.46,14.588 244.628,15.008 244.76,15.368 L239.78,15.368 L239.78,16.136 L250.244,16.136 Z M243.056,17.816 L243.872,17.492 C243.716,17.144 243.368,16.568 243.116,16.16 L242.312,16.424 C242.576,16.868 242.9,17.468 243.056,17.816 Z M241.316,25.016 L241.316,18.608 L248.756,18.608 L248.756,24.032 C248.756,24.224 248.684,24.272 248.492,24.284 C248.396,24.29 248.174,24.296 247.883,24.2975 L247.571111,24.2973333 C247.350667,24.296 247.108,24.292 246.86,24.284 C246.98,24.476 247.088,24.752 247.136,24.968 C248.156,24.968 248.756,24.956 249.116,24.848 C249.464,24.716 249.584,24.512 249.584,24.044 L249.584,17.864 L246.908,17.864 C247.22,17.444 247.532,16.928 247.832,16.436 L246.884,16.232 C246.68,16.712 246.32,17.372 245.996,17.864 L240.464,17.864 L240.464,25.016 L241.316,25.016 Z M248.048,21.116 L248.576,20.492 C248.036,20.024 246.992,19.268 246.212,18.74 L245.708,19.268 C246.5,19.832 247.532,20.624 248.048,21.116 Z M242.084,21.164 C242.84,20.648 243.788,19.844 244.4,19.124 L243.764,18.824 C243.212,19.424 242.384,20.024 241.676,20.468 C241.808,20.624 242.024,21.02 242.084,21.164 Z M243.56,24.056 L243.56,23.504 L247.16,23.504 L247.16,20.78 L242.78,20.78 L242.78,24.056 L243.56,24.056 Z M246.416,22.844 L243.56,22.844 L243.56,21.452 L246.416,21.452 L246.416,22.844 Z"/>
  </g>
</svg>
