<svg xmlns="http://www.w3.org/2000/svg" viewBox="0 0 30 30">
  <path fill="#FFF" fill-rule="evenodd" d="M21.3700446,15.9934073 C21.3399565,12.8837344 23.8560722,11.3929521 23.9681503,11.318528 C22.5540106,9.20780117 20.3515631,8.91931214 19.5670164,8.88555279 C17.692529,8.69220376 15.9098103,10.0111203 14.9582748,10.0111203 C14.009748,10.0111203 12.5414497,8.91394134 10.9866482,8.94309714 C8.94366756,8.97378746 7.05940154,10.1545976 6.00782315,12.0213364 C3.8851091,15.778575 5.4639811,21.3442649 7.5332888,24.3918138 C8.54424829,25.8833634 9.7500281,27.5582877 11.3326611,27.4984416 C12.8566224,27.4362937 13.4335613,26.4925663 15.275704,26.4925663 C17.1178467,26.4925663 17.6361139,27.4984416 19.2495872,27.4677513 C20.8893875,27.4362937 21.9289307,25.9478131 22.9331204,24.4516599 C24.0937681,22.721493 24.5721685,21.0458015 24.6,20.9598686 C24.5638943,20.9429889 21.4016371,19.7077035 21.3700446,15.9934073 L21.3700446,15.9934073 Z M18.5249418,7.05824564 C19.35403,5.98213549 19.9136831,4.4890823 19.7607805,3 C18.5665075,3.0524157 17.1191289,3.85135799 16.2625776,4.92429142 C15.4936113,5.87650992 14.8211369,7.39656514 15.0015026,8.85626288 C16.3345754,8.96744769 17.6951114,8.13117907 18.5249418,7.05824564 Z" opacity=".8"/>
</svg>
