<svg xmlns="http://www.w3.org/2000/svg" xmlns:xlink="http://www.w3.org/1999/xlink" viewBox="0 0 659 395">
  <defs>
    <linearGradient id="会员-b" x1="77.177%" x2="38.441%" y1="34.705%" y2="66.918%">
      <stop offset="0%" stop-color="#FFF"/>
      <stop offset="100%" stop-color="#FFF"/>
    </linearGradient>
    <rect id="会员-a" width="659" height="395" x="0" y="0" rx="6"/>
    <linearGradient id="会员-f" x1="100%" x2="0%" y1="0%" y2="100%">
      <stop offset="0%" stop-color="#FFE4B1"/>
      <stop offset="100%" stop-color="#E8BA63"/>
    </linearGradient>
    <circle id="会员-e" cx="594" cy="72" r="7"/>
    <filter id="会员-d" width="121.4%" height="121.4%" x="-16.1%" y="-5.4%" filterUnits="objectBoundingBox">
      <feOffset dx="-1" dy="1" in="SourceAlpha" result="shadowOffsetOuter1"/>
      <feGaussianBlur in="shadowOffsetOuter1" result="shadowBlurOuter1" stdDeviation=".25"/>
      <feColorMatrix in="shadowBlurOuter1" values="0 0 0 0 0.234884511   0 0 0 0 0.234884511   0 0 0 0 0.234884511  0 0 0 0.322170017 0"/>
    </filter>
    <circle id="会员-h" cx="572" cy="72" r="7"/>
    <filter id="会员-g" width="121.4%" height="121.4%" x="-16.1%" y="-5.4%" filterUnits="objectBoundingBox">
      <feOffset dx="-1" dy="1" in="SourceAlpha" result="shadowOffsetOuter1"/>
      <feGaussianBlur in="shadowOffsetOuter1" result="shadowBlurOuter1" stdDeviation=".25"/>
      <feColorMatrix in="shadowBlurOuter1" values="0 0 0 0 0.234884511   0 0 0 0 0.234884511   0 0 0 0 0.234884511  0 0 0 0.322170017 0"/>
    </filter>
    <rect id="会员-i" width="138" height="78" x=".36" y="0" rx="1.078"/>
    <filter id="会员-j" width="102.9%" height="105.1%" x="-2.2%" y="-1.3%" filterUnits="objectBoundingBox">
      <feOffset dx="-1" dy="1" in="SourceAlpha" result="shadowOffsetOuter1"/>
      <feGaussianBlur in="shadowOffsetOuter1" result="shadowBlurOuter1" stdDeviation=".5"/>
      <feComposite in="shadowBlurOuter1" in2="SourceAlpha" operator="out" result="shadowBlurOuter1"/>
      <feColorMatrix in="shadowBlurOuter1" values="0 0 0 0 0   0 0 0 0 0   0 0 0 0 0  0 0 0 0.094569493 0"/>
    </filter>
    <path id="会员-m" d="M43.496,57.359 C44.091363,57.359 44.574,58.2544305 44.574,59.359 L44.574,63.359 C44.574,64.4635695 44.091363,65.359 43.496,65.359 L16.546,65.359 C15.950637,65.359 15.468,64.4635695 15.468,63.359 L15.468,59.359 C15.468,58.2544305 15.950637,57.359 16.546,57.359 L43.496,57.359 Z M125.424,27.02 C126.019363,27.02 126.502,27.502637 126.502,28.098 L126.502,48.041 C126.502,48.636363 126.019363,49.119 125.424,49.119 L16.546,49.119 C15.950637,49.119 15.468,48.636363 15.468,48.041 L15.468,28.098 C15.468,27.502637 15.950637,27.02 16.546,27.02 L125.424,27.02 Z M70.446,10.78 C71.041363,10.78 71.524,11.6754305 71.524,12.78 L71.524,16.78 C71.524,17.8845695 71.041363,18.78 70.446,18.78 L16.546,18.78 C15.950637,18.78 15.468,17.8845695 15.468,16.78 L15.468,12.78 C15.468,11.6754305 15.950637,10.78 16.546,10.78 L70.446,10.78 Z"/>
    <filter id="会员-l" width="103.6%" height="107.3%" x="-2.7%" y="-1.8%" filterUnits="objectBoundingBox">
      <feOffset dx="-1" dy="1" in="SourceAlpha" result="shadowOffsetOuter1"/>
      <feGaussianBlur in="shadowOffsetOuter1" result="shadowBlurOuter1" stdDeviation=".5"/>
      <feColorMatrix in="shadowBlurOuter1" values="0 0 0 0 0   0 0 0 0 0   0 0 0 0 0  0 0 0 0.17692854 0"/>
    </filter>
    <rect id="会员-n" width="138" height="78" x=".36" y="0" rx="1.078"/>
    <filter id="会员-o" width="102.9%" height="105.1%" x="-2.2%" y="-1.3%" filterUnits="objectBoundingBox">
      <feOffset dx="-1" dy="1" in="SourceAlpha" result="shadowOffsetOuter1"/>
      <feGaussianBlur in="shadowOffsetOuter1" result="shadowBlurOuter1" stdDeviation=".5"/>
      <feComposite in="shadowBlurOuter1" in2="SourceAlpha" operator="out" result="shadowBlurOuter1"/>
      <feColorMatrix in="shadowBlurOuter1" values="0 0 0 0 0   0 0 0 0 0   0 0 0 0 0  0 0 0 0.094569493 0"/>
    </filter>
    <path id="会员-r" d="M43.496,57.359 C44.091363,57.359 44.574,58.2544305 44.574,59.359 L44.574,63.359 C44.574,64.4635695 44.091363,65.359 43.496,65.359 L16.546,65.359 C15.950637,65.359 15.468,64.4635695 15.468,63.359 L15.468,59.359 C15.468,58.2544305 15.950637,57.359 16.546,57.359 L43.496,57.359 Z M125.424,27.02 C126.019363,27.02 126.502,27.502637 126.502,28.098 L126.502,48.041 C126.502,48.636363 126.019363,49.119 125.424,49.119 L16.546,49.119 C15.950637,49.119 15.468,48.636363 15.468,48.041 L15.468,28.098 C15.468,27.502637 15.950637,27.02 16.546,27.02 L125.424,27.02 Z M70.446,10.78 C71.041363,10.78 71.524,11.6754305 71.524,12.78 L71.524,16.78 C71.524,17.8845695 71.041363,18.78 70.446,18.78 L16.546,18.78 C15.950637,18.78 15.468,17.8845695 15.468,16.78 L15.468,12.78 C15.468,11.6754305 15.950637,10.78 16.546,10.78 L70.446,10.78 Z"/>
    <filter id="会员-q" width="103.6%" height="107.3%" x="-2.7%" y="-1.8%" filterUnits="objectBoundingBox">
      <feOffset dx="-1" dy="1" in="SourceAlpha" result="shadowOffsetOuter1"/>
      <feGaussianBlur in="shadowOffsetOuter1" result="shadowBlurOuter1" stdDeviation=".5"/>
      <feColorMatrix in="shadowBlurOuter1" values="0 0 0 0 0   0 0 0 0 0   0 0 0 0 0  0 0 0 0.17692854 0"/>
    </filter>
    <path id="会员-t" d="M133.831944,20 C134.605143,20 135.231944,20.6268014 135.231944,21.4 L135.231944,25.6 C135.231944,26.3731986 134.605143,27 133.831944,27 L43.4,27 C42.6268014,27 42,26.3731986 42,25.6 L42,21.4 C42,20.6268014 42.6268014,20 43.4,20 L133.831944,20 Z M363.716667,4 C364.489865,4 365.116667,4.62680135 365.116667,5.4 L365.116667,9.6 C365.116667,10.3731986 364.489865,11 363.716667,11 L43.4,11 C42.6268014,11 42,10.3731986 42,9.6 L42,5.4 C42,4.62680135 42.6268014,4 43.4,4 L363.716667,4 Z"/>
    <filter id="会员-s" width="101.2%" height="117.4%" x="-.9%" y="-4.3%" filterUnits="objectBoundingBox">
      <feOffset dx="-1" dy="1" in="SourceAlpha" result="shadowOffsetOuter1"/>
      <feGaussianBlur in="shadowOffsetOuter1" result="shadowBlurOuter1" stdDeviation=".5"/>
      <feColorMatrix in="shadowBlurOuter1" values="0 0 0 0 0   0 0 0 0 0   0 0 0 0 0  0 0 0 0.17692854 0"/>
    </filter>
    <linearGradient id="会员-v" x1="50%" x2="50%" y1="0%" y2="100%">
      <stop offset="0%" stop-color="#5FA0F8"/>
      <stop offset="100%" stop-color="#4991F2"/>
    </linearGradient>
    <path id="会员-u" d="M1.4955997,-5.13841088e-16 L24.171067,-1.10818087e-15 C24.6911196,6.43884998e-16 24.8797032,0.0541482732 25.0698267,0.155827411 C25.2599501,0.257506548 25.4091601,0.406716549 25.5108393,0.596840006 C25.6125184,0.786963463 25.6666667,0.975547102 25.6666667,1.4955997 L25.6666667,24.171067 C25.6666667,24.6911196 25.6125184,24.8797032 25.5108393,25.0698267 C25.4091601,25.2599501 25.2599501,25.4091601 25.0698267,25.5108393 C24.8797032,25.6125184 24.6911196,25.6666667 24.171067,25.6666667 L1.4955997,25.6666667 C0.975547102,25.6666667 0.786963463,25.6125184 0.596840006,25.5108393 C0.406716549,25.4091601 0.257506548,25.2599501 0.155827411,25.0698267 C0.0541482732,24.8797032 8.80972727e-16,24.6911196 -1.51622902e-15,24.171067 L4.02826786e-17,1.4955997 C-2.34053963e-17,0.975547102 0.0541482732,0.786963463 0.155827411,0.596840006 C0.257506548,0.406716549 0.406716549,0.257506548 0.596840006,0.155827411 C0.786963463,0.0541482732 0.975547102,2.98556469e-16 1.4955997,-5.13841088e-16 Z"/>
    <path id="会员-x" d="M133.831944,19 C134.605143,19 135.231944,19.6268014 135.231944,20.4 L135.231944,24.6 C135.231944,25.3731986 134.605143,26 133.831944,26 L43.4,26 C42.6268014,26 42,25.3731986 42,24.6 L42,20.4 C42,19.6268014 42.6268014,19 43.4,19 L133.831944,19 Z M363.716667,3 C364.489865,3 365.116667,3.62680135 365.116667,4.4 L365.116667,8.6 C365.116667,9.37319865 364.489865,10 363.716667,10 L43.4,10 C42.6268014,10 42,9.37319865 42,8.6 L42,4.4 C42,3.62680135 42.6268014,3 43.4,3 L363.716667,3 Z"/>
    <filter id="会员-w" width="101.2%" height="117.4%" x="-.9%" y="-4.3%" filterUnits="objectBoundingBox">
      <feOffset dx="-1" dy="1" in="SourceAlpha" result="shadowOffsetOuter1"/>
      <feGaussianBlur in="shadowOffsetOuter1" result="shadowBlurOuter1" stdDeviation=".5"/>
      <feColorMatrix in="shadowBlurOuter1" values="0 0 0 0 0   0 0 0 0 0   0 0 0 0 0  0 0 0 0.17692854 0"/>
    </filter>
    <linearGradient id="会员-z" x1="50%" x2="50%" y1="0%" y2="98.146%">
      <stop offset="0%" stop-color="#FB7951"/>
      <stop offset="100%" stop-color="#F46D43"/>
    </linearGradient>
    <path id="会员-y" d="M1.4955997,-5.13841088e-16 L24.171067,-1.10818087e-15 C24.6911196,6.43884998e-16 24.8797032,0.0541482732 25.0698267,0.155827411 C25.2599501,0.257506548 25.4091601,0.406716549 25.5108393,0.596840006 C25.6125184,0.786963463 25.6666667,0.975547102 25.6666667,1.4955997 L25.6666667,24.171067 C25.6666667,24.6911196 25.6125184,24.8797032 25.5108393,25.0698267 C25.4091601,25.2599501 25.2599501,25.4091601 25.0698267,25.5108393 C24.8797032,25.6125184 24.6911196,25.6666667 24.171067,25.6666667 L1.4955997,25.6666667 C0.975547102,25.6666667 0.786963463,25.6125184 0.596840006,25.5108393 C0.406716549,25.4091601 0.257506548,25.2599501 0.155827411,25.0698267 C0.0541482732,24.8797032 8.80972727e-16,24.6911196 -1.51622902e-15,24.171067 L4.02826786e-17,1.4955997 C-2.34053963e-17,0.975547102 0.0541482732,0.786963463 0.155827411,0.596840006 C0.257506548,0.406716549 0.406716549,0.257506548 0.596840006,0.155827411 C0.786963463,0.0541482732 0.975547102,2.98556469e-16 1.4955997,-5.13841088e-16 Z"/>
    <path id="会员-B" d="M133.831944,20 C134.605143,20 135.231944,20.6268014 135.231944,21.4 L135.231944,25.6 C135.231944,26.3731986 134.605143,27 133.831944,27 L43.4,27 C42.6268014,27 42,26.3731986 42,25.6 L42,21.4 C42,20.6268014 42.6268014,20 43.4,20 L133.831944,20 Z M363.716667,4 C364.489865,4 365.116667,4.62680135 365.116667,5.4 L365.116667,9.6 C365.116667,10.3731986 364.489865,11 363.716667,11 L43.4,11 C42.6268014,11 42,10.3731986 42,9.6 L42,5.4 C42,4.62680135 42.6268014,4 43.4,4 L363.716667,4 Z"/>
    <filter id="会员-A" width="101.2%" height="117.4%" x="-.9%" y="-4.3%" filterUnits="objectBoundingBox">
      <feOffset dx="-1" dy="1" in="SourceAlpha" result="shadowOffsetOuter1"/>
      <feGaussianBlur in="shadowOffsetOuter1" result="shadowBlurOuter1" stdDeviation=".5"/>
      <feColorMatrix in="shadowBlurOuter1" values="0 0 0 0 0   0 0 0 0 0   0 0 0 0 0  0 0 0 0.17692854 0"/>
    </filter>
    <linearGradient id="会员-D" x1="50%" x2="50%" y1="0%" y2="100%">
      <stop offset="0%" stop-color="#3CCD93"/>
      <stop offset="100%" stop-color="#1FBB7D"/>
    </linearGradient>
    <path id="会员-C" d="M1.4955997,-5.13841088e-16 L24.171067,-1.10818087e-15 C24.6911196,6.43884998e-16 24.8797032,0.0541482732 25.0698267,0.155827411 C25.2599501,0.257506548 25.4091601,0.406716549 25.5108393,0.596840006 C25.6125184,0.786963463 25.6666667,0.975547102 25.6666667,1.4955997 L25.6666667,24.171067 C25.6666667,24.6911196 25.6125184,24.8797032 25.5108393,25.0698267 C25.4091601,25.2599501 25.2599501,25.4091601 25.0698267,25.5108393 C24.8797032,25.6125184 24.6911196,25.6666667 24.171067,25.6666667 L1.4955997,25.6666667 C0.975547102,25.6666667 0.786963463,25.6125184 0.596840006,25.5108393 C0.406716549,25.4091601 0.257506548,25.2599501 0.155827411,25.0698267 C0.0541482732,24.8797032 8.80972727e-16,24.6911196 -1.51622902e-15,24.171067 L4.02826786e-17,1.4955997 C-2.34053963e-17,0.975547102 0.0541482732,0.786963463 0.155827411,0.596840006 C0.257506548,0.406716549 0.406716549,0.257506548 0.596840006,0.155827411 C0.786963463,0.0541482732 0.975547102,2.98556469e-16 1.4955997,-5.13841088e-16 Z"/>
    <path id="会员-F" d="M1.344,0 L176.656,0 C177.398271,1.56860988e-14 178,0.601729296 178,1.344 L178,51.656 C178,52.3982707 177.398271,53 176.656,53 L1.344,53 C0.601729296,53 8.30655233e-15,52.3982707 0,51.656 L0,1.344 C1.31142661e-16,0.601729296 0.601729296,1.02453134e-15 1.344,0 Z"/>
    <filter id="会员-E" width="102.2%" height="107.5%" x="-1.5%" y="-2.4%" filterUnits="objectBoundingBox">
      <feMorphology in="SourceAlpha" operator="dilate" radius=".5" result="shadowSpreadOuter1"/>
      <feOffset dx="-1" dy="1" in="shadowSpreadOuter1" result="shadowOffsetOuter1"/>
      <feGaussianBlur in="shadowOffsetOuter1" result="shadowBlurOuter1" stdDeviation=".25"/>
      <feComposite in="shadowBlurOuter1" in2="SourceAlpha" operator="out" result="shadowBlurOuter1"/>
      <feColorMatrix in="shadowBlurOuter1" values="0 0 0 0 0   0 0 0 0 0   0 0 0 0 0  0 0 0 0.0880408654 0"/>
    </filter>
    <path id="会员-G" d="M1.2819426,-5.17920154e-17 L20.7180574,5.17920154e-17 C21.1638168,-3.00926524e-17 21.3254599,0.0464128056 21.4884229,0.133566352 C21.6513858,0.220719898 21.7792801,0.348614185 21.8664336,0.511577148 C21.9535872,0.674540111 22,0.83618323 22,1.2819426 L22,20.7180574 C22,21.1638168 21.9535872,21.3254599 21.8664336,21.4884229 C21.7792801,21.6513858 21.6513858,21.7792801 21.4884229,21.8664336 C21.3254599,21.9535872 21.1638168,22 20.7180574,22 L1.2819426,22 C0.83618323,22 0.674540111,21.9535872 0.511577148,21.8664336 C0.348614185,21.7792801 0.220719898,21.6513858 0.133566352,21.4884229 C0.0464128056,21.3254599 2.00617683e-17,21.1638168 -3.45280103e-17,20.7180574 L3.45280103e-17,1.2819426 C-2.00617683e-17,0.83618323 0.0464128056,0.674540111 0.133566352,0.511577148 C0.220719898,0.348614185 0.348614185,0.220719898 0.511577148,0.133566352 C0.674540111,0.0464128056 0.83618323,3.00926524e-17 1.2819426,-5.17920154e-17 Z"/>
    <path id="会员-I" d="M82.0550847,29 C82.799265,29 83.4025424,29.8208113 83.4025424,30.8333332 L83.4025424,34.5 C83.4025424,35.5125217 82.799265,36.333333 82.0550847,36.333333 L46.3474576,36.333333 C45.6032773,36.333333 45,35.5125217 45,34.5 L45,30.8333332 C45,29.8208113 45.6032773,29 46.3474576,29 L82.0550847,29 Z M153.720339,15 C154.464519,15 155.067797,15.8208113 155.067797,16.8333332 L155.067797,20.5 C155.067797,21.5125217 154.464519,22.333333 153.720339,22.333333 L46.3474576,22.333333 C45.6032773,22.333333 45,21.5125217 45,20.5 L45,16.8333333 C45,15.8208113 45.6032773,15 46.3474576,15 L153.720339,15 Z"/>
    <filter id="会员-H" width="103.6%" height="118.8%" x="-2.7%" y="-4.7%" filterUnits="objectBoundingBox">
      <feOffset dx="-1" dy="1" in="SourceAlpha" result="shadowOffsetOuter1"/>
      <feGaussianBlur in="shadowOffsetOuter1" result="shadowBlurOuter1" stdDeviation=".5"/>
      <feColorMatrix in="shadowBlurOuter1" values="0 0 0 0 0   0 0 0 0 0   0 0 0 0 0  0 0 0 0.17692854 0"/>
    </filter>
    <path id="会员-K" d="M1.344,0 L176.656,0 C177.398271,1.56860988e-14 178,0.601729296 178,1.344 L178,51.656 C178,52.3982707 177.398271,53 176.656,53 L1.344,53 C0.601729296,53 8.30655233e-15,52.3982707 0,51.656 L0,1.344 C1.31142661e-16,0.601729296 0.601729296,1.02453134e-15 1.344,0 Z"/>
    <filter id="会员-J" width="102.2%" height="107.5%" x="-1.5%" y="-2.4%" filterUnits="objectBoundingBox">
      <feMorphology in="SourceAlpha" operator="dilate" radius=".5" result="shadowSpreadOuter1"/>
      <feOffset dx="-1" dy="1" in="shadowSpreadOuter1" result="shadowOffsetOuter1"/>
      <feGaussianBlur in="shadowOffsetOuter1" result="shadowBlurOuter1" stdDeviation=".25"/>
      <feComposite in="shadowBlurOuter1" in2="SourceAlpha" operator="out" result="shadowBlurOuter1"/>
      <feColorMatrix in="shadowBlurOuter1" values="0 0 0 0 0   0 0 0 0 0   0 0 0 0 0  0 0 0 0.0880408654 0"/>
    </filter>
    <path id="会员-L" d="M1.2819426,-5.17920154e-17 L20.7180574,5.17920154e-17 C21.1638168,-3.00926524e-17 21.3254599,0.0464128056 21.4884229,0.133566352 C21.6513858,0.220719898 21.7792801,0.348614185 21.8664336,0.511577148 C21.9535872,0.674540111 22,0.83618323 22,1.2819426 L22,20.7180574 C22,21.1638168 21.9535872,21.3254599 21.8664336,21.4884229 C21.7792801,21.6513858 21.6513858,21.7792801 21.4884229,21.8664336 C21.3254599,21.9535872 21.1638168,22 20.7180574,22 L1.2819426,22 C0.83618323,22 0.674540111,21.9535872 0.511577148,21.8664336 C0.348614185,21.7792801 0.220719898,21.6513858 0.133566352,21.4884229 C0.0464128056,21.3254599 2.00617683e-17,21.1638168 -3.45280103e-17,20.7180574 L3.45280103e-17,1.2819426 C-2.00617683e-17,0.83618323 0.0464128056,0.674540111 0.133566352,0.511577148 C0.220719898,0.348614185 0.348614185,0.220719898 0.511577148,0.133566352 C0.674540111,0.0464128056 0.83618323,3.00926524e-17 1.2819426,-5.17920154e-17 Z"/>
    <path id="会员-N" d="M83.0550847,29 C83.799265,29 84.4025424,29.8208113 84.4025424,30.8333332 L84.4025424,34.5 C84.4025424,35.5125217 83.799265,36.333333 83.0550847,36.333333 L47.3474576,36.333333 C46.6032773,36.333333 46,35.5125217 46,34.5 L46,30.8333332 C46,29.8208113 46.6032773,29 47.3474576,29 L83.0550847,29 Z M154.720339,15 C155.464519,15 156.067797,15.8208113 156.067797,16.8333332 L156.067797,20.5 C156.067797,21.5125217 155.464519,22.333333 154.720339,22.333333 L47.3474576,22.333333 C46.6032773,22.333333 46,21.5125217 46,20.5 L46,16.8333333 C46,15.8208113 46.6032773,15 47.3474576,15 L154.720339,15 Z"/>
    <filter id="会员-M" width="103.6%" height="118.8%" x="-2.7%" y="-4.7%" filterUnits="objectBoundingBox">
      <feOffset dx="-1" dy="1" in="SourceAlpha" result="shadowOffsetOuter1"/>
      <feGaussianBlur in="shadowOffsetOuter1" result="shadowBlurOuter1" stdDeviation=".5"/>
      <feColorMatrix in="shadowBlurOuter1" values="0 0 0 0 0   0 0 0 0 0   0 0 0 0 0  0 0 0 0.17692854 0"/>
    </filter>
    <linearGradient id="会员-Q" x1="87.072%" x2="87.072%" y1="0%" y2="107.127%">
      <stop offset="0%" stop-color="#FFE4B1"/>
      <stop offset="100%" stop-color="#E8BA63"/>
    </linearGradient>
    <path id="会员-P" d="M21.5540542,14.715625 C21.888076,14.715625 22.1588542,14.9864032 22.1588542,15.320425 L22.1586562,17.192625 L27.0216562,17.192625 L27.0223958,15.320425 C27.0223958,14.9864032 27.293174,14.715625 27.6271958,14.715625 L30.0652521,14.715625 C30.3992739,14.715625 30.6700521,14.9864032 30.6700521,15.320425 L30.6696562,17.192625 L34.5659137,17.1927083 C35.1003487,17.1927083 35.5335937,17.6259534 35.5335937,18.1603883 L35.5335937,34.8031533 C35.5335937,35.3375882 35.1003487,35.7708333 34.5659137,35.7708333 L14.6153362,35.7708333 C14.0809013,35.7708333 13.6476562,35.3375882 13.6476562,34.8031533 L13.6476562,18.1603883 C13.6476562,17.6259534 14.0809013,17.1927083 14.6153362,17.1927083 L18.5106562,17.192625 L18.5111979,15.320425 C18.5111979,14.9864032 18.7819761,14.715625 19.1159979,14.715625 L21.5540542,14.715625 Z"/>
    <filter id="会员-O" width="113.7%" height="114.2%" x="-10.3%" y="-3.6%" filterUnits="objectBoundingBox">
      <feOffset dx="-1" dy="1" in="SourceAlpha" result="shadowOffsetOuter1"/>
      <feGaussianBlur in="shadowOffsetOuter1" result="shadowBlurOuter1" stdDeviation=".25"/>
      <feColorMatrix in="shadowBlurOuter1" values="0 0 0 0 0.234884511   0 0 0 0 0.234884511   0 0 0 0 0.234884511  0 0 0 0.322170017 0"/>
    </filter>
    <path id="会员-S" d="M29.2121308,21.7374223 C29.4504899,21.5034234 29.8334118,21.506958 30.0674107,21.7453172 L30.0674107,21.7453172 L30.9394029,22.6335577 C31.170353,22.8688112 31.170353,23.2456892 30.9394029,23.4809427 L30.9394029,23.4809427 L24.0490849,30.4996517 L24.0490849,30.4996517 L24.0411901,30.5075466 C23.8028309,30.7415455 23.419909,30.7380108 23.1859101,30.4996517 L23.1859101,30.4996517 L22.3139179,29.6114112 C22.2882568,29.5852719 22.2654469,29.5573842 22.2454883,29.5281365 L19.7387813,26.9750628 C19.5078311,26.7398093 19.5078311,26.3629313 19.7387813,26.1276778 L19.7387813,26.1276778 L20.6107735,25.2394373 L20.6107735,25.2394373 L20.6186683,25.2315424 C20.8570275,24.9975435 21.2399494,25.0010782 21.4739483,25.2394373 L21.4739483,25.2394373 L23.6236573,27.4291981 L29.2042359,21.7453172 L29.2042359,21.7453172 Z"/>
    <filter id="会员-R" width="186.9%" height="209.6%" x="-43.4%" y="-43.8%" filterUnits="objectBoundingBox">
      <feOffset dy="1" in="SourceAlpha" result="shadowOffsetOuter1"/>
      <feGaussianBlur in="shadowOffsetOuter1" result="shadowBlurOuter1" stdDeviation="1.5"/>
      <feColorMatrix in="shadowBlurOuter1" values="0 0 0 0 0.782325634   0 0 0 0 0.616742971   0 0 0 0 0.301347422  0 0 0 0.603037587 0"/>
    </filter>
    <linearGradient id="会员-V" x1="87.072%" x2="87.072%" y1="0%" y2="107.127%">
      <stop offset="0%" stop-color="#FFE4B1"/>
      <stop offset="100%" stop-color="#E8BA63"/>
    </linearGradient>
    <path id="会员-U" d="M1.79562667,0.333333333 L14.7823695,0.333333333 C15.0817883,0.333333333 15.3689437,0.452276992 15.5806647,0.663998062 L20.1693353,5.25266861 C20.3810563,5.46438967 20.5,5.75154507 20.5,6.05096388 L20.5,21.37104 C20.5,21.9945474 19.9945474,22.5 19.37104,22.5 L1.79562667,22.5 C1.17211928,22.5 0.666666667,21.9945474 0.666666667,21.37104 L0.666666667,1.46229333 C0.666666667,0.838785942 1.17211928,0.333333333 1.79562667,0.333333333 Z"/>
    <filter id="会员-T" width="115.1%" height="113.5%" x="-11.3%" y="-3.4%" filterUnits="objectBoundingBox">
      <feOffset dx="-1" dy="1" in="SourceAlpha" result="shadowOffsetOuter1"/>
      <feGaussianBlur in="shadowOffsetOuter1" result="shadowBlurOuter1" stdDeviation=".25"/>
      <feColorMatrix in="shadowBlurOuter1" values="0 0 0 0 0.234884511   0 0 0 0 0.234884511   0 0 0 0 0.234884511  0 0 0 0.322170017 0"/>
    </filter>
    <path id="会员-X" d="M11.6277333,13.1666667 C12.0174255,13.1666667 12.3333333,13.4825745 12.3333333,13.8722667 L12.3333333,14.7944 C12.3333333,15.1840921 12.0174255,15.5 11.6277333,15.5 L6.03893333,15.5 C5.64924121,15.5 5.33333333,15.1840921 5.33333333,14.7944 L5.33333333,13.8722667 C5.33333333,13.4825745 5.64924121,13.1666667 6.03893333,13.1666667 L11.6277333,13.1666667 Z M15.1277333,7.33333333 C15.5174255,7.33333333 15.8333333,7.64924121 15.8333333,8.03893333 L15.8333333,8.96106667 C15.8333333,9.35075879 15.5174255,9.66666667 15.1277333,9.66666667 L6.03893333,9.66666667 C5.64924121,9.66666667 5.33333333,9.35075879 5.33333333,8.96106667 L5.33333333,8.03893333 C5.33333333,7.64924121 5.64924121,7.33333333 6.03893333,7.33333333 L15.1277333,7.33333333 Z"/>
    <filter id="会员-W" width="195.2%" height="222.4%" x="-47.6%" y="-49%" filterUnits="objectBoundingBox">
      <feOffset dy="1" in="SourceAlpha" result="shadowOffsetOuter1"/>
      <feGaussianBlur in="shadowOffsetOuter1" result="shadowBlurOuter1" stdDeviation="1.5"/>
      <feColorMatrix in="shadowBlurOuter1" values="0 0 0 0 0.782325634   0 0 0 0 0.616742971   0 0 0 0 0.301347422  0 0 0 0.603037587 0"/>
    </filter>
    <linearGradient id="会员-aa" x1="87.072%" x2="87.072%" y1="0%" y2="107.127%">
      <stop offset="0%" stop-color="#FFE4B1"/>
      <stop offset="100%" stop-color="#E8BA63"/>
    </linearGradient>
    <path id="会员-Z" d="M13.6476562,13.683305 L13.6476562,32.8031533 C13.6476562,33.3375882 14.0809013,33.7708333 14.6153362,33.7708333 L35.7817992,33.7708333 C36.3162341,33.7708333 36.7494792,33.3375882 36.7494792,32.8031533 L36.7494792,16.1603883 C36.7494792,15.6259534 36.3162341,15.1927083 35.7817992,15.1927083 L24.5477779,15.1927083 C24.3767537,15.1927083 24.2087845,15.1473826 24.0609766,15.0613471 L20.2567317,12.8469863 C20.1089238,12.7609508 19.9409546,12.715625 19.7699304,12.715625 L14.6153362,12.715625 C14.0809013,12.715625 13.6476562,13.1488701 13.6476562,13.683305 Z"/>
    <filter id="会员-Y" width="113%" height="114.2%" x="-9.7%" y="-3.6%" filterUnits="objectBoundingBox">
      <feOffset dx="-1" dy="1" in="SourceAlpha" result="shadowOffsetOuter1"/>
      <feGaussianBlur in="shadowOffsetOuter1" result="shadowBlurOuter1" stdDeviation=".25"/>
      <feColorMatrix in="shadowBlurOuter1" values="0 0 0 0 0.234884511   0 0 0 0 0.234884511   0 0 0 0 0.234884511  0 0 0 0.322170017 0"/>
    </filter>
    <path id="会员-ac" d="M20.3318833,20.146875 L30.0652521,20.146875 C30.3992739,20.146875 30.6700521,20.4176532 30.6700521,20.751675 L30.6700521,22.0191583 C30.6700521,22.3531802 30.3992739,22.6239583 30.0652521,22.6239583 L20.3318833,22.6239583 C19.9978615,22.6239583 19.7270833,22.3531802 19.7270833,22.0191583 L19.7270833,20.751675 C19.7270833,20.4176532 19.9978615,20.146875 20.3318833,20.146875 Z"/>
    <filter id="会员-ab" width="191.4%" height="503.7%" x="-45.7%" y="-161.5%" filterUnits="objectBoundingBox">
      <feOffset dy="1" in="SourceAlpha" result="shadowOffsetOuter1"/>
      <feGaussianBlur in="shadowOffsetOuter1" result="shadowBlurOuter1" stdDeviation="1.5"/>
      <feColorMatrix in="shadowBlurOuter1" values="0 0 0 0 0.782325634   0 0 0 0 0.616742971   0 0 0 0 0.301347422  0 0 0 0.603037587 0"/>
    </filter>
    <linearGradient id="会员-af" x1="87.072%" x2="87.072%" y1="0%" y2="107.127%">
      <stop offset="0%" stop-color="#FFE4B1"/>
      <stop offset="100%" stop-color="#E8BA63"/>
    </linearGradient>
    <path id="会员-ad" d="M12.5277708,0.477083333 L12.6534792,0.477083333 C19.3339155,0.477083333 24.7494792,5.892647 24.7494792,12.5730833 L24.7494792,13.1519167 C24.7494792,19.832353 19.3339155,25.2479167 12.6534792,25.2479167 L12.5277708,25.2479167 C5.8473345,25.2479167 0.431770833,19.832353 0.431770833,13.1519167 L0.431770833,12.5730833 C0.431770833,5.892647 5.8473345,0.477083333 12.5277708,0.477083333 Z"/>
    <filter id="会员-ae" width="112.3%" height="112.1%" x="-9.3%" y="-3%" filterUnits="objectBoundingBox">
      <feOffset dx="-1" dy="1" in="SourceAlpha" result="shadowOffsetOuter1"/>
      <feGaussianBlur in="shadowOffsetOuter1" result="shadowBlurOuter1" stdDeviation=".25"/>
      <feColorMatrix in="shadowBlurOuter1" values="0 0 0 0 0.234884511   0 0 0 0 0.234884511   0 0 0 0 0.234884511  0 0 0 0.322170017 0"/>
    </filter>
    <path id="会员-ai" d="M13.2026886,6.66542488 C13.5367104,6.66542488 13.8074886,6.93620306 13.8074886,7.27022488 L13.8071979,11.6234249 L18.0652521,11.6239583 C18.3992739,11.6239583 18.6700521,11.8947365 18.6700521,12.2287583 L18.6700521,13.5007962 C18.6700521,13.8348181 18.3992739,14.1055962 18.0652521,14.1055962 L13.8071979,14.1054249 L13.8074886,18.4460415 C13.8074886,18.7800634 13.5367104,19.0508415 13.2026886,19.0508415 L11.9805177,19.0508415 C11.6464959,19.0508415 11.3757177,18.7800634 11.3757177,18.4460415 L11.3751979,14.1054249 L7.11599792,14.1055962 C6.7819761,14.1055962 6.51119792,13.8348181 6.51119792,13.5007962 L6.51119792,12.2287583 C6.51119792,11.8947365 6.7819761,11.6239583 7.11599792,11.6239583 L11.3751979,11.6234249 L11.3757177,7.27022488 C11.3757177,6.93620306 11.6464959,6.66542488 11.9805177,6.66542488 L13.2026886,6.66542488 Z"/>
    <filter id="会员-ah" width="182.2%" height="180.7%" x="-41.1%" y="-32.3%" filterUnits="objectBoundingBox">
      <feOffset dy="1" in="SourceAlpha" result="shadowOffsetOuter1"/>
      <feGaussianBlur in="shadowOffsetOuter1" result="shadowBlurOuter1" stdDeviation="1.5"/>
      <feColorMatrix in="shadowBlurOuter1" values="0 0 0 0 0.782325634   0 0 0 0 0.616742971   0 0 0 0 0.301347422  0 0 0 0.603037587 0"/>
    </filter>
    <rect id="会员-ak" width="366" height="25" x="109" y="59" rx="12.5"/>
    <filter id="会员-aj" width="100.8%" height="112%" x="-.6%" y="-3%" filterUnits="objectBoundingBox">
      <feOffset dx="-1" dy="1" in="SourceAlpha" result="shadowOffsetOuter1"/>
      <feGaussianBlur in="shadowOffsetOuter1" result="shadowBlurOuter1" stdDeviation=".25"/>
      <feColorMatrix in="shadowBlurOuter1" values="0 0 0 0 0   0 0 0 0 0   0 0 0 0 0  0 0 0 0.13395979 0"/>
    </filter>
    <circle id="会员-al" cx="12" cy="12" r="12"/>
    <filter id="会员-am" width="112.5%" height="112.5%" x="-9.4%" y="-3.1%" filterUnits="objectBoundingBox">
      <feOffset dx="-1" dy="1" in="SourceAlpha" result="shadowOffsetOuter1"/>
      <feGaussianBlur in="shadowOffsetOuter1" result="shadowBlurOuter1" stdDeviation=".25"/>
      <feColorMatrix in="shadowBlurOuter1" values="0 0 0 0 0.234884511   0 0 0 0 0.234884511   0 0 0 0 0.234884511  0 0 0 0.322170017 0"/>
    </filter>
    <path id="会员-ap" d="M12,14 C17.5228475,14 22,18.4771525 22,24 C22,29.5228475 17.5228475,34 12,34 C6.4771525,34 2,29.5228475 2,24 C2,18.4771525 6.4771525,14 12,14 Z M12,4 C14.209139,4 16,5.790861 16,8 C16,10.209139 14.209139,12 12,12 C9.790861,12 8,10.209139 8,8 C8,5.790861 9.790861,4 12,4 Z"/>
    <filter id="会员-ao" width="120%" height="113.3%" x="-15%" y="-3.3%" filterUnits="objectBoundingBox">
      <feOffset dx="-1" dy="1" in="SourceAlpha" result="shadowOffsetOuter1"/>
      <feGaussianBlur in="shadowOffsetOuter1" result="shadowBlurOuter1" stdDeviation=".5"/>
      <feColorMatrix in="shadowBlurOuter1" values="0 0 0 0 0   0 0 0 0 0   0 0 0 0 0  0 0 0 0.180397727 0"/>
    </filter>
    <linearGradient id="会员-aq" x1="0%" x2="100%" y1="0%" y2="100%">
      <stop offset="0%" stop-color="#6FCAFF"/>
      <stop offset="100%" stop-color="#4192FF"/>
    </linearGradient>
    <linearGradient id="会员-ar" x1="0%" x2="100%" y1="0%" y2="100%">
      <stop offset="0%" stop-color="#FFA763"/>
      <stop offset="100%" stop-color="#FF6E41"/>
    </linearGradient>
    <linearGradient id="会员-as" x1=".359%" x2="99.093%" y1=".359%" y2="99.093%">
      <stop offset="0%" stop-color="#3AE191"/>
      <stop offset="100%" stop-color="#16B978"/>
    </linearGradient>
  </defs>
  <g fill="none" fill-rule="evenodd">
    <mask id="会员-c" fill="#fff">
      <use xlink:href="#会员-a"/>
    </mask>
    <use fill="url(#会员-b)" xlink:href="#会员-a"/>
    <g mask="url(#会员-c)">
      <use fill="#000" filter="url(#会员-d)" xlink:href="#会员-e"/>
      <use fill="url(#会员-f)" xlink:href="#会员-e"/>
    </g>
    <g mask="url(#会员-c)">
      <use fill="#000" filter="url(#会员-g)" xlink:href="#会员-h"/>
      <use fill="url(#会员-f)" xlink:href="#会员-h"/>
    </g>
    <g mask="url(#会员-c)">
      <g transform="translate(497 110)">
        <mask id="会员-k" fill="#fff">
          <use xlink:href="#会员-i"/>
        </mask>
        <use fill="#000" filter="url(#会员-j)" xlink:href="#会员-i"/>
        <rect width="137.44" height="77.44" x=".64" y=".28" fill="#FFF" stroke="#F4EFEA" stroke-linejoin="square" stroke-width=".56" rx="1.078"/>
        <g fill-opacity="0" mask="url(#会员-k)">
          <rect width="12.936" height="12.936" rx="2.156" transform="translate(122.19 4.312)"/>
        </g>
        <use fill="#000" filter="url(#会员-l)" xlink:href="#会员-m"/>
        <use fill="#FFF0D2" xlink:href="#会员-m"/>
      </g>
    </g>
    <g mask="url(#会员-c)">
      <g transform="translate(497 208)">
        <mask id="会员-p" fill="#fff">
          <use xlink:href="#会员-n"/>
        </mask>
        <use fill="#000" filter="url(#会员-o)" xlink:href="#会员-n"/>
        <rect width="137.44" height="77.44" x=".64" y=".28" fill="#FFF" stroke="#F4EFEA" stroke-linejoin="square" stroke-width=".56" rx="1.078"/>
        <g fill-opacity="0" mask="url(#会员-p)">
          <rect width="12.936" height="12.936" rx="2.156" transform="translate(122.19 4.312)"/>
        </g>
        <use fill="#000" filter="url(#会员-q)" xlink:href="#会员-r"/>
        <use fill="#FFF0D2" xlink:href="#会员-r"/>
      </g>
    </g>
    <rect width="659" height="36" fill="#333" mask="url(#会员-c)"/>
    <g transform="translate(110 197)">
      <use fill="#000" filter="url(#会员-s)" xlink:href="#会员-t"/>
      <use fill="#FFF0D2" xlink:href="#会员-t"/>
      <g opacity=".8" transform="translate(1.167 2.167)">
        <g fill-rule="nonzero">
          <use fill="#5598F2" xlink:href="#会员-u"/>
          <use fill="url(#会员-v)" xlink:href="#会员-u"/>
        </g>
        <polyline stroke="#FFF" stroke-linecap="round" stroke-linejoin="round" stroke-width="1.75" points="7 7 7 18.083 12.833 13.125 18.667 18.083 18.667 7"/>
      </g>
    </g>
    <g transform="translate(110 256)">
      <use fill="#000" filter="url(#会员-w)" xlink:href="#会员-x"/>
      <use fill="#FFF0D2" xlink:href="#会员-x"/>
      <g opacity=".8" transform="translate(1.167 1.167)">
        <use fill="#F88460" xlink:href="#会员-y"/>
        <use fill="url(#会员-z)" xlink:href="#会员-y"/>
        <path stroke="#FFF" stroke-linecap="round" stroke-linejoin="round" stroke-width="1.75" d="M7.05079267,7.00857594 L16.9166673,7.00195682 C18.5264171,7.00087682 19.8322527,8.30496136 19.8333327,9.91471116 C19.8333331,9.91536299 19.8333333,9.91601483 19.8333333,9.91666667 C19.8333333,11.5274972 18.5274972,12.8333333 16.9166667,12.8333333 L7,12.8333333 L7,12.8333333 L7,19.25"/>
      </g>
    </g>
    <g transform="translate(110 307)">
      <use fill="#000" filter="url(#会员-A)" xlink:href="#会员-B"/>
      <use fill="#FFF0D2" xlink:href="#会员-B"/>
      <g opacity=".8" transform="translate(1.167 2.167)">
        <use fill="#55D1A5" xlink:href="#会员-C"/>
        <use fill="url(#会员-D)" xlink:href="#会员-C"/>
        <path stroke="#FFF" stroke-linecap="round" stroke-width="1.75" d="M18.6966374,7 L9.33333333,7 C7.72250281,7 6.41666667,8.30583615 6.41666667,9.91666667 C6.41666667,11.5274972 7.72250281,12.8333333 9.33333333,12.8333333 L16.3333333,12.8333333 C17.9441639,12.8333333 19.25,14.1391695 19.25,15.75 C19.25,17.3608305 17.9441639,18.6666667 16.3333333,18.6666667 L7.00431851,18.6666667 L7.00431851,18.6666667"/>
      </g>
    </g>
    <g transform="translate(109 119)">
      <g fill-rule="nonzero">
        <use fill="#000" filter="url(#会员-E)" xlink:href="#会员-F"/>
        <use fill="#FFFCF7" stroke="#FEE3AF" xlink:href="#会员-F"/>
      </g>
      <g opacity=".8" transform="translate(12.106 14.333)">
        <g fill-rule="nonzero">
          <use fill="#5598F2" xlink:href="#会员-G"/>
          <use fill="url(#会员-v)" xlink:href="#会员-G"/>
        </g>
        <polyline stroke="#FFF" stroke-linecap="round" stroke-linejoin="round" stroke-width="1.5" points="6 6 6 15.5 11 11.25 16 15.5 16 6"/>
      </g>
      <use fill="#000" filter="url(#会员-H)" xlink:href="#会员-I"/>
      <use fill="#FFF0D2" xlink:href="#会员-I"/>
    </g>
    <g transform="translate(297 119)">
      <g fill-rule="nonzero">
        <use fill="#000" filter="url(#会员-J)" xlink:href="#会员-K"/>
        <use fill="#FFFCF7" stroke="#FEE3AF" xlink:href="#会员-K"/>
      </g>
      <g opacity=".8" transform="translate(14.106 14.333)">
        <g fill-rule="nonzero">
          <use fill="#5598F2" xlink:href="#会员-L"/>
          <use fill="url(#会员-v)" xlink:href="#会员-L"/>
        </g>
        <polyline stroke="#FFF" stroke-linecap="round" stroke-linejoin="round" stroke-width="1.5" points="6 6 6 15.5 11 11.25 16 15.5 16 6"/>
      </g>
      <use fill="#000" filter="url(#会员-M)" xlink:href="#会员-N"/>
      <use fill="#FFF0D2" xlink:href="#会员-N"/>
    </g>
    <g transform="translate(9 52)">
      <g transform="translate(8.113 199.45)">
        <use fill="#000" filter="url(#会员-O)" xlink:href="#会员-P"/>
        <use fill="url(#会员-Q)" xlink:href="#会员-P"/>
        <use fill="#000" filter="url(#会员-R)" xlink:href="#会员-S"/>
        <use fill="#FFF3DC" xlink:href="#会员-S"/>
      </g>
      <g transform="translate(0 133)">
        <rect width="64.4" height="57.4" fill="#FFF" fill-opacity=".1" rx="2.016"/>
        <g transform="translate(22.113 14.35)">
          <use fill="#000" filter="url(#会员-T)" xlink:href="#会员-U"/>
          <use fill="url(#会员-V)" xlink:href="#会员-U"/>
          <use fill="#000" filter="url(#会员-W)" xlink:href="#会员-X"/>
          <use fill="#FFF3DC" xlink:href="#会员-X"/>
        </g>
      </g>
      <g transform="translate(8.113 67.05)">
        <use fill="#000" filter="url(#会员-Y)" xlink:href="#会员-Z"/>
        <use fill="url(#会员-aa)" xlink:href="#会员-Z"/>
        <use fill="#000" filter="url(#会员-ab)" xlink:href="#会员-ac"/>
        <use fill="#FFF3DC" xlink:href="#会员-ac"/>
      </g>
      <g transform="translate(20.113 12.25)">
        <mask id="会员-ag" fill="#fff">
          <use xlink:href="#会员-ad"/>
        </mask>
        <use fill="#000" filter="url(#会员-ae)" xlink:href="#会员-ad"/>
        <use fill="url(#会员-af)" xlink:href="#会员-ad"/>
        <g mask="url(#会员-ag)">
          <use fill="#000" filter="url(#会员-ah)" xlink:href="#会员-ai"/>
          <use fill="#FFF3DC" xlink:href="#会员-ai"/>
        </g>
      </g>
    </g>
    <polygon fill="#FFEECD" points="86 59 87 59 87 382 86 382"/>
    <g fill-rule="nonzero">
      <use fill="#000" filter="url(#会员-aj)" xlink:href="#会员-ak"/>
      <use fill="#FCF1D1" xlink:href="#会员-ak"/>
    </g>
    <g transform="translate(611 59)">
      <mask id="会员-an" fill="#fff">
        <use xlink:href="#会员-al"/>
      </mask>
      <use fill="#000" filter="url(#会员-am)" xlink:href="#会员-al"/>
      <use fill="url(#会员-f)" xlink:href="#会员-al"/>
      <g mask="url(#会员-an)">
        <use fill="#000" filter="url(#会员-ao)" xlink:href="#会员-ap"/>
        <use fill="#FFF3DC" xlink:href="#会员-ap"/>
      </g>
    </g>
    <g transform="translate(7 7)">
      <path fill="#FFF" d="M2,0 L51,0 C52.1045695,-2.02906125e-16 53,0.8954305 53,2 L53,30 L53,30 L0,30 L0,2 C-1.3527075e-16,0.8954305 0.8954305,2.02906125e-16 2,0 Z"/>
      <g fill-rule="nonzero" transform="translate(15 4)">
        <rect width="22" height="22" x="1"/>
        <path fill="#EFC77A" stroke="#EFC77A" stroke-width=".5" d="M7.29806218,6 C7.56618581,6 7.81454182,6.12997792 7.96793274,6.3434025 L8.03636631,6.45685326 L9.416,9.224375 L8.493375,11.069625 L6.78670443,7.65 L2.16945443,7.65 L6.56532943,16.33175 L11.4907925,6.45685326 C11.6104396,6.21690566 11.8375847,6.05264951 12.0970303,6.01061607 L12.2290967,6 L18.7010794,6 C19.2752281,6 19.6608832,6.56533991 19.4837646,7.08689898 L19.4370603,7.19776954 L13.6915246,18.5415195 C13.4069599,19.1033524 12.6407503,19.1411936 12.290358,18.6577983 L12.2172881,18.536994 L10.113125,14.31875 L11.03575,12.4735 L12.9604544,16.33175 L17.3563294,7.65 L12.7390794,7.65 L7.30987075,18.536994 C7.02876075,19.1005633 6.26279792,19.143108 5.90944444,18.6618729 L5.83563425,18.5415195 L0.0900985365,7.19776954 C-0.169325871,6.68557263 0.160757654,6.08608626 0.706069073,6.00843118 L0.826079426,6 L7.29806218,6 Z"/>
      </g>
      <g transform="translate(58)">
        <path fill="#FFF" d="M2,0 L85,0 C86.1045695,-2.02906125e-16 87,0.8954305 87,2 L87,30 L87,30 L0,30 L0,2 C-1.3527075e-16,0.8954305 0.8954305,2.02906125e-16 2,0 Z" opacity=".14"/>
        <g transform="translate(11 9)">
          <g fill-rule="nonzero">
            <path fill="url(#会员-aq)" d="M1.2819426,-5.17920154e-17 L10.7180574,5.17920154e-17 C11.1638168,-3.00926524e-17 11.3254599,0.0464128056 11.4884229,0.133566352 C11.6513858,0.220719898 11.7792801,0.348614185 11.8664336,0.511577148 C11.9535872,0.674540111 12,0.83618323 12,1.2819426 L12,10.7180574 C12,11.1638168 11.9535872,11.3254599 11.8664336,11.4884229 C11.7792801,11.6513858 11.6513858,11.7792801 11.4884229,11.8664336 C11.3254599,11.9535872 11.1638168,12 10.7180574,12 L1.2819426,12 C0.83618323,12 0.674540111,11.9535872 0.511577148,11.8664336 C0.348614185,11.7792801 0.220719898,11.6513858 0.133566352,11.4884229 C0.0464128056,11.3254599 2.00617683e-17,11.1638168 -3.45280103e-17,10.7180574 L3.45280103e-17,1.2819426 C-2.00617683e-17,0.83618323 0.0464128056,0.674540111 0.133566352,0.511577148 C0.220719898,0.348614185 0.348614185,0.220719898 0.511577148,0.133566352 C0.674540111,0.0464128056 0.83618323,3.00926524e-17 1.2819426,-5.17920154e-17 Z"/>
            <path fill="#FFF" d="M8.25,7.63894664 L8.25,8.61320186 L8.89823285,8.34880939 L8.25,7.63894664 Z M3.10176715,8.34880939 L3.75,8.61320186 L3.75,7.63894664 L3.10176715,8.34880939 Z M6,6.30223594 L3.64823285,8.87759432 C3.41556178,9.13238629 3,8.96289256 3,8.61320186 L3,3.38602108 C3,2.87132631 3.75,2.87132631 3.75,3.38602108 L3.75,7.63894664 L5.72676715,5.4742409 C5.87485899,5.31206941 6.12514101,5.31206941 6.27323285,5.4742409 L8.25,7.63894664 L8.25,3.38602108 C8.25,2.87132631 9,2.87132631 9,3.38602108 L9,8.61320186 C9,8.96289256 8.58443822,9.13238629 8.35176715,8.87759432 L6,6.30223594 Z M8.25,7.63894664 L8.25,8.61320186 L8.89823285,8.34880939 L8.25,7.63894664 Z M3.10176715,8.34880939 L3.75,8.61320186 L3.75,7.63894664 L3.10176715,8.34880939 Z"/>
          </g>
          <path d="M1.2819426,-5.17920154e-17 L10.7180574,5.17920154e-17 C11.1638168,-3.00926524e-17 11.3254599,0.0464128056 11.4884229,0.133566352 C11.6513858,0.220719898 11.7792801,0.348614185 11.8664336,0.511577148 C11.9535872,0.674540111 12,0.83618323 12,1.2819426 L12,10.7180574 C12,11.1638168 11.9535872,11.3254599 11.8664336,11.4884229 C11.7792801,11.6513858 11.6513858,11.7792801 11.4884229,11.8664336 C11.3254599,11.9535872 11.1638168,12 10.7180574,12 L1.2819426,12 C0.83618323,12 0.674540111,11.9535872 0.511577148,11.8664336 C0.348614185,11.7792801 0.220719898,11.6513858 0.133566352,11.4884229 C0.0464128056,11.3254599 2.00617683e-17,11.1638168 -3.45280103e-17,10.7180574 L3.45280103e-17,1.2819426 C-2.00617683e-17,0.83618323 0.0464128056,0.674540111 0.133566352,0.511577148 C0.220719898,0.348614185 0.348614185,0.220719898 0.511577148,0.133566352 C0.674540111,0.0464128056 0.83618323,3.00926524e-17 1.2819426,-5.17920154e-17 Z"/>
          <path fill="#FFF" fill-opacity=".343" d="M19,4 L57,4 C57.5522847,4 58,4.44771525 58,5 L58,8 C58,8.55228475 57.5522847,9 57,9 L19,9 C18.4477153,9 18,8.55228475 18,8 L18,5 C18,4.44771525 18.4477153,4 19,4 Z"/>
        </g>
      </g>
      <g transform="translate(149)">
        <path fill="#FFF" d="M2,0 L85,0 C86.1045695,-2.02906125e-16 87,0.8954305 87,2 L87,30 L87,30 L0,30 L0,2 C-1.3527075e-16,0.8954305 0.8954305,2.02906125e-16 2,0 Z" opacity=".14"/>
        <g transform="translate(11 9)">
          <path d="M1.2819426,-5.17920154e-17 L10.7180574,5.17920154e-17 C11.1638168,-3.00926524e-17 11.3254599,0.0464128056 11.4884229,0.133566352 C11.6513858,0.220719898 11.7792801,0.348614185 11.8664336,0.511577148 C11.9535872,0.674540111 12,0.83618323 12,1.2819426 L12,10.7180574 C12,11.1638168 11.9535872,11.3254599 11.8664336,11.4884229 C11.7792801,11.6513858 11.6513858,11.7792801 11.4884229,11.8664336 C11.3254599,11.9535872 11.1638168,12 10.7180574,12 L1.2819426,12 C0.83618323,12 0.674540111,11.9535872 0.511577148,11.8664336 C0.348614185,11.7792801 0.220719898,11.6513858 0.133566352,11.4884229 C0.0464128056,11.3254599 2.00617683e-17,11.1638168 -3.45280103e-17,10.7180574 L3.45280103e-17,1.2819426 C-2.00617683e-17,0.83618323 0.0464128056,0.674540111 0.133566352,0.511577148 C0.220719898,0.348614185 0.348614185,0.220719898 0.511577148,0.133566352 C0.674540111,0.0464128056 0.83618323,3.00926524e-17 1.2819426,-5.17920154e-17 Z"/>
          <path d="M1.2819426,-5.17920154e-17 L10.7180574,5.17920154e-17 C11.1638168,-3.00926524e-17 11.3254599,0.0464128056 11.4884229,0.133566352 C11.6513858,0.220719898 11.7792801,0.348614185 11.8664336,0.511577148 C11.9535872,0.674540111 12,0.83618323 12,1.2819426 L12,10.7180574 C12,11.1638168 11.9535872,11.3254599 11.8664336,11.4884229 C11.7792801,11.6513858 11.6513858,11.7792801 11.4884229,11.8664336 C11.3254599,11.9535872 11.1638168,12 10.7180574,12 L1.2819426,12 C0.83618323,12 0.674540111,11.9535872 0.511577148,11.8664336 C0.348614185,11.7792801 0.220719898,11.6513858 0.133566352,11.4884229 C0.0464128056,11.3254599 2.00617683e-17,11.1638168 -3.45280103e-17,10.7180574 L3.45280103e-17,1.2819426 C-2.00617683e-17,0.83618323 0.0464128056,0.674540111 0.133566352,0.511577148 C0.220719898,0.348614185 0.348614185,0.220719898 0.511577148,0.133566352 C0.674540111,0.0464128056 0.83618323,3.00926524e-17 1.2819426,-5.17920154e-17 Z"/>
          <path fill="url(#会员-ar)" d="M1.2819426,-5.17920154e-17 L10.7180574,5.17920154e-17 C11.1638168,-3.00926524e-17 11.3254599,0.0464128056 11.4884229,0.133566352 C11.6513858,0.220719898 11.7792801,0.348614185 11.8664336,0.511577148 C11.9535872,0.674540111 12,0.83618323 12,1.2819426 L12,10.7180574 C12,11.1638168 11.9535872,11.3254599 11.8664336,11.4884229 C11.7792801,11.6513858 11.6513858,11.7792801 11.4884229,11.8664336 C11.3254599,11.9535872 11.1638168,12 10.7180574,12 L1.2819426,12 C0.83618323,12 0.674540111,11.9535872 0.511577148,11.8664336 C0.348614185,11.7792801 0.220719898,11.6513858 0.133566352,11.4884229 C0.0464128056,11.3254599 2.00617683e-17,11.1638168 -3.45280103e-17,10.7180574 L3.45280103e-17,1.2819426 C-2.00617683e-17,0.83618323 0.0464128056,0.674540111 0.133566352,0.511577148 C0.220719898,0.348614185 0.348614185,0.220719898 0.511577148,0.133566352 C0.674540111,0.0464128056 0.83618323,3.00926524e-17 1.2819426,-5.17920154e-17 Z"/>
          <path fill="#FFF" fill-rule="nonzero" d="M3.77542499,6.52941176 L3.77542499,8.64705882 C3.77542499,8.84198285 3.60184019,9 3.38771249,9 C3.1735848,9 3,8.84198285 3,8.64705882 L3,6.17647059 C3,5.98154656 3.1735848,5.82352941 3.38771249,5.82352941 L7.81143753,5.82352941 C8.45382062,5.82352941 8.97457501,5.34947797 8.97457501,4.76470588 C8.97457501,4.17993379 8.45382062,3.70588235 7.81143753,3.70588235 L3.38771249,3.70588235 C3.1735848,3.70588235 3,3.54786521 3,3.35294118 C3,3.15801715 3.1735848,3 3.38771249,3 L7.81143753,3 C8.88207602,3 9.75,3.79008574 9.75,4.76470588 C9.75,5.73932603 8.88207602,6.52941176 7.81143753,6.52941176 L3.77542499,6.52941176 Z"/>
          <rect width="40" height="5" x="18" y="4" fill="#FFF" fill-opacity=".343" rx="1"/>
        </g>
      </g>
      <g transform="translate(240)">
        <path fill="#FFF" d="M2,0 L85,0 C86.1045695,-2.02906125e-16 87,0.8954305 87,2 L87,30 L87,30 L0,30 L0,2 C-1.3527075e-16,0.8954305 0.8954305,2.02906125e-16 2,0 Z" opacity=".14"/>
        <g transform="translate(11 9)">
          <path d="M1.2819426,-5.17920154e-17 L10.7180574,5.17920154e-17 C11.1638168,-3.00926524e-17 11.3254599,0.0464128056 11.4884229,0.133566352 C11.6513858,0.220719898 11.7792801,0.348614185 11.8664336,0.511577148 C11.9535872,0.674540111 12,0.83618323 12,1.2819426 L12,10.7180574 C12,11.1638168 11.9535872,11.3254599 11.8664336,11.4884229 C11.7792801,11.6513858 11.6513858,11.7792801 11.4884229,11.8664336 C11.3254599,11.9535872 11.1638168,12 10.7180574,12 L1.2819426,12 C0.83618323,12 0.674540111,11.9535872 0.511577148,11.8664336 C0.348614185,11.7792801 0.220719898,11.6513858 0.133566352,11.4884229 C0.0464128056,11.3254599 2.00617683e-17,11.1638168 -3.45280103e-17,10.7180574 L3.45280103e-17,1.2819426 C-2.00617683e-17,0.83618323 0.0464128056,0.674540111 0.133566352,0.511577148 C0.220719898,0.348614185 0.348614185,0.220719898 0.511577148,0.133566352 C0.674540111,0.0464128056 0.83618323,3.00926524e-17 1.2819426,-5.17920154e-17 Z"/>
          <path d="M1.2819426,-5.17920154e-17 L10.7180574,5.17920154e-17 C11.1638168,-3.00926524e-17 11.3254599,0.0464128056 11.4884229,0.133566352 C11.6513858,0.220719898 11.7792801,0.348614185 11.8664336,0.511577148 C11.9535872,0.674540111 12,0.83618323 12,1.2819426 L12,10.7180574 C12,11.1638168 11.9535872,11.3254599 11.8664336,11.4884229 C11.7792801,11.6513858 11.6513858,11.7792801 11.4884229,11.8664336 C11.3254599,11.9535872 11.1638168,12 10.7180574,12 L1.2819426,12 C0.83618323,12 0.674540111,11.9535872 0.511577148,11.8664336 C0.348614185,11.7792801 0.220719898,11.6513858 0.133566352,11.4884229 C0.0464128056,11.3254599 2.00617683e-17,11.1638168 -3.45280103e-17,10.7180574 L3.45280103e-17,1.2819426 C-2.00617683e-17,0.83618323 0.0464128056,0.674540111 0.133566352,0.511577148 C0.220719898,0.348614185 0.348614185,0.220719898 0.511577148,0.133566352 C0.674540111,0.0464128056 0.83618323,3.00926524e-17 1.2819426,-5.17920154e-17 Z"/>
          <path fill="url(#会员-as)" d="M1.2819426,-5.17920154e-17 L10.7180574,5.17920154e-17 C11.1638168,-3.00926524e-17 11.3254599,0.0464128056 11.4884229,0.133566352 C11.6513858,0.220719898 11.7792801,0.348614185 11.8664336,0.511577148 C11.9535872,0.674540111 12,0.83618323 12,1.2819426 L12,10.7180574 C12,11.1638168 11.9535872,11.3254599 11.8664336,11.4884229 C11.7792801,11.6513858 11.6513858,11.7792801 11.4884229,11.8664336 C11.3254599,11.9535872 11.1638168,12 10.7180574,12 L1.2819426,12 C0.83618323,12 0.674540111,11.9535872 0.511577148,11.8664336 C0.348614185,11.7792801 0.220719898,11.6513858 0.133566352,11.4884229 C0.0464128056,11.3254599 2.00617683e-17,11.1638168 -3.45280103e-17,10.7180574 L3.45280103e-17,1.2819426 C-2.00617683e-17,0.83618323 0.0464128056,0.674540111 0.133566352,0.511577148 C0.220719898,0.348614185 0.348614185,0.220719898 0.511577148,0.133566352 C0.674540111,0.0464128056 0.83618323,3.00926524e-17 1.2819426,-5.17920154e-17 Z"/>
          <path fill="#FFF" fill-rule="nonzero" d="M8.4375,3 C8.64460678,3 8.8125,3.16789322 8.8125,3.375 C8.8125,3.58210678 8.64460678,3.75 8.4375,3.75 L4.6875,3.75 C4.16973305,3.75 3.75,4.16973305 3.75,4.6875 C3.75,5.20526695 4.16973305,5.625 4.6875,5.625 L7.3125,5.625 C8.24448052,5.625 9,6.38051948 9,7.3125 C9,8.24448052 8.24448052,9 7.3125,9 L3.5625,9 C3.35539322,9 3.1875,8.83210678 3.1875,8.625 C3.1875,8.41789322 3.35539322,8.25 3.5625,8.25 L7.3125,8.25 C7.83026695,8.25 8.25,7.83026695 8.25,7.3125 C8.25,6.79473305 7.83026695,6.375 7.3125,6.375 L4.6875,6.375 C3.75551948,6.375 3,5.61948052 3,4.6875 C3,3.75551948 3.75551948,3 4.6875,3 L8.4375,3 Z"/>
          <rect width="40" height="5" x="18" y="4" fill="#FFF" fill-opacity=".343" rx="1"/>
        </g>
      </g>
    </g>
  </g>
</svg>
