<svg xmlns="http://www.w3.org/2000/svg" xmlns:xlink="http://www.w3.org/1999/xlink" viewBox="0 0 218 255">
  <defs>
    <path id="思维导图-b" d="M93.6264829,199.588091 C93.6264829,202.09739 95.5837568,204.145553 98.0422979,204.263862 L98.267142,204.269261 L127.749292,204.269261 L127.749292,208.95043 L98.267142,208.95043 C93.232746,208.95043 89.13454,204.907134 88.9897809,199.864137 L88.9858238,199.588091 L88.9855056,167.014797 L79.7045056,167.014955 L79.7045056,162.333785 L88.9855056,162.332797 L88.9858238,131.711136 C88.9858238,126.632792 92.9941299,122.498812 97.9934852,122.352789 L98.267142,122.348797 L129.6829,122.348797 L129.6829,127.029966 L98.267142,127.029966 C95.7795581,127.029966 93.74912,129.004326 93.6318343,131.484329 L93.6264829,131.711136 L93.6255056,162.332797 L131.061491,162.333785 L131.061491,167.014955 L93.6255056,167.014797 L93.6264829,199.588091 Z"/>
    <filter id="思维导图-a" width="107.8%" height="104.6%" x="-5.8%" y="-1.2%" filterUnits="objectBoundingBox">
      <feOffset dx="-1" dy="1" in="SourceAlpha" result="shadowOffsetOuter1"/>
      <feGaussianBlur in="shadowOffsetOuter1" result="shadowBlurOuter1" stdDeviation=".5"/>
      <feColorMatrix in="shadowBlurOuter1" values="0 0 0 0 0.395550272   0 0 0 0 0.395550272   0 0 0 0 0.395550272  0 0 0 0.518056163 0"/>
    </filter>
    <path id="思维导图-d" d="M75.2909547,151.28951 C77.85392,151.28951 79.9316138,153.385341 79.9316138,155.970679 L79.9316138,175.865649 C79.9316138,178.450987 77.85392,180.546818 75.2909547,180.546818 L40.0992899,180.546818 C37.5363246,180.546818 35.4586308,178.450987 35.4586308,175.865649 L35.4586308,155.970679 C35.4586308,153.385341 37.5363246,151.28951 40.0992899,151.28951 L75.2909547,151.28951 Z M75.2909547,155.970679 L40.0992899,155.970679 L40.0992899,175.865649 L75.2909547,175.865649 L75.2909547,155.970679 Z"/>
    <filter id="思维导图-c" width="109%" height="113.7%" x="-6.7%" y="-3.4%" filterUnits="objectBoundingBox">
      <feOffset dx="-1" dy="1" in="SourceAlpha" result="shadowOffsetOuter1"/>
      <feGaussianBlur in="shadowOffsetOuter1" result="shadowBlurOuter1" stdDeviation=".5"/>
      <feColorMatrix in="shadowBlurOuter1" values="0 0 0 0 0.395550272   0 0 0 0 0.395550272   0 0 0 0 0.395550272  0 0 0 0.518056163 0"/>
    </filter>
    <path id="思维导图-f" d="M167.563426,192.679637 C170.126391,192.679637 172.204085,194.775468 172.204085,197.360807 L172.204085,213.354802 C172.204085,215.94014 170.126391,218.035971 167.563426,218.035971 L132.371761,218.035971 C129.808796,218.035971 127.731102,215.94014 127.731102,213.354802 L127.731102,197.360807 C127.731102,194.775468 129.808796,192.679637 132.371761,192.679637 L167.563426,192.679637 Z M167.563426,197.360807 L132.371761,197.360807 L132.371761,213.354802 L167.563426,213.354802 L167.563426,197.360807 Z M167.563426,151.327651 C170.126391,151.327651 172.204085,153.423481 172.204085,156.00882 L172.204085,172.002815 C172.204085,174.588154 170.126391,176.683985 167.563426,176.683985 L132.371761,176.683985 C129.808796,176.683985 127.731102,174.588154 127.731102,172.002815 L127.731102,156.00882 C127.731102,153.423481 129.808796,151.327651 132.371761,151.327651 L167.563426,151.327651 Z M167.563426,156.00882 L132.371761,156.00882 L132.371761,172.002815 L167.563426,172.002815 L167.563426,156.00882 Z M167.563426,111.035971 C170.126391,111.035971 172.204085,113.131802 172.204085,115.717141 L172.204085,131.711136 C172.204085,134.296474 170.126391,136.392305 167.563426,136.392305 L132.371761,136.392305 C129.808796,136.392305 127.731102,134.296474 127.731102,131.711136 L127.731102,115.717141 C127.731102,113.131802 129.808796,111.035971 132.371761,111.035971 L167.563426,111.035971 Z M167.563426,115.717141 L132.371761,115.717141 L132.371761,131.711136 L167.563426,131.711136 L167.563426,115.717141 Z"/>
    <filter id="思维导图-e" width="109%" height="103.7%" x="-6.7%" y="-.9%" filterUnits="objectBoundingBox">
      <feOffset dx="-1" dy="1" in="SourceAlpha" result="shadowOffsetOuter1"/>
      <feGaussianBlur in="shadowOffsetOuter1" result="shadowBlurOuter1" stdDeviation=".5"/>
      <feColorMatrix in="shadowBlurOuter1" values="0 0 0 0 0.395550272   0 0 0 0 0.395550272   0 0 0 0 0.395550272  0 0 0 0.518056163 0"/>
    </filter>
    <path id="思维导图-i" d="M3.8458278,-1.55376046e-16 L50.1541722,-2.09836195e-15 C51.4914503,1.21920872e-15 51.9763797,0.139238417 52.4652686,0.400699056 C52.9541574,0.662159695 53.3378403,1.04584256 53.5993009,1.53473144 C53.8607616,2.02362033 54,2.50854969 54,3.8458278 L54,50.1541722 C54,51.4914503 53.8607616,51.9763797 53.5993009,52.4652686 C53.3378403,52.9541574 52.9541574,53.3378403 52.4652686,53.5993009 C51.9763797,53.8607616 51.4914503,54 50.1541722,54 L3.8458278,54 C2.50854969,54 2.02362033,53.8607616 1.53473144,53.5993009 C1.04584256,53.3378403 0.662159695,52.9541574 0.400699056,52.4652686 C0.139238417,51.9763797 1.1514242e-15,51.4914503 -1.98169903e-15,50.1541722 L1.03584031e-16,3.8458278 C-6.01853049e-17,2.50854969 0.139238417,2.02362033 0.400699056,1.53473144 C0.662159695,1.04584256 1.04584256,0.662159695 1.53473144,0.400699056 C2.02362033,0.139238417 2.50854969,9.02779573e-17 3.8458278,-1.55376046e-16 Z"/>
    <filter id="思维导图-g" width="105.9%" height="105.9%" x="-4.8%" y="-1.1%" filterUnits="objectBoundingBox">
      <feGaussianBlur in="SourceGraphic" stdDeviation=".194"/>
    </filter>
    <filter id="思维导图-h" width="109.6%" height="109.6%" x="-6.6%" y="-2.9%" filterUnits="objectBoundingBox">
      <feOffset dx="-1" dy="1" in="SourceAlpha" result="shadowOffsetOuter1"/>
      <feGaussianBlur in="shadowOffsetOuter1" result="shadowBlurOuter1" stdDeviation=".5"/>
      <feColorMatrix in="shadowBlurOuter1" values="0 0 0 0 0   0 0 0 0 0   0 0 0 0 0  0 0 0 0.167640953 0"/>
    </filter>
    <path id="思维导图-k" d="M35.9245877,11 C39.0705841,11 41.6209181,13.5737316 41.6209181,16.7485903 C41.6209181,19.9234491 39.0705841,22.4971806 35.9245877,22.4971806 L33.6460555,22.4971806 C30.9715125,22.4971806 28.7274791,20.6370391 28.114969,18.1287881 L26.8104591,18.128252 C24.8100224,18.128252 23.126484,19.4975022 22.629898,21.3579661 C24.4644357,22.5957727 25.671193,24.7036933 25.671193,27.0960529 C25.671193,29.4884125 24.4644357,31.596333 22.631709,32.8336984 C23.1262142,34.6943842 24.8098622,36.0638538 26.8104591,36.0638538 L26.8104591,36.0638538 L28.114969,36.0633177 C28.7274791,33.5550667 30.9715125,31.6949251 33.6460555,31.6949251 L35.9245877,31.6949251 C39.0705841,31.6949251 41.6209181,34.2686567 41.6209181,37.4435155 C41.6209181,40.6183742 39.0705841,43.1921058 35.9245877,43.1921058 L33.6460555,43.1921058 C30.9715125,43.1921058 28.7274791,41.3319642 28.114969,38.8237132 L26.8104591,38.8231771 C23.6642859,38.8231771 20.9985397,36.747354 20.084683,33.8788352 C19.6803672,33.954858 19.2625531,33.9943613 18.8355965,33.9943613 C15.0604008,33.9943613 12,30.9058834 12,27.0960529 C12,23.2862224 15.0604008,20.1977445 18.8355965,20.1977445 C19.2625531,20.1977445 19.6803672,20.2372478 20.0856456,20.3128302 C20.9985397,17.4447518 23.6642859,15.3689286 26.8104591,15.3689286 L26.8104591,15.3689286 L28.1151047,15.3678369 C28.7278105,12.8598668 30.97171,11 33.6460555,11 L35.9245877,11 Z M35.9245877,34.4542485 L33.6460555,34.4542485 C32.0101374,34.4542485 30.6839637,35.7925889 30.6839637,37.4435155 C30.6839637,39.094442 32.0101374,40.4327824 33.6460555,40.4327824 L35.9245877,40.4327824 C37.5605058,40.4327824 38.8866795,39.094442 38.8866795,37.4435155 C38.8866795,35.7925889 37.5605058,34.4542485 35.9245877,34.4542485 Z M18.8355965,22.9570679 C16.5704791,22.9570679 14.7342386,24.8101546 14.7342386,27.0960529 C14.7342386,29.3819512 16.5704791,31.2350379 18.8355965,31.2350379 C21.1007139,31.2350379 22.9369544,29.3819512 22.9369544,27.0960529 C22.9369544,24.8101546 21.1007139,22.9570679 18.8355965,22.9570679 Z M35.9245877,13.7593234 L33.6460555,13.7593234 C32.0101374,13.7593234 30.6839637,15.0976638 30.6839637,16.7485903 C30.6839637,18.3995169 32.0101374,19.7378573 33.6460555,19.7378573 L35.9245877,19.7378573 C37.5605058,19.7378573 38.8866795,18.3995169 38.8866795,16.7485903 C38.8866795,15.0976638 37.5605058,13.7593234 35.9245877,13.7593234 Z"/>
    <filter id="思维导图-j" width="113.5%" height="112.4%" x="-6.8%" y="-3.1%" filterUnits="objectBoundingBox">
      <feOffset dy="1" in="SourceAlpha" result="shadowOffsetOuter1"/>
      <feGaussianBlur in="shadowOffsetOuter1" result="shadowBlurOuter1" stdDeviation=".5"/>
      <feColorMatrix in="shadowBlurOuter1" values="0 0 0 0 0.168088604   0 0 0 0 0.600373641   0 0 0 0 0.481647469  0 0 0 0.914936626 0"/>
    </filter>
    <path id="思维导图-m" d="M168.553542,64.5819561 C171.093429,64.5819561 173.152414,66.6409413 173.152414,69.1808283 C173.152414,71.7207153 171.093429,73.7797006 168.553542,73.7797006 L108.483909,73.7797006 C105.944022,73.7797006 103.885036,71.7207153 103.885036,69.1808283 C103.885036,66.6409413 105.944022,64.5819561 108.483909,64.5819561 L168.553542,64.5819561 Z M168.553542,38.1491736 C171.093429,38.1491736 173.152414,40.2081589 173.152414,42.7480459 C173.152414,45.2879329 171.093429,47.3469181 168.553542,47.3469181 L108.483909,47.3469181 C105.944022,47.3469181 103.885036,45.2879329 103.885036,42.7480459 C103.885036,40.2081589 105.944022,38.1491736 108.483909,38.1491736 L168.553542,38.1491736 Z"/>
    <filter id="思维导图-l" width="105.8%" height="111.2%" x="-4.3%" y="-2.8%" filterUnits="objectBoundingBox">
      <feOffset dx="-1" dy="1" in="SourceAlpha" result="shadowOffsetOuter1"/>
      <feGaussianBlur in="shadowOffsetOuter1" result="shadowBlurOuter1" stdDeviation=".5"/>
      <feColorMatrix in="shadowBlurOuter1" values="0 0 0 0 0.395550272   0 0 0 0 0.395550272   0 0 0 0 0.395550272  0 0 0 0.518056163 0"/>
    </filter>
  </defs>
  <g fill="none" fill-rule="evenodd">
    <rect width="218" height="255" fill="#FFF" rx="4"/>
    <use fill="#000" filter="url(#思维导图-a)" xlink:href="#思维导图-b"/>
    <use fill="#DFE8F3" xlink:href="#思维导图-b"/>
    <use fill="#000" filter="url(#思维导图-c)" xlink:href="#思维导图-d"/>
    <use fill="#3DCBA4" xlink:href="#思维导图-d"/>
    <use fill="#000" filter="url(#思维导图-e)" xlink:href="#思维导图-f"/>
    <use fill="#3DCBA4" xlink:href="#思维导图-f"/>
    <g fill-rule="nonzero" transform="translate(34.72 28.574)">
      <g filter="url(#思维导图-g)">
        <use fill="#000" filter="url(#思维导图-h)" xlink:href="#思维导图-i"/>
        <use fill="#3DCBA4" xlink:href="#思维导图-i"/>
      </g>
      <use fill="#000" filter="url(#思维导图-j)" xlink:href="#思维导图-k"/>
      <use fill="#FFF" xlink:href="#思维导图-k"/>
    </g>
    <use fill="#000" filter="url(#思维导图-l)" xlink:href="#思维导图-m"/>
    <use fill="#DFE8F3" xlink:href="#思维导图-m"/>
  </g>
</svg>
