<svg xmlns="http://www.w3.org/2000/svg" xmlns:xlink="http://www.w3.org/1999/xlink" viewBox="0 0 967 626">
  <defs>
    <linearGradient id="云底纹-a" x1="72.972%" x2="50%" y1="25.797%" y2="100%">
      <stop offset="0%" stop-color="#FFF"/>
      <stop offset="100%" stop-color="#ECF5FF"/>
    </linearGradient>
    <linearGradient id="云底纹-b" x1="31.729%" x2="31.729%" y1="1.259%" y2="100%">
      <stop offset=".034%" stop-color="#F7FAFF"/>
      <stop offset="100%" stop-color="#FFF"/>
    </linearGradient>
    <path id="云底纹-c" d="M385.578422,0.92 C490.433531,0.92 581.057812,61.8494169 623.977671,150.234656 L625.261352,152.92307 L813.776305,539.144825 C823.054163,558.514603 842.848854,571.910271 865.772272,571.910271 C884.093014,571.910271 900.415299,563.353857 910.960982,550.019172 L910.989185,550.042685 C893.714008,571.799232 872.052628,590.158727 847.250084,602.747299 L845.192508,603.769067 C819.849616,616.507173 791.878677,623.141261 763.514588,623.141261 L614.923404,623.141261 C557.787086,621.092172 508.51217,587.369518 483.827432,539.428337 L482.976299,537.750043 L482.913587,537.771101 L395.133227,357.963172 C360.935119,287.488204 288.695372,238.91649 205.111093,238.91649 C175.169404,238.91649 146.683476,245.149342 120.88,256.388354 C125.825988,114.458085 242.443085,0.92 385.578422,0.92 Z"/>
    <filter id="云底纹-d" width="104.9%" height="106.3%" x="-2.5%" y="-3.1%" filterUnits="objectBoundingBox">
      <feGaussianBlur in="SourceAlpha" result="shadowBlurInner1" stdDeviation="18"/>
      <feOffset dy="-3" in="shadowBlurInner1" result="shadowOffsetInner1"/>
      <feComposite in="shadowOffsetInner1" in2="SourceAlpha" k2="-1" k3="1" operator="arithmetic" result="shadowInnerInner1"/>
      <feColorMatrix in="shadowInnerInner1" values="0 0 0 0 0.968627451   0 0 0 0 0.980392157   0 0 0 0 1  0 0 0 1 0"/>
    </filter>
    <linearGradient id="云底纹-h" x1="31.729%" x2="31.729%" y1="0%" y2="100%">
      <stop offset=".034%" stop-color="#F3F8FF"/>
      <stop offset="100%" stop-color="#FDFEFF"/>
    </linearGradient>
    <path id="云底纹-g" d="M231.531743,218.831221 L235.426833,219.407052 L238.77967,219.965027 C241.46249,220.4347 244.128627,220.957444 246.775486,221.531887 L250.800596,222.448739 L253.507441,223.114409 L257.283916,224.110008 L261.498772,225.314578 L264.955515,226.377291 L268.634108,227.583605 L271.545763,228.594488 L274.12885,229.53346 L276.354764,230.374861 L277.956048,230.998853 L281.187189,232.306329 C282.441081,232.826396 283.687508,233.358198 284.927448,233.902053 L286.935319,234.795816 L290.113165,236.264518 L293.178502,237.745395 L296.086829,239.21007 L298.450445,240.44418 L301.400472,242.040818 L303.522138,243.228662 L306.621922,245.025111 L309.505669,246.763108 L311.022121,247.703527 L312.529928,248.657052 C313.457663,249.249484 314.378573,249.848148 315.294277,250.454048 C317.231503,251.73587 319.145276,253.049966 321.034927,254.395633 L323.708075,256.332139 L326.370608,258.327903 L328.262871,259.788247 L331.108312,262.052173 L333.733194,264.215723 L336.142789,266.267903 L338.987127,268.775327 L341.559253,271.125654 L342.369431,271.882887 C343.71987,273.152015 345.050341,274.436907 346.36308,275.73964 C347.468623,276.836744 348.562272,277.947211 349.643093,279.070111 L351.598775,281.13046 L353.73474,283.447998 L355.950017,285.92956 L358.133017,288.456958 L360.27432,291.019795 L362.671659,293.993761 L364.725041,296.634822 L366.741797,299.318837 L368.715166,302.037422 L370.230634,304.191278 C375.443836,311.703457 380.162101,319.585026 384.338242,327.788799 L386.094687,331.324291 L487.40411,538.849597 L487.43471,538.806347 C503.181552,571.846776 526.788384,601.214196 555.76,623 L194.633756,623 L194.633505,622.862796 C86.865197,618.149555 0.88,528.537514 0.88,419.612397 C0.88,343.192808 43.1728365,276.650807 105.630226,242.113703 L108.09261,240.774271 C109.200116,240.181743 110.314002,239.599081 111.433916,239.02653 C112.555433,238.453173 113.681239,237.890812 114.812951,237.33868 L117.086311,236.247096 L119.374487,235.1834 L122.4986,233.786738 L125.648962,232.44207 L129.007566,231.077507 L131.609171,230.068494 L134.144534,229.124791 L137.422223,227.961807 L140.675357,226.870069 L143.662572,225.921537 L146.268419,225.135678 L149.146721,224.312086 L152.265574,223.471642 L154.286528,222.955589 L157.098122,222.274573 L160.525544,221.501899 L163.131994,220.956144 L165.036539,220.580005 L167.936892,220.043636 L169.525251,219.768415 L172.212786,219.332369 L174.504038,218.989854 L177.64547,218.563665 L180.829856,218.182526 L184.187203,217.835738 L187.156051,217.575832 L190.361719,217.344156 C192.157674,217.228556 193.958864,217.136388 195.766113,217.06788 L199.664327,216.957086 L203.58131,216.92 C205.470102,216.92 207.35286,216.945833 209.22925,216.997164 L212.039018,217.093243 L215.960797,217.291811 L219.61583,217.544878 L221.964957,217.742366 L225.854669,218.129702 L227.933214,218.367706 C229.135992,218.51171 230.335533,218.666247 231.531743,218.831221 Z"/>
    <filter id="云底纹-e" width="135%" height="147.8%" x="-17.5%" y="-26.3%" filterUnits="objectBoundingBox">
      <feGaussianBlur in="SourceGraphic"/>
    </filter>
    <filter id="云底纹-f" width="154.2%" height="174.1%" x="-27.1%" y="-39.5%" filterUnits="objectBoundingBox">
      <feOffset dy="-10" in="SourceAlpha" result="shadowOffsetOuter1"/>
      <feGaussianBlur in="shadowOffsetOuter1" result="shadowBlurOuter1" stdDeviation="48.5"/>
      <feColorMatrix in="shadowBlurOuter1" values="0 0 0 0 1   0 0 0 0 1   0 0 0 0 1  0 0 0 1 0"/>
    </filter>
    <filter id="云底纹-i" width="139.3%" height="153.7%" x="-19.6%" y="-29.3%" filterUnits="objectBoundingBox">
      <feGaussianBlur in="SourceAlpha" result="shadowBlurInner1" stdDeviation="6"/>
      <feOffset dy="-12" in="shadowBlurInner1" result="shadowOffsetInner1"/>
      <feComposite in="shadowOffsetInner1" in2="SourceAlpha" k2="-1" k3="1" operator="arithmetic" result="shadowInnerInner1"/>
      <feColorMatrix in="shadowInnerInner1" values="0 0 0 0 0.97254902   0 0 0 0 0.984313725   0 0 0 0 1  0 0 0 0.361150568 0"/>
    </filter>
    <linearGradient id="云底纹-j" x1="70.669%" x2="24.36%" y1="31.788%" y2="61.868%">
      <stop offset="0%" stop-color="#FFF"/>
      <stop offset="0%" stop-color="#FFF"/>
      <stop offset="43.133%" stop-color="#FFF"/>
      <stop offset="91.788%" stop-color="#F5F9FF"/>
      <stop offset="100%" stop-color="#EEF5FF"/>
    </linearGradient>
  </defs>
  <g fill="none" fill-rule="evenodd">
    <path fill="url(#云底纹-a)" d="M701.68,401.24 C762.8,316.44 815.28,274.04 859.12,274.04 C902.96,274.04 938.48,324.6 965.68,425.72 C944.56,512.44 914.8,559.16 876.4,565.88 C838,572.6 792.24,551.8 739.12,503.48 L701.68,401.24 Z"/>
    <use fill="url(#云底纹-b)" xlink:href="#云底纹-c"/>
    <use fill="#000" filter="url(#云底纹-d)" xlink:href="#云底纹-c"/>
    <g filter="url(#云底纹-e)">
      <use fill="#000" filter="url(#云底纹-f)" xlink:href="#云底纹-g"/>
      <use fill="url(#云底纹-h)" xlink:href="#云底纹-g"/>
      <use fill="#000" filter="url(#云底纹-i)" xlink:href="#云底纹-g"/>
    </g>
    <path fill="url(#云底纹-j)" d="M396.4,371.96 L490.48,540.44 C519.28,593.56 551.92,621.08 588.4,623 C624.88,624.92 696.4,624.92 802.96,623 C754.591304,486.829388 705.151304,403.149388 654.64,371.96 C604.128696,340.770612 518.048696,340.770612 396.4,371.96 Z"/>
  </g>
</svg>
