<svg xmlns="http://www.w3.org/2000/svg" xmlns:xlink="http://www.w3.org/1999/xlink" viewBox="0 0 218 255">
  <defs>
    <path id="pdf-b" d="M3.8458278,-1.55376046e-16 L51.1541722,2.40911404e-15 C52.4914503,-1.39976464e-15 52.9763797,0.139238417 53.4652686,0.400699056 C53.9541574,0.662159695 54.3378403,1.04584256 54.5993009,1.53473144 C54.8607616,2.02362033 55,2.50854969 55,3.8458278 L55,51.1541722 C55,52.4914503 54.8607616,52.9763797 54.5993009,53.4652686 C54.3378403,53.9541574 53.9541574,54.3378403 53.4652686,54.5993009 C52.9763797,54.8607616 52.4914503,55 51.1541722,55 L3.8458278,55 C2.50854969,55 2.02362033,54.8607616 1.53473144,54.5993009 C1.04584256,54.3378403 0.662159695,53.9541574 0.400699056,53.4652686 C0.139238417,52.9763797 6.01853049e-17,52.4914503 -1.03584031e-16,51.1541722 L1.03584031e-16,3.8458278 C-6.01853049e-17,2.50854969 0.139238417,2.02362033 0.400699056,1.53473144 C0.662159695,1.04584256 1.04584256,0.662159695 1.53473144,0.400699056 C2.02362033,0.139238417 2.50854969,9.02779573e-17 3.8458278,-1.55376046e-16 Z"/>
    <filter id="pdf-a" width="107.3%" height="107.3%" x="-5.5%" y="-1.8%" filterUnits="objectBoundingBox">
      <feOffset dx="-1" dy="1" in="SourceAlpha" result="shadowOffsetOuter1"/>
      <feGaussianBlur in="shadowOffsetOuter1" result="shadowBlurOuter1" stdDeviation=".5"/>
      <feColorMatrix in="shadowBlurOuter1" values="0 0 0 0 0.395550272   0 0 0 0 0.395550272   0 0 0 0 0.395550272  0 0 0 0.518056163 0"/>
    </filter>
    <path id="pdf-d" d="M41,140 L103.09009,140 C105.299229,140 107.09009,141.790861 107.09009,144 C107.09009,146.209139 105.299229,148 103.09009,148 L41,148 C38.790861,148 37,146.209139 37,144 C37,141.790861 38.790861,140 41,140 Z"/>
    <filter id="pdf-c" width="105.7%" height="150%" x="-4.3%" y="-12.5%" filterUnits="objectBoundingBox">
      <feOffset dx="-1" dy="1" in="SourceAlpha" result="shadowOffsetOuter1"/>
      <feGaussianBlur in="shadowOffsetOuter1" result="shadowBlurOuter1" stdDeviation=".5"/>
      <feColorMatrix in="shadowBlurOuter1" values="0 0 0 0 0.395550272   0 0 0 0 0.395550272   0 0 0 0 0.395550272  0 0 0 0.518056163 0"/>
    </filter>
    <path id="pdf-f" d="M41,168 L173.865225,168 C176.074364,168 177.865225,169.790861 177.865225,172 C177.865225,174.209139 176.074364,176 173.865225,176 L41,176 C38.790861,176 37,174.209139 37,172 C37,169.790861 38.790861,168 41,168 Z"/>
    <filter id="pdf-e" width="102.8%" height="150%" x="-2.1%" y="-12.5%" filterUnits="objectBoundingBox">
      <feOffset dx="-1" dy="1" in="SourceAlpha" result="shadowOffsetOuter1"/>
      <feGaussianBlur in="shadowOffsetOuter1" result="shadowBlurOuter1" stdDeviation=".5"/>
      <feColorMatrix in="shadowBlurOuter1" values="0 0 0 0 0.395550272   0 0 0 0 0.395550272   0 0 0 0 0.395550272  0 0 0 0.518056163 0"/>
    </filter>
    <path id="pdf-h" d="M41,196 L175.91027,196 C178.119409,196 179.91027,197.790861 179.91027,200 C179.91027,202.209139 178.119409,204 175.91027,204 L41,204 C38.790861,204 37,202.209139 37,200 C37,197.790861 38.790861,196 41,196 Z"/>
    <filter id="pdf-g" width="102.8%" height="150%" x="-2.1%" y="-12.5%" filterUnits="objectBoundingBox">
      <feOffset dx="-1" dy="1" in="SourceAlpha" result="shadowOffsetOuter1"/>
      <feGaussianBlur in="shadowOffsetOuter1" result="shadowBlurOuter1" stdDeviation=".5"/>
      <feColorMatrix in="shadowBlurOuter1" values="0 0 0 0 0.395550272   0 0 0 0 0.395550272   0 0 0 0 0.395550272  0 0 0 0.518056163 0"/>
    </filter>
    <path id="pdf-j" d="M41,115 L101.91027,115 C104.119409,115 105.91027,116.790861 105.91027,119 C105.91027,121.209139 104.119409,123 101.91027,123 L41,123 C38.790861,123 37,121.209139 37,119 C37,116.790861 38.790861,115 41,115 Z"/>
    <filter id="pdf-i" width="105.8%" height="150%" x="-4.4%" y="-12.5%" filterUnits="objectBoundingBox">
      <feOffset dx="-1" dy="1" in="SourceAlpha" result="shadowOffsetOuter1"/>
      <feGaussianBlur in="shadowOffsetOuter1" result="shadowBlurOuter1" stdDeviation=".5"/>
      <feColorMatrix in="shadowBlurOuter1" values="0 0 0 0 0.395550272   0 0 0 0 0.395550272   0 0 0 0 0.395550272  0 0 0 0.518056163 0"/>
    </filter>
    <path id="pdf-l" d="M112.086486,41.9210811 L176.536216,41.9210811 C178.857603,41.9210811 180.739459,43.8029372 180.739459,46.1243243 C180.739459,48.4457115 178.857603,50.3275676 176.536216,50.3275676 L112.086486,50.3275676 C109.765099,50.3275676 107.883243,48.4457115 107.883243,46.1243243 C107.883243,43.8029372 109.765099,41.9210811 112.086486,41.9210811 Z"/>
    <filter id="pdf-k" width="105.5%" height="147.6%" x="-4.1%" y="-11.9%" filterUnits="objectBoundingBox">
      <feOffset dx="-1" dy="1" in="SourceAlpha" result="shadowOffsetOuter1"/>
      <feGaussianBlur in="shadowOffsetOuter1" result="shadowBlurOuter1" stdDeviation=".5"/>
      <feColorMatrix in="shadowBlurOuter1" values="0 0 0 0 0.395550272   0 0 0 0 0.395550272   0 0 0 0 0.395550272  0 0 0 0.518056163 0"/>
    </filter>
    <path id="pdf-n" d="M112.086486,68.7448649 L176.536216,68.7448649 C178.857603,68.7448649 180.739459,70.626721 180.739459,72.9481081 C180.739459,75.2694953 178.857603,77.1513514 176.536216,77.1513514 L112.086486,77.1513514 C109.765099,77.1513514 107.883243,75.2694953 107.883243,72.9481081 C107.883243,70.626721 109.765099,68.7448649 112.086486,68.7448649 Z"/>
    <filter id="pdf-m" width="105.5%" height="147.6%" x="-4.1%" y="-11.9%" filterUnits="objectBoundingBox">
      <feOffset dx="-1" dy="1" in="SourceAlpha" result="shadowOffsetOuter1"/>
      <feGaussianBlur in="shadowOffsetOuter1" result="shadowBlurOuter1" stdDeviation=".5"/>
      <feColorMatrix in="shadowBlurOuter1" values="0 0 0 0 0.395550272   0 0 0 0 0.395550272   0 0 0 0 0.395550272  0 0 0 0.518056163 0"/>
    </filter>
    <rect id="pdf-p" width="48" height="50" x="1" y="0" rx="2"/>
    <filter id="pdf-o" width="108.3%" height="108%" x="-6.2%" y="-2%" filterUnits="objectBoundingBox">
      <feOffset dx="-1" dy="1" in="SourceAlpha" result="shadowOffsetOuter1"/>
      <feGaussianBlur in="shadowOffsetOuter1" result="shadowBlurOuter1" stdDeviation=".5"/>
      <feColorMatrix in="shadowBlurOuter1" values="0 0 0 0 0.395550272   0 0 0 0 0.395550272   0 0 0 0 0.395550272  0 0 0 0.518056163 0"/>
    </filter>
    <linearGradient id="pdf-q" x1="55.577%" x2="33.137%" y1="50%" y2="60.833%">
      <stop offset="0%" stop-color="#FF9B99"/>
      <stop offset="100%" stop-color="#EB5451"/>
    </linearGradient>
  </defs>
  <g fill="none" fill-rule="evenodd">
    <rect width="218" height="254.997" fill="#FFF" rx="4"/>
    <g transform="translate(32 33)">
      <use fill="#000" filter="url(#pdf-a)" xlink:href="#pdf-b"/>
      <use fill="#EB5451" xlink:href="#pdf-b"/>
      <path fill="#FFF" fill-rule="nonzero" d="M25.75,24.890625 C25.75,25.8398644 24.9804894,26.609375 24.03125,26.609375 C23.1874816,26.609375 22.4857212,26.0013666 22.3401914,25.1995725 L22.3125,24.890625 L22.3125,13.71875 C22.3125,12.8749816 22.9205084,12.1732212 23.7223025,12.0276914 L24.03125,12 L32.625,12 C38.3204365,12 42.9375,16.6170635 42.9375,22.3125 C42.9375,27.804528 38.6443376,32.2938343 33.2309377,32.6074939 L32.625,32.625 L18.875,32.625 C16.9765212,32.625 15.4375,34.1640212 15.4375,36.0625 C15.4375,37.8253732 16.7645132,39.2783059 18.4741149,39.4768734 L18.875,39.5 L22.3125,39.5 L22.3125,36.921875 C22.3125,36.0781066 22.9205084,35.3763462 23.7223025,35.2308164 L24.03125,35.203125 C24.8750184,35.203125 25.5767788,35.8111334 25.7223086,36.6129275 L25.75,36.921875 L25.75,41.21875 C25.75,42.0625184 25.1419916,42.7642788 24.3401975,42.9098086 L24.03125,42.9375 L18.875,42.9375 C15.0780423,42.9375 12,39.8594577 12,36.0625 C12,32.4381313 14.8045799,29.4688074 18.3619107,29.2063572 L18.875,29.1875 L32.625,29.1875 C36.4219577,29.1875 39.5,26.1094577 39.5,22.3125 C39.5,18.6881313 36.6954201,15.7188074 33.1380893,15.4563572 L32.625,15.4375 L25.75,15.4375 L25.75,24.890625 Z"/>
    </g>
    <use fill="#000" filter="url(#pdf-c)" xlink:href="#pdf-d"/>
    <use fill="#DFE8F3" xlink:href="#pdf-d"/>
    <use fill="#000" filter="url(#pdf-e)" xlink:href="#pdf-f"/>
    <use fill="#DFE8F3" xlink:href="#pdf-f"/>
    <use fill="#000" filter="url(#pdf-g)" xlink:href="#pdf-h"/>
    <use fill="#DFE8F3" xlink:href="#pdf-h"/>
    <use fill="#000" filter="url(#pdf-i)" xlink:href="#pdf-j"/>
    <use fill="#DFE8F3" xlink:href="#pdf-j"/>
    <use fill="#000" filter="url(#pdf-k)" xlink:href="#pdf-l"/>
    <use fill="#DFE8F3" xlink:href="#pdf-l"/>
    <use fill="#000" filter="url(#pdf-m)" xlink:href="#pdf-n"/>
    <use fill="#DFE8F3" xlink:href="#pdf-n"/>
    <g transform="translate(127 102)">
      <use fill="#000" filter="url(#pdf-o)" xlink:href="#pdf-p"/>
      <use fill="#EB5451" xlink:href="#pdf-p"/>
      <path fill="url(#pdf-q)" d="M20,50 L37,28.6818241 L48.8566072,46.5057458 L48.9136364,47.879279 C48.9594587,48.9828977 48.1019453,49.9147036 46.9983267,49.9605259 C46.9716197,49.9616348 46.9448932,49.9622081 46.9181632,49.9622456 L20,50 L20,50 Z" opacity=".633"/>
      <circle cx="34" cy="16" r="4" fill="#FF9B99"/>
      <polygon fill="#FF9B99" points=".37 45.151 16.37 19.959 35 49.576 0 49.959"/>
    </g>
  </g>
</svg>
