<svg xmlns="http://www.w3.org/2000/svg" xmlns:xlink="http://www.w3.org/1999/xlink" viewBox="0 0 64 64">
  <defs>
    <circle id="上一页-b" cx="32" cy="32" r="24"/>
    <filter id="上一页-a" width="154.2%" height="154.2%" x="-27.1%" y="-22.9%" filterUnits="objectBoundingBox">
      <feOffset dy="2" in="SourceAlpha" result="shadowOffsetOuter1"/>
      <feGaussianBlur in="shadowOffsetOuter1" result="shadowBlurOuter1" stdDeviation="4"/>
      <feColorMatrix in="shadowBlurOuter1" values="0 0 0 0 0   0 0 0 0 0   0 0 0 0 0  0 0 0 0.225142045 0"/>
    </filter>
    <path id="上一页-d" d="M1.5376894,0.787689399 C2.36611652,0.787689399 3.0376894,1.45926227 3.0376894,2.2876894 L3.0376894,9.7876894 L10.5376894,9.7876894 C11.3661165,9.7876894 12.0376894,10.4592623 12.0376894,11.2876894 C12.0376894,12.1161165 11.3661165,12.7876894 10.5376894,12.7876894 L1.5376894,12.7876894 L1.5376894,12.7876894 C0.709262274,12.7876894 0.0376893988,12.1161165 0.0376893988,11.2876894 L0.0376893988,2.2876894 C0.0376893988,1.45926227 0.709262274,0.787689399 1.5376894,0.787689399 Z"/>
    <filter id="上一页-c" width="291.7%" height="291.7%" x="-54.2%" y="-70.8%" filterUnits="objectBoundingBox">
      <feOffset dx="5" dy="3" in="SourceAlpha" result="shadowOffsetOuter1"/>
      <feGaussianBlur in="shadowOffsetOuter1" result="shadowBlurOuter1" stdDeviation="3"/>
      <feColorMatrix in="shadowBlurOuter1" values="0 0 0 0 0   0 0 0 0 0   0 0 0 0 0  0 0 0 0.167886801 0"/>
    </filter>
  </defs>
  <g fill="none" fill-rule="evenodd">
    <use fill="#000" filter="url(#上一页-a)" xlink:href="#上一页-b"/>
    <use fill="#FFF" xlink:href="#上一页-b"/>
    <g opacity=".623" transform="translate(20 20)">
      <rect width="24" height="23.996"/>
      <g transform="rotate(45 4.94 20.175)">
        <use fill="#000" filter="url(#上一页-c)" xlink:href="#上一页-d"/>
        <use fill="#444" xlink:href="#上一页-d"/>
      </g>
    </g>
  </g>
</svg>
