<svg xmlns="http://www.w3.org/2000/svg" xmlns:xlink="http://www.w3.org/1999/xlink" viewBox="0 0 120 120">
  <defs>
    <linearGradient id="接收文件-a" x1="89.615%" x2="0%" y1="33.749%" y2="33.749%">
      <stop offset="0%" stop-color="#FF995B"/>
      <stop offset="100%" stop-color="#FC3336"/>
    </linearGradient>
    <linearGradient id="接收文件-b" x1="79.872%" x2="15.186%" y1="29.454%" y2="89.709%">
      <stop offset="0%" stop-color="#FFA389"/>
      <stop offset="100%" stop-color="#D81616"/>
    </linearGradient>
    <path id="接收文件-e" d="M57.8659344,70.9182276 L56.1449769,76.563146 C56.0100414,77.0057483 56.2594547,77.4739353 56.7020571,77.6088708 C56.9162732,77.6741785 57.1477191,77.6510056 57.3447354,77.5445244 L63.985167,73.9555768 L63.985167,73.9555768 C67.0652002,74.7163549 70.1569002,75.4771331 73.2194332,75.4771331 C87.8554242,75.4771331 99.3880485,65.5870171 99.3880485,53.4145666 C99.3880485,41.2594065 87.8554242,31.352 73.2194332,31.352 C59.3942842,31.352 47.0858182,41.2594065 47.0858182,53.4145666 C47.0858182,60.2730969 51.6825344,66.3420317 57.8659344,70.9182276 Z"/>
    <filter id="接收文件-c" width="115.3%" height="117.3%" x="-7.6%" y="-15.1%" filterUnits="objectBoundingBox">
      <feGaussianBlur in="SourceGraphic"/>
    </filter>
    <filter id="接收文件-d" width="128.7%" height="132.4%" x="-14.3%" y="-22.7%" filterUnits="objectBoundingBox">
      <feOffset dy="-3" in="SourceAlpha" result="shadowOffsetOuter1"/>
      <feGaussianBlur in="shadowOffsetOuter1" result="shadowBlurOuter1" stdDeviation="2"/>
      <feColorMatrix in="shadowBlurOuter1" values="0 0 0 0 0.863083107   0 0 0 0 0.182529265   0 0 0 0 0.160693312  0 0 0 0.642946897 0"/>
    </filter>
    <path id="接收文件-g" d="M14.8636364,13.3636364 L73.8636364,13.3636364 C74.6920635,13.3636364 75.3636364,14.0352092 75.3636364,14.8636364 C75.3636364,15.6920635 74.6920635,16.3636364 73.8636364,16.3636364 L14.8636364,16.3636364 C14.0352092,16.3636364 13.3636364,15.6920635 13.3636364,14.8636364 C13.3636364,14.0352092 14.0352092,13.3636364 14.8636364,13.3636364 Z"/>
    <filter id="接收文件-f" width="106.5%" height="233.3%" x="-4.8%" y="-33.3%" filterUnits="objectBoundingBox">
      <feOffset dx="-1" dy="1" in="SourceAlpha" result="shadowOffsetOuter1"/>
      <feGaussianBlur in="shadowOffsetOuter1" result="shadowBlurOuter1" stdDeviation=".5"/>
      <feColorMatrix in="shadowBlurOuter1" values="0 0 0 0 0.979393116   0 0 0 0 0.215607351   0 0 0 0 0.154504489  0 0 0 0.541657561 0"/>
    </filter>
    <path id="接收文件-i" d="M14.8636364,22.3636364 L39.8636364,22.3636364 C40.6920635,22.3636364 41.3636364,23.0352092 41.3636364,23.8636364 C41.3636364,24.6920635 40.6920635,25.3636364 39.8636364,25.3636364 L14.8636364,25.3636364 C14.0352092,25.3636364 13.3636364,24.6920635 13.3636364,23.8636364 C13.3636364,23.0352092 14.0352092,22.3636364 14.8636364,22.3636364 Z"/>
    <filter id="接收文件-h" width="114.3%" height="233.3%" x="-10.7%" y="-33.3%" filterUnits="objectBoundingBox">
      <feOffset dx="-1" dy="1" in="SourceAlpha" result="shadowOffsetOuter1"/>
      <feGaussianBlur in="shadowOffsetOuter1" result="shadowBlurOuter1" stdDeviation=".5"/>
      <feColorMatrix in="shadowBlurOuter1" values="0 0 0 0 0.979393116   0 0 0 0 0.215607351   0 0 0 0 0.154504489  0 0 0 0.541657561 0"/>
    </filter>
    <linearGradient id="接收文件-j" x1="100%" x2="15.155%" y1="72.271%" y2="25.948%">
      <stop offset="0%" stop-color="#EEE"/>
      <stop offset="100%" stop-color="#F8F8F8"/>
    </linearGradient>
    <linearGradient id="接收文件-k" x1="92.544%" x2="24.17%" y1="88.473%" y2="11.527%">
      <stop offset="0%" stop-color="#C5C5C5"/>
      <stop offset="100%" stop-color="#F7F7F7"/>
    </linearGradient>
  </defs>
  <g fill="none" fill-rule="evenodd">
    <rect width="120" height="120"/>
    <g transform="translate(6.636 18.636)">
      <rect width="19.169" height="19.169" x="9.638" y="26.997" fill="#000" fill-rule="nonzero" opacity="0"/>
      <path fill="url(#接收文件-a)" stroke="url(#接收文件-b)" d="M89.0909091,0.863636364 C89.8565766,0.863636364 90.5497584,1.17398443 91.0515233,1.67574938 C91.5532883,2.17751432 91.8636364,2.87069614 91.8636364,3.63636364 L91.8636364,3.63636364 L91.8636364,65.3470947 C91.8636364,66.1127622 91.5532883,66.805944 91.0515233,67.307709 C90.5497584,67.8094739 89.8565766,68.119822 89.0909091,68.119822 L89.0909091,68.119822 L32.8072122,68.119822 L18.1390223,79.7872742 L17.5906127,68.119822 L3.63636364,68.119822 C2.87069614,68.119822 2.17751432,67.8094739 1.67574938,67.307709 C1.17398443,66.805944 0.863636364,66.1127622 0.863636364,65.3470947 L0.863636364,65.3470947 L0.863636364,3.63636364 C0.863636364,2.87069614 1.17398443,2.17751432 1.67574938,1.67574938 C2.17751432,1.17398443 2.87069614,0.863636364 3.63636364,0.863636364 L3.63636364,0.863636364 Z"/>
      <g fill="#000" filter="url(#接收文件-c)" opacity=".721" transform="matrix(-1 0 0 1 146.474 0)">
        <use filter="url(#接收文件-d)" xlink:href="#接收文件-e"/>
      </g>
      <use fill="#000" filter="url(#接收文件-f)" xlink:href="#接收文件-g"/>
      <use fill="#FFF" xlink:href="#接收文件-g"/>
      <use fill="#000" filter="url(#接收文件-h)" xlink:href="#接收文件-i"/>
      <use fill="#FFF" xlink:href="#接收文件-i"/>
      <g transform="matrix(-1 0 0 1 109 28.273)">
        <path fill="url(#接收文件-j)" stroke="url(#接收文件-k)" d="M12.3847464,42.8252119 L10.5195116,48.888642 C10.3698581,49.3751296 10.6429161,49.8908239 11.1294037,50.0404774 C11.3644832,50.1127927 11.6187158,50.0881425 11.8355239,49.9720127 L19.0536066,46.1057621 L19.0536066,46.1057621 C22.4102873,46.9274559 25.7796828,47.7491497 29.1172916,47.7491497 C45.0678827,47.7491497 57.6363636,37.0671303 57.6363636,23.9200294 C57.6363636,10.7916034 45.0678827,0.0909090909 29.1172916,0.0909090909 C14.0503721,0.0909090909 0.636363636,10.7916034 0.636363636,23.9200294 C0.636363636,31.3277236 5.64595543,37.8825991 12.3847464,42.8252119 Z"/>
        <circle cx="42.136" cy="23.591" r="3.5" fill="#FD403B"/>
        <circle cx="29.136" cy="23.591" r="3.5" fill="#FD403B"/>
        <circle cx="16.136" cy="23.591" r="3.5" fill="#FD403B"/>
      </g>
    </g>
  </g>
</svg>
