<svg xmlns="http://www.w3.org/2000/svg" xmlns:xlink="http://www.w3.org/1999/xlink" viewBox="0 0 120 120">
  <defs>
    <linearGradient id="团队共享-a" x1="14.256%" x2="84.282%" y1="38.574%" y2="6.493%">
      <stop offset="0%" stop-color="#F8F8F8"/>
      <stop offset="100%" stop-color="#EEE"/>
    </linearGradient>
    <linearGradient id="团队共享-b" x1="6.666%" x2="93.334%" y1="100%" y2="-10.674%">
      <stop offset="0%" stop-color="#C5C5C5"/>
      <stop offset="100%" stop-color="#F7F7F7"/>
    </linearGradient>
    <path id="团队共享-e" d="M1.02673797,38.771653 C1.02673797,37.0955939 2.36311155,35.7368796 4.01161192,35.7368796 L29.5962458,35.7368796 C30.8716428,35.7368796 32.0061329,36.5607766 32.4197752,37.7874022 L34.2860924,43.3232679 L92.0653934,43.3238132 C93.7138938,43.3238132 95.0502674,44.6825275 95.0502674,46.3585866 L95.0502674,91.8801883 C95.0502674,93.5562474 93.7138938,94.9149618 92.0653934,94.9149618 L4.01161192,94.9149618 C2.36311155,94.9149618 1.02673797,93.5562474 1.02673797,91.8801883 L1.02673797,38.771653 Z"/>
    <filter id="团队共享-c" width="108.5%" height="113.5%" x="-4.3%" y="-10.1%" filterUnits="objectBoundingBox">
      <feGaussianBlur in="SourceGraphic"/>
    </filter>
    <filter id="团队共享-d" width="114.9%" height="123.7%" x="-7.4%" y="-15.2%" filterUnits="objectBoundingBox">
      <feOffset dy="-2" in="SourceAlpha" result="shadowOffsetOuter1"/>
      <feGaussianBlur in="shadowOffsetOuter1" result="shadowBlurOuter1" stdDeviation="2"/>
      <feColorMatrix in="shadowBlurOuter1" values="0 0 0 0 0   0 0 0 0 0   0 0 0 0 0  0 0 0 0.156086101 0"/>
    </filter>
    <linearGradient id="团队共享-f" x1="100%" x2="0%" y1="33.749%" y2="33.749%">
      <stop offset="0%" stop-color="#FF995B"/>
      <stop offset="100%" stop-color="#FC3336"/>
    </linearGradient>
    <linearGradient id="团队共享-g" x1="92.866%" x2="15.186%" y1="50%" y2="70.689%">
      <stop offset="0%" stop-color="#FFA389"/>
      <stop offset="100%" stop-color="#D81616"/>
    </linearGradient>
    <linearGradient id="团队共享-h" x1="113.57%" x2="19.352%" y1="86.552%" y2="86.552%">
      <stop offset="0%" stop-color="#C5C5C5"/>
      <stop offset="100%" stop-color="#F7F7F7"/>
    </linearGradient>
    <linearGradient id="团队共享-i" x1="-32.057%" x2="100%" y1="86.552%" y2="86.552%">
      <stop offset="0%" stop-color="#C5C5C5"/>
      <stop offset="100%" stop-color="#F7F7F7"/>
    </linearGradient>
    <linearGradient id="团队共享-j" x1="-32.057%" x2="100%" y1="86.552%" y2="86.552%">
      <stop offset="0%" stop-color="#C5C5C5"/>
      <stop offset="100%" stop-color="#F7F7F7"/>
    </linearGradient>
  </defs>
  <g fill="none" fill-rule="evenodd">
    <rect width="120" height="120"/>
    <g transform="translate(12.09 13.09)">
      <rect width="73.456" height="78.904" x="11.045" y=".457" fill="url(#团队共享-a)" stroke="url(#团队共享-b)" stroke-width="1.091" rx="2.727"/>
      <g fill="#000" filter="url(#团队共享-c)" opacity=".765">
        <use filter="url(#团队共享-d)" xlink:href="#团队共享-e"/>
      </g>
      <rect width="44" height="3" x="25.909" y="15.909" fill="#FD463D" rx="1.5"/>
      <rect width="44" height="3" x="25.909" y="24.909" fill="#FD463D" rx="1.5"/>
      <path fill="url(#团队共享-f)" stroke="url(#团队共享-g)" stroke-width="1.091" d="M29.4714492,35.4545455 C29.9914476,35.4545455 30.482608,35.6222907 30.8859988,35.9144354 C31.2913811,36.2080225 31.6081277,36.6271171 31.7775465,37.1281297 L31.7775465,37.1281297 L33.768739,43.0181007 L91.9249639,43.018648 C92.5975323,43.018648 93.2060773,43.295641 93.6467107,43.7424044 C94.0900528,44.1919141 94.3636364,44.8130786 94.3636364,45.4988345 L94.3636364,45.4988345 L94.3636364,90.8834499 C94.3636364,91.5692058 94.0900528,92.1903703 93.6467107,92.63988 C93.2060773,93.0866433 92.5975323,93.3636364 91.9249639,93.3636364 L91.9249639,93.3636364 L3.89321789,93.3636364 C3.22064951,93.3636364 2.61210453,93.0866433 2.1714711,92.63988 C1.72812904,92.1903703 1.45454545,91.5692058 1.45454545,90.8834499 L1.45454545,90.8834499 L1.45454545,37.9347319 C1.45454545,37.2489761 1.72812904,36.6278115 2.1714711,36.1783018 C2.61210453,35.7315385 3.22064951,35.4545455 3.89321789,35.4545455 L3.89321789,35.4545455 Z"/>
      <path fill="#F7F7F7" stroke="url(#团队共享-h)" stroke-width=".655" d="M29.2008134,72.2582474 C31.6952568,72.2582474 33.9535515,73.2693204 35.5882353,74.9040042 C37.2229191,76.538688 38.2339921,78.7969827 38.2339921,81.2914261 L38.2339921,81.2914261 L38.2339921,81.9491325 L30.0973762,81.9483202 L30.0974229,80.7366917 C30.0974229,78.6685347 29.4492775,76.7517831 28.3451982,75.178337 C27.5013241,73.9757147 26.3909627,72.9737504 25.0999235,72.2580788 L25.0999235,72.2580788 Z M29.1557635,58.309833 C30.792231,58.309833 32.274408,58.94083 33.3470524,59.9630031 C34.4138499,60.9796043 35.0751633,62.3836077 35.0751633,63.935307 C35.0751633,65.4870062 34.4138499,66.8910096 33.3470524,67.9076109 C32.274408,68.9297839 30.792231,69.5607809 29.1557635,69.5607809 C27.519296,69.5607809 26.0371189,68.9297839 24.9644746,67.9076109 C23.8976771,66.8910096 23.2363636,65.4870062 23.2363636,63.935307 C23.2363636,62.3836077 23.8976771,60.9796043 24.9644746,59.9630031 C26.0371189,58.94083 27.519296,58.309833 29.1557635,58.309833 Z" transform="matrix(-1 0 0 1 61.47 0)"/>
      <path fill="#F7F7F7" stroke="url(#团队共享-i)" stroke-width=".655" d="M62.7411861,72.2582474 C65.2356295,72.2582474 67.4939242,73.2693204 69.128608,74.9040042 C70.7632918,76.538688 71.7743648,78.7969827 71.7743648,81.2914261 L71.7743648,81.2914261 L71.7743648,81.9491325 L63.6377489,81.9483202 L63.6377956,80.7366917 C63.6377956,78.6685347 62.9896502,76.7517831 61.8855709,75.178337 C61.0416968,73.9757147 59.9313353,72.9737504 58.6402961,72.2580788 L58.6402961,72.2580788 Z M62.6961362,58.309833 C64.3326036,58.309833 65.8147807,58.94083 66.8874251,59.9630031 C67.9542225,60.9796043 68.615536,62.3836077 68.615536,63.935307 C68.615536,65.4870062 67.9542225,66.8910096 66.8874251,67.9076109 C65.8147807,68.9297839 64.3326036,69.5607809 62.6961362,69.5607809 C61.0596687,69.5607809 59.5774916,68.9297839 58.5048472,67.9076109 C57.4380498,66.8910096 56.7767363,65.4870062 56.7767363,63.935307 C56.7767363,62.3836077 57.4380498,60.9796043 58.5048472,59.9630031 C59.5774916,58.94083 61.0596687,58.309833 62.6961362,58.309833 Z"/>
      <path fill="#F7F7F7" stroke="url(#团队共享-j)" stroke-width=".655" d="M51.3703583,71.2104839 C54.1232835,71.2104839 56.6155894,72.3263273 58.4196641,74.1304019 C60.2237388,75.9344766 61.3395822,78.4267826 61.3395822,81.1797077 L61.3395822,81.1797077 L61.3395822,81.9491651 L33.6711462,81.9491651 L33.6711462,81.1797077 C33.6711462,78.4267826 34.7869896,75.9344766 36.5910643,74.1304019 C38.395139,72.3263273 40.8874449,71.2104839 43.6403701,71.2104839 L43.6403701,71.2104839 Z M47.4185152,52.2363636 C49.5780711,52.2363636 51.5330975,53.116786 52.9482904,54.5399778 C54.364149,55.963839 55.2397193,57.9309281 55.2397193,60.103624 C55.2397193,62.2763199 54.364149,64.243409 52.9482904,65.6672702 C51.5330975,67.090462 49.5780711,67.9708843 47.4185152,67.9708843 C45.2589594,67.9708843 43.3039329,67.090462 41.88874,65.6672702 C40.4728814,64.243409 39.5973112,62.2763199 39.5973112,60.103624 C39.5973112,57.9309281 40.4728814,55.963839 41.88874,54.5399778 C43.3039329,53.116786 45.2589594,52.2363636 47.4185152,52.2363636 Z"/>
    </g>
  </g>
</svg>
