<svg xmlns="http://www.w3.org/2000/svg" xmlns:xlink="http://www.w3.org/1999/xlink" viewBox="0 0 218 255">
  <defs>
    <filter id="表格-a">
      <feColorMatrix in="SourceGraphic" values="0 0 0 0 0.874510 0 0 0 0 0.909804 0 0 0 0 0.952941 0 0 0 1.000000 0"/>
    </filter>
    <filter id="表格-b" width="105.8%" height="112.2%" x="-3.5%" y="-4.9%" filterUnits="objectBoundingBox">
      <feOffset dx="-1" dy="1" in="SourceAlpha" result="shadowOffsetOuter1"/>
      <feGaussianBlur in="shadowOffsetOuter1" result="shadowBlurOuter1" stdDeviation=".5"/>
      <feColorMatrix in="shadowBlurOuter1" result="shadowMatrixOuter1" values="0 0 0 0 0.438887002   0 0 0 0 0.438887002   0 0 0 0 0.438887002  0 0 0 0.393875656 0"/>
      <feMerge>
        <feMergeNode in="shadowMatrixOuter1"/>
        <feMergeNode in="SourceGraphic"/>
      </feMerge>
    </filter>
    <path id="表格-d" d="M166.829274,0.000130153354 C169.132703,0.000130153354 171,1.93344336 171,4.31830606 L171,77.6818241 C171,80.0666868 169.132703,82 166.829274,82 L4.17097699,82 C1.86754886,82 0.00025141816,80.0666868 0.00025141816,77.6818241 L-0.000521235521,40.2701302 L6.25547876,40.2401302 L6.25547876,40.3061302 L60.2622514,40.3067621 L60.2623653,0.23876208 L60.7244788,0.238130153 L60.7244788,0.000130153354 L166.829274,0.000130153354 Z M60.2622514,46.7837621 L6.25547876,46.7841302 L6.25569866,75.5213695 L60.2614788,75.5211302 L60.2622514,46.7837621 Z M111.566251,46.7837621 L66.5182514,46.7837621 L66.5174788,75.5211302 L111.566479,75.5211302 L111.566251,46.7837621 Z M117.822251,46.7837621 L117.822479,75.5211302 L164.743308,75.5213695 L164.742479,46.7841302 L117.822251,46.7837621 Z M164.743308,6.47673022 L117.822479,6.47613015 L117.822251,40.3067621 L164.742479,40.3061302 L164.743308,6.47673022 Z M111.566479,6.47613015 L66.5174788,6.47613015 L66.5182514,40.3067621 L111.566251,40.3067621 L111.566479,6.47613015 Z"/>
    <filter id="表格-c" width="102.3%" height="104.9%" x="-1.8%" y="-1.2%" filterUnits="objectBoundingBox">
      <feOffset dx="-1" dy="1" in="SourceAlpha" result="shadowOffsetOuter1"/>
      <feGaussianBlur in="shadowOffsetOuter1" result="shadowBlurOuter1" stdDeviation=".5"/>
      <feColorMatrix in="shadowBlurOuter1" values="0 0 0 0 0.395550272   0 0 0 0 0.395550272   0 0 0 0 0.395550272  0 0 0 0 0"/>
    </filter>
    <path id="表格-f" d="M3.8458278,-1.55376046e-16 L51.1541722,2.40911404e-15 C52.4914503,-1.39976464e-15 52.9763797,0.139238417 53.4652686,0.400699056 C53.9541574,0.662159695 54.3378403,1.04584256 54.5993009,1.53473144 C54.8607616,2.02362033 55,2.50854969 55,3.8458278 L55,51.1541722 C55,52.4914503 54.8607616,52.9763797 54.5993009,53.4652686 C54.3378403,53.9541574 53.9541574,54.3378403 53.4652686,54.5993009 C52.9763797,54.8607616 52.4914503,55 51.1541722,55 L3.8458278,55 C2.50854969,55 2.02362033,54.8607616 1.53473144,54.5993009 C1.04584256,54.3378403 0.662159695,53.9541574 0.400699056,53.4652686 C0.139238417,52.9763797 6.01853049e-17,52.4914503 -1.03584031e-16,51.1541722 L1.03584031e-16,3.8458278 C-6.01853049e-17,2.50854969 0.139238417,2.02362033 0.400699056,1.53473144 C0.662159695,1.04584256 1.04584256,0.662159695 1.53473144,0.400699056 C2.02362033,0.139238417 2.50854969,9.02779573e-17 3.8458278,-1.55376046e-16 Z"/>
    <filter id="表格-e" width="107.3%" height="107.3%" x="-5.5%" y="-1.8%" filterUnits="objectBoundingBox">
      <feOffset dx="-1" dy="1" in="SourceAlpha" result="shadowOffsetOuter1"/>
      <feGaussianBlur in="shadowOffsetOuter1" result="shadowBlurOuter1" stdDeviation=".5"/>
      <feColorMatrix in="shadowBlurOuter1" values="0 0 0 0 0   0 0 0 0 0   0 0 0 0 0  0 0 0 0.203398164 0"/>
    </filter>
    <path id="表格-h" d="M37.5887568,14 C38.4872196,14 39.2155676,14.7666821 39.2155676,15.7124324 C39.2155676,16.5530994 38.6400827,17.2522803 37.8811781,17.3972753 L37.5887568,17.4248649 L21.3206486,17.4248649 C19.0744916,17.4248649 17.2536216,19.3415702 17.2536216,21.7059459 C17.2536216,23.9225483 18.8539957,25.7456902 20.9048188,25.9649243 L21.3206486,25.987027 L32.7083243,25.987027 C36.7514069,25.987027 40.028973,29.4370965 40.028973,33.692973 C40.028973,37.7715212 37.0188472,41.1100142 33.2095409,41.3811411 L32.7083243,41.3989189 L16.4402162,41.3989189 C15.5417534,41.3989189 14.8134054,40.6322368 14.8134054,39.6864865 C14.8134054,38.8458195 15.3888903,38.1466386 16.1477949,38.0016436 L16.4402162,37.9740541 L32.7083243,37.9740541 C34.9544813,37.9740541 36.7753514,36.0573488 36.7753514,33.692973 C36.7753514,31.4763707 35.1749773,29.6532288 33.1241542,29.4339946 L32.7083243,29.4118919 L21.3206486,29.4118919 C17.277566,29.4118919 14,25.9618224 14,21.7059459 C14,17.6273977 17.0101258,14.2889048 20.8194321,14.0177778 L21.3206486,14 L37.5887568,14 Z"/>
    <filter id="表格-g" width="126.9%" height="125.5%" x="-13.4%" y="-9.1%" filterUnits="objectBoundingBox">
      <feOffset dy="1" in="SourceAlpha" result="shadowOffsetOuter1"/>
      <feGaussianBlur in="shadowOffsetOuter1" result="shadowBlurOuter1" stdDeviation="1"/>
      <feColorMatrix in="shadowBlurOuter1" values="0 0 0 0 0.0803388955   0 0 0 0 0.546988225   0 0 0 0 0.36152503  0 0 0 1 0"/>
    </filter>
    <polygon id="表格-j" points="29.5 147 29.5 223.5 191 223.5 191 228.5 24.5 228.5 24.5 147"/>
    <filter id="表格-i" width="102.4%" height="104.9%" x="-1.8%" y="-1.2%" filterUnits="objectBoundingBox">
      <feOffset dx="-1" dy="1" in="SourceAlpha" result="shadowOffsetOuter1"/>
      <feGaussianBlur in="shadowOffsetOuter1" result="shadowBlurOuter1" stdDeviation=".5"/>
      <feColorMatrix in="shadowBlurOuter1" values="0 0 0 0 0   0 0 0 0 0   0 0 0 0 0  0 0 0 0.218831949 0"/>
    </filter>
    <ellipse id="表格-l" cx="92.5" cy="158" rx="7.5" ry="8"/>
    <filter id="表格-k" width="153.3%" height="150%" x="-26.7%" y="-12.5%" filterUnits="objectBoundingBox">
      <feOffset dy="2" in="SourceAlpha" result="shadowOffsetOuter1"/>
      <feGaussianBlur in="shadowOffsetOuter1" result="shadowBlurOuter1" stdDeviation="1"/>
      <feColorMatrix in="shadowBlurOuter1" values="0 0 0 0 0.387596241   0 0 0 0 0.387596241   0 0 0 0 0.387596241  0 0 0 0.5 0"/>
    </filter>
    <ellipse id="表格-n" cx="144.5" cy="194" rx="7.5" ry="8"/>
    <filter id="表格-m" width="153.3%" height="150%" x="-26.7%" y="-12.5%" filterUnits="objectBoundingBox">
      <feOffset dy="2" in="SourceAlpha" result="shadowOffsetOuter1"/>
      <feGaussianBlur in="shadowOffsetOuter1" result="shadowBlurOuter1" stdDeviation="1"/>
      <feColorMatrix in="shadowBlurOuter1" values="0 0 0 0 0.387596241   0 0 0 0 0.387596241   0 0 0 0 0.387596241  0 0 0 0.5 0"/>
    </filter>
  </defs>
  <g fill="none" fill-rule="evenodd">
    <rect width="218" height="255" fill="#FFF" rx="4"/>
    <g filter="url(#表格-a)">
      <g filter="url(#表格-b)" transform="translate(24 49)">
        <use fill="#000" filter="url(#表格-c)" xlink:href="#表格-d"/>
        <use fill="#DFE8F3" xlink:href="#表格-d"/>
      </g>
    </g>
    <g fill-rule="nonzero" transform="translate(24 29)">
      <use fill="#000" filter="url(#表格-e)" xlink:href="#表格-f"/>
      <use fill="#1FBB7D" xlink:href="#表格-f"/>
      <use fill="#000" filter="url(#表格-g)" xlink:href="#表格-h"/>
      <use fill="#FFF" xlink:href="#表格-h"/>
    </g>
    <g fill-rule="nonzero">
      <use fill="#000" filter="url(#表格-i)" xlink:href="#表格-j"/>
      <use fill="#DFE8F3" xlink:href="#表格-j"/>
    </g>
    <path fill="#1EBB7C" fill-rule="nonzero" d="M179.034934,155.724278 C180.291781,156.295857 180.847301,157.778088 180.275722,159.034934 C179.830587,160.013744 179.384831,160.974459 178.938427,161.917077 L178.268331,163.31743 L177.597243,164.690637 C177.373379,165.143848 177.149346,165.592535 176.92514,166.036697 L176.252003,167.355607 C176.139726,167.573163 176.027405,167.789588 175.91504,168.004882 L175.240311,169.283068 L174.564496,170.534102 C173.775402,171.977804 172.984048,173.366069 172.190283,174.69889 L171.50932,175.827731 C171.168539,176.385361 170.827308,176.932808 170.485615,177.47007 L169.80161,178.531015 C169.231086,179.40382 168.659256,180.248332 168.086067,181.06455 L167.397583,182.03043 C162.688439,188.537803 157.886407,193.14258 152.961598,195.843208 C139.451396,203.251825 127.155729,196.4323 112.033625,176.359584 L111.104216,175.114091 C98.6400781,158.25446 85.1497252,158.135416 75.6913326,174.858654 C68.5458044,187.492553 61.5170527,196.527916 54.5374655,201.971345 C53.4487219,202.820463 51.877774,202.626209 51.0286553,201.537465 C50.1795366,200.448722 50.3737909,198.877774 51.4625345,198.028655 C56.4658219,194.126557 61.6345236,188.027853 66.9360189,179.735728 L67.7322351,178.475459 C68.6623064,176.985954 69.5963946,175.42928 70.5343247,173.805455 L71.3392017,172.39716 C82.563147,152.552275 100.253303,152.50894 114.688372,171.558617 L115.973997,173.280743 L116.814148,174.388049 C116.95343,174.569961 117.092343,174.750554 117.230893,174.92983 L118.05785,175.989685 L118.876271,177.017982 C131.225309,192.374824 140.700533,196.864396 150.557486,191.459118 C157.042503,187.902915 163.611169,180.138604 170.162319,168.160928 L170.817372,166.949116 L171.472286,165.709213 L172.127038,164.441219 L172.781606,163.145133 C172.890684,162.926777 172.999753,162.707251 173.108813,162.486554 L173.763063,161.148326 L174.417071,159.782003 L175.070817,158.387583 L175.724278,156.965066 C176.295857,155.708219 177.778088,155.152699 179.034934,155.724278 Z"/>
    <use fill="#000" filter="url(#表格-k)" xlink:href="#表格-l"/>
    <use fill="#1FBB7A" xlink:href="#表格-l"/>
    <use fill="#000" filter="url(#表格-m)" xlink:href="#表格-n"/>
    <use fill="#1FBB7A" xlink:href="#表格-n"/>
  </g>
</svg>
