<svg xmlns="http://www.w3.org/2000/svg" xmlns:xlink="http://www.w3.org/1999/xlink" viewBox="0 0 218 255">
  <defs>
    <path id="文字-b" d="M3.8458278,-1.55376046e-16 L51.1541722,2.40911404e-15 C52.4914503,-1.39976464e-15 52.9763797,0.139238417 53.4652686,0.400699056 C53.9541574,0.662159695 54.3378403,1.04584256 54.5993009,1.53473144 C54.8607616,2.02362033 55,2.50854969 55,3.8458278 L55,51.1541722 C55,52.4914503 54.8607616,52.9763797 54.5993009,53.4652686 C54.3378403,53.9541574 53.9541574,54.3378403 53.4652686,54.5993009 C52.9763797,54.8607616 52.4914503,55 51.1541722,55 L3.8458278,55 C2.50854969,55 2.02362033,54.8607616 1.53473144,54.5993009 C1.04584256,54.3378403 0.662159695,53.9541574 0.400699056,53.4652686 C0.139238417,52.9763797 6.01853049e-17,52.4914503 -1.03584031e-16,51.1541722 L1.03584031e-16,3.8458278 C-6.01853049e-17,2.50854969 0.139238417,2.02362033 0.400699056,1.53473144 C0.662159695,1.04584256 1.04584256,0.662159695 1.53473144,0.400699056 C2.02362033,0.139238417 2.50854969,9.02779573e-17 3.8458278,-1.55376046e-16 Z"/>
    <filter id="文字-a" width="107.3%" height="107.3%" x="-5.5%" y="-1.8%" filterUnits="objectBoundingBox">
      <feOffset dx="-1" dy="1" in="SourceAlpha" result="shadowOffsetOuter1"/>
      <feGaussianBlur in="shadowOffsetOuter1" result="shadowBlurOuter1" stdDeviation=".5"/>
      <feColorMatrix in="shadowBlurOuter1" values="0 0 0 0 0   0 0 0 0 0   0 0 0 0 0  0 0 0 0.201786495 0"/>
    </filter>
    <path id="文字-d" d="M39.8870482,13.8737559 C40.7384109,13.8737559 41.4464874,14.4871595 41.5933271,15.2960684 L41.6212677,15.6077573 L41.6212677,39.883777 C41.6212677,41.3630479 39.9215883,42.118691 38.828043,41.2593753 L38.6038297,41.0501926 L27.7475118,29.1052243 L16.8911939,41.0501926 C15.8960035,42.1447644 14.1299781,41.5607107 13.8989311,40.1893629 L13.8737559,39.883777 L13.8737559,15.6077573 C13.8737559,14.6500948 14.6501924,13.8737559 15.6079754,13.8737559 C16.459338,13.8737559 17.1674146,14.4871595 17.3142543,15.2960684 L17.3421949,15.6077573 L17.3421949,35.3961814 L26.4642933,25.3655506 C27.0759105,24.6928563 28.0843506,24.6181125 28.7841506,25.1413192 L29.0307303,25.3655506 L38.1528287,35.3996494 L38.1528287,15.6077573 C38.1528287,14.7565017 38.7663094,14.0485142 39.5753201,13.901693 L39.8870482,13.8737559 Z"/>
    <filter id="文字-c" width="114.4%" height="114.4%" x="-7.2%" y="-3.6%" filterUnits="objectBoundingBox">
      <feOffset dy="1" in="SourceAlpha" result="shadowOffsetOuter1"/>
      <feGaussianBlur in="shadowOffsetOuter1" result="shadowBlurOuter1" stdDeviation=".5"/>
      <feColorMatrix in="shadowBlurOuter1" values="0 0 0 0 0.205889327   0 0 0 0 0.411193167   0 0 0 0 0.687783062  0 0 0 0.705446897 0"/>
    </filter>
    <path id="文字-f" d="M175.877838,140.234234 C178.199225,140.234234 180.081081,142.11609 180.081081,144.437477 C180.081081,146.758865 178.199225,148.640721 175.877838,148.640721 L94.1942342,148.640721 C91.8728471,148.640721 89.990991,146.758865 89.990991,144.437477 C89.990991,142.11609 91.8728471,140.234234 94.1942342,140.234234 L175.877838,140.234234 Z M79.4727928,140.183784 C81.7941799,140.183784 83.676036,142.06564 83.676036,144.387027 C83.676036,146.708414 81.7941799,148.59027 79.4727928,148.59027 L41.0324324,148.59027 C38.7110453,148.59027 36.8291892,146.708414 36.8291892,144.387027 C36.8291892,142.06564 38.7110453,140.183784 41.0324324,140.183784 L79.4727928,140.183784 Z M175.536216,115.227027 C177.857603,115.227027 179.739459,117.108883 179.739459,119.43027 C179.739459,121.751657 177.857603,123.633514 175.536216,123.633514 L41.0324324,123.633514 C38.7110453,123.633514 36.8291892,121.751657 36.8291892,119.43027 C36.8291892,117.108883 38.7110453,115.227027 41.0324324,115.227027 L175.536216,115.227027 Z"/>
    <filter id="文字-e" width="102.8%" height="112%" x="-2.1%" y="-3%" filterUnits="objectBoundingBox">
      <feOffset dx="-1" dy="1" in="SourceAlpha" result="shadowOffsetOuter1"/>
      <feGaussianBlur in="shadowOffsetOuter1" result="shadowBlurOuter1" stdDeviation=".5"/>
      <feColorMatrix in="shadowBlurOuter1" values="0 0 0 0 0.395550272   0 0 0 0 0.395550272   0 0 0 0 0.395550272  0 0 0 0.518056163 0"/>
    </filter>
    <path id="文字-h" d="M175.536216,196.227027 C177.857603,196.227027 179.739459,198.108883 179.739459,200.43027 C179.739459,202.751657 177.857603,204.633514 175.536216,204.633514 L41.0324324,204.633514 C38.7110453,204.633514 36.8291892,202.751657 36.8291892,200.43027 C36.8291892,198.108883 38.7110453,196.227027 41.0324324,196.227027 L175.536216,196.227027 Z M130.491171,168.205405 C132.812558,168.205405 134.694414,170.087262 134.694414,172.408649 C134.694414,174.730036 132.812558,176.611892 130.491171,176.611892 L41.0324324,176.611892 C38.7110453,176.611892 36.8291892,174.730036 36.8291892,172.408649 C36.8291892,170.087262 38.7110453,168.205405 41.0324324,168.205405 L130.491171,168.205405 Z M175.877838,168.162162 C178.199225,168.162162 180.081081,170.044018 180.081081,172.365405 C180.081081,174.686793 178.199225,176.568649 175.877838,176.568649 L143.743784,176.568649 C141.422397,176.568649 139.540541,174.686793 139.540541,172.365405 C139.540541,170.044018 141.422397,168.162162 143.743784,168.162162 L175.877838,168.162162 Z"/>
    <filter id="文字-g" width="102.8%" height="111%" x="-2.1%" y="-2.7%" filterUnits="objectBoundingBox">
      <feOffset dx="-1" dy="1" in="SourceAlpha" result="shadowOffsetOuter1"/>
      <feGaussianBlur in="shadowOffsetOuter1" result="shadowBlurOuter1" stdDeviation=".5"/>
      <feColorMatrix in="shadowBlurOuter1" values="0 0 0 0 0.395550272   0 0 0 0 0.395550272   0 0 0 0 0.395550272  0 0 0 0.518056163 0"/>
    </filter>
    <path id="文字-j" d="M112.086486,41.9210811 L176.536216,41.9210811 C178.857603,41.9210811 180.739459,43.8029372 180.739459,46.1243243 C180.739459,48.4457115 178.857603,50.3275676 176.536216,50.3275676 L112.086486,50.3275676 C109.765099,50.3275676 107.883243,48.4457115 107.883243,46.1243243 C107.883243,43.8029372 109.765099,41.9210811 112.086486,41.9210811 Z"/>
    <filter id="文字-i" width="105.5%" height="147.6%" x="-4.1%" y="-11.9%" filterUnits="objectBoundingBox">
      <feOffset dx="-1" dy="1" in="SourceAlpha" result="shadowOffsetOuter1"/>
      <feGaussianBlur in="shadowOffsetOuter1" result="shadowBlurOuter1" stdDeviation=".5"/>
      <feColorMatrix in="shadowBlurOuter1" values="0 0 0 0 0.395550272   0 0 0 0 0.395550272   0 0 0 0 0.395550272  0 0 0 0.518056163 0"/>
    </filter>
    <path id="文字-l" d="M112.086486,68.7448649 L176.536216,68.7448649 C178.857603,68.7448649 180.739459,70.626721 180.739459,72.9481081 C180.739459,75.2694953 178.857603,77.1513514 176.536216,77.1513514 L112.086486,77.1513514 C109.765099,77.1513514 107.883243,75.2694953 107.883243,72.9481081 C107.883243,70.626721 109.765099,68.7448649 112.086486,68.7448649 Z"/>
    <filter id="文字-k" width="105.5%" height="147.6%" x="-4.1%" y="-11.9%" filterUnits="objectBoundingBox">
      <feOffset dx="-1" dy="1" in="SourceAlpha" result="shadowOffsetOuter1"/>
      <feGaussianBlur in="shadowOffsetOuter1" result="shadowBlurOuter1" stdDeviation=".5"/>
      <feColorMatrix in="shadowBlurOuter1" values="0 0 0 0 0.395550272   0 0 0 0 0.395550272   0 0 0 0 0.395550272  0 0 0 0.518056163 0"/>
    </filter>
  </defs>
  <g fill="none" fill-rule="evenodd">
    <rect width="218" height="254.997" fill="#FFF" rx="4"/>
    <g fill-rule="nonzero" transform="translate(32 33)">
      <use fill="#000" filter="url(#文字-a)" xlink:href="#文字-b"/>
      <use fill="#4991F2" xlink:href="#文字-b"/>
      <use fill="#000" filter="url(#文字-c)" xlink:href="#文字-d"/>
      <use fill="#FFF" xlink:href="#文字-d"/>
    </g>
    <use fill="#000" filter="url(#文字-e)" xlink:href="#文字-f"/>
    <use fill="#4991F2" xlink:href="#文字-f"/>
    <use fill="#000" filter="url(#文字-g)" xlink:href="#文字-h"/>
    <use fill="#DFE8F3" xlink:href="#文字-h"/>
    <use fill="#000" filter="url(#文字-i)" xlink:href="#文字-j"/>
    <use fill="#DFE8F3" xlink:href="#文字-j"/>
    <use fill="#000" filter="url(#文字-k)" xlink:href="#文字-l"/>
    <use fill="#DFE8F3" xlink:href="#文字-l"/>
  </g>
</svg>
