<svg xmlns="http://www.w3.org/2000/svg" xmlns:xlink="http://www.w3.org/1999/xlink" viewBox="0 0 401 58">
    <defs>
        <path id="wpsoffice-b" d="M46.8202291,2.13162821e-14 C48.6672362,2.09769924e-14 50.1645312,1.49729504 50.1645312,3.34430208 L50.1645312,46.8202291 C50.1645312,48.6672362 48.6672362,50.1645312 46.8202291,50.1645312 C45.7366517,50.1645312 44.7734373,49.6491955 44.1623033,48.8502414 L26.89,31.576 L29.6985548,28.7718207 L29.8376051,28.6420095 C30.3148207,28.2266163 30.938439,27.9750917 31.6208041,27.9750917 C32.3566915,27.9750917 33.024255,28.2676212 33.513552,28.7427377 L33.6424942,28.8767593 L33.646,28.873 L43.475,38.701 L43.475927,3.34430208 C43.475927,1.49729504 44.9732221,2.03233041e-14 46.8202291,2.13162821e-14 Z M3.34430208,2.13162821e-14 C5.19130912,2.09769924e-14 6.68860416,1.49729504 6.68860416,3.34430208 L6.688,38.781 L22.7174869,22.753044 C23.3463168,22.1242141 24.1632637,21.7981542 24.987178,21.7748642 L25.2570323,21.7748642 C26.012287,21.7962134 26.7616873,22.0719734 27.3657016,22.6021442 L27.5267233,22.753044 L30.3876473,25.6136799 C29.5757262,25.8100067 28.8016958,26.2032358 28.1415601,26.7933673 L27.9258374,26.9973705 L9.53217596,45.3730693 L9.544,45.385 L5.86843883,49.0612068 C5.74660305,49.1830426 5.61770553,49.2935126 5.48306381,49.392617 C4.90283228,49.8743169 4.15745877,50.1645312 3.34430208,50.1645312 C1.49729504,50.1645312 8.54913214e-14,48.6672362 8.52651283e-14,46.8202291 L8.52651283e-14,3.34430208 C8.50389352e-14,1.49729504 1.49729504,2.03233041e-14 3.34430208,2.13162821e-14 Z M66.2632109,20.9014502 C65.6526724,21.7765763 65.2751865,22.8263686 65.2207244,23.9608558 L65.2138906,24.2461901 L65.2138906,46.8202291 C65.2138906,48.6672362 63.7165955,50.1645312 61.8695885,50.1645312 C60.0225814,50.1645312 58.5252864,48.6672362 58.5252864,46.8202291 L58.5252864,27.5904922 C58.5252864,23.8964781 61.5198765,20.901888 65.2138906,20.901888 L66.2632109,20.9014502 Z M148.43551,21.736693 L148.821443,21.7379635 C156.671222,21.7379635 163.034726,28.1014675 163.034726,35.9512474 C163.034726,43.8010273 156.671222,50.1645312 148.821443,50.1645312 L116.214497,50.1645312 C114.36749,50.1645312 112.870195,48.6672362 112.870195,46.8202291 C112.870195,44.9732221 114.36749,43.475927 116.214497,43.475927 L148.821443,43.475927 C152.931033,43.475927 156.27116,40.181462 156.344878,36.0894779 L156.346122,35.9512474 L156.343095,35.6298132 C156.232468,29.7620195 153.099326,24.6336991 148.43551,21.736693 Z M219.051786,2.13162821e-14 C232.904339,2.13162821e-14 244.134052,11.2297128 244.134052,25.0822656 C244.134052,38.9348184 232.904339,50.1645312 219.051786,50.1645312 C205.199233,50.1645312 193.969521,38.9348184 193.969521,25.0822656 C193.969521,11.2297128 205.199233,2.13162821e-14 219.051786,2.13162821e-14 Z M272.56062,2.13162821e-14 C274.407627,2.46655911e-14 275.904922,1.49729504 275.904922,3.34430208 C275.904922,5.19130912 274.407627,6.68860416 272.56062,6.68860416 L267.544166,6.68860416 C262.058555,6.68860416 257.601203,11.0911008 257.512604,16.555598 L257.51126,16.7215104 L257.510656,20.483 L272.56062,20.4838502 C274.407627,20.4838502 275.904922,21.9811453 275.904922,23.8281523 C275.904922,25.6751594 274.407627,27.1724544 272.56062,27.1724544 L257.510656,27.172 L257.51126,46.8202291 C257.51126,48.6672362 256.013965,50.1645312 254.166958,50.1645312 C252.319951,50.1645312 250.822656,48.6672362 250.822656,46.8202291 L250.822656,16.7215104 C250.822656,7.48647521 258.309131,2.13162821e-14 267.544166,2.13162821e-14 L272.56062,2.13162821e-14 Z M300.987187,2.13162821e-14 C302.834194,2.46655911e-14 304.331489,1.49729504 304.331489,3.34430208 C304.331489,5.19130912 302.834194,6.68860416 300.987187,6.68860416 L295.970734,6.68860416 C290.485123,6.68860416 286.02777,11.0911008 285.939172,16.555598 L285.937828,16.7215104 L285.937224,20.483 L300.987187,20.4838502 C302.834194,20.4838502 304.331489,21.9811453 304.331489,23.8281523 C304.331489,25.6751594 302.834194,27.1724544 300.987187,27.1724544 L285.937224,27.172 L285.937828,46.8202291 C285.937828,48.6672362 284.440533,50.1645312 282.593526,50.1645312 C280.746519,50.1645312 279.249224,48.6672362 279.249224,46.8202291 L279.249224,16.7215104 C279.249224,7.48647521 286.735699,2.13162821e-14 295.970734,2.13162821e-14 L300.987187,2.13162821e-14 Z M312.692244,11.2870195 C314.539252,11.2870195 316.036547,12.7843146 316.036547,14.6313216 L316.036547,46.8202291 C316.036547,48.6672362 314.539252,50.1645312 312.692244,50.1645312 C310.845237,50.1645312 309.347942,48.6672362 309.347942,46.8202291 L309.347942,14.6313216 C309.347942,12.7843146 310.845237,11.2870195 312.692244,11.2870195 Z M347.807416,11.2870195 C349.654423,11.2870195 351.151718,12.7843146 351.151718,14.6313216 C351.151718,16.4783286 349.654423,17.9756237 347.807416,17.9756237 L340.282737,17.9756237 C333.425723,17.9756237 327.854032,23.4787444 327.743284,30.3093659 L327.741604,30.5167565 C327.741604,37.3737701 333.244725,42.945461 340.075346,43.0562091 L340.282737,43.0578893 L347.807416,43.0578893 C349.654423,43.0578893 351.151718,44.5551843 351.151718,46.4021914 C351.151718,48.2491984 349.654423,49.7464934 347.807416,49.7464934 L340.282737,49.7464934 C329.662446,49.7464934 321.053,41.1370469 321.053,30.5167565 C321.053,19.896466 329.662446,11.2870195 340.282737,11.2870195 L347.807416,11.2870195 Z M373.725757,11.2870195 C373.995922,11.2870195 374.264785,11.2925908 374.532238,11.3036249 C374.54665,11.3042195 374.560996,11.3048273 374.575337,11.3054507 C374.671128,11.3096148 374.766829,11.3144849 374.862342,11.3200521 C374.92292,11.3235834 374.983302,11.327387 375.043608,11.3314686 C375.105911,11.3356849 375.168272,11.3402088 375.23055,11.3450293 C375.283386,11.3491203 375.335719,11.3533868 375.387994,11.3578625 C375.503338,11.3677343 375.619047,11.3786924 375.734453,11.390671 C375.776154,11.3949994 375.817839,11.3994636 375.859484,11.4040608 C375.952024,11.4142777 376.044097,11.4251176 376.13597,11.4366056 L376.213327,11.4464379 C376.435831,11.4751849 376.656471,11.5076241 376.875859,11.5437765 C376.930496,11.5527789 376.985469,11.5620834 377.040363,11.5716206 C377.086905,11.579708 377.132975,11.5878874 377.178988,11.5962306 C377.249864,11.60908 377.321126,11.6224183 377.392247,11.6361485 C377.625377,11.6811637 377.856316,11.7302294 378.085683,11.7833989 C378.127072,11.7929932 378.168465,11.8027344 378.209807,11.8126091 C378.302589,11.8347712 378.394989,11.8575752 378.487124,11.8810445 L378.549924,11.8971549 C378.781124,11.9568882 379.0104,12.0207428 379.237908,12.0886956 L379.289123,12.1040707 C379.517776,12.1730753 379.743848,12.2459528 379.968048,12.3228579 L380.116665,12.374522 L380.340086,12.4547905 C380.367608,12.4648712 380.395614,12.4752035 380.423589,12.4855991 C380.511634,12.5183195 380.598971,12.5515093 380.686,12.5853143 C380.708409,12.5940188 380.730688,12.6027211 380.752947,12.6114638 L380.837804,12.6450276 C381.037797,12.7246841 381.236138,12.8076004 381.432761,12.8937108 L381.447395,12.9001269 C381.495313,12.9211599 381.543128,12.9423828 381.59084,12.9637945 C381.64994,12.9903165 381.708831,13.0171051 381.767562,13.0441812 C381.814418,13.0657837 381.860787,13.0873881 381.907056,13.1091716 C381.973291,13.1403539 382.039653,13.1720645 382.105803,13.2041431 C382.150573,13.2258542 382.195204,13.2477126 382.239737,13.2697384 C382.300767,13.2999241 382.361439,13.3303355 382.421926,13.3610574 L382.563563,13.4337368 C382.646534,13.4767483 382.729189,13.5203667 382.811485,13.5645669 C382.983645,13.6570399 383.153591,13.7516883 383.321928,13.8488135 C383.372792,13.8781595 383.423773,13.9078871 383.474604,13.9378417 C383.531731,13.9715059 383.588778,14.0055227 383.645632,14.0398254 C383.681565,14.0615053 383.71725,14.0831953 383.752859,14.1049979 C383.910753,14.2016705 384.067315,14.300669 384.222327,14.4018437 C384.418521,14.5298965 384.61228,14.6614687 384.803468,14.7964405 C384.825822,14.8122219 384.848216,14.8281026 384.870574,14.8440299 C384.947754,14.8990118 385.02444,14.9544978 385.100698,15.0105328 C385.111921,15.0187795 385.123186,15.0270756 385.134441,15.0353837 L385.286866,15.1490619 C385.318328,15.1727687 385.349716,15.1965698 385.381028,15.2204649 C385.40855,15.2414684 385.435836,15.2624079 385.463065,15.2834188 C385.543275,15.3453097 385.623246,15.4080299 385.702704,15.4713662 C385.723242,15.4877379 385.743518,15.5039675 385.76376,15.5202371 C385.843296,15.5841615 385.92257,15.6489199 386.001314,15.7142946 C386.148249,15.8362883 386.292945,15.9600824 386.435758,16.0859633 C386.475446,16.1209453 386.515067,16.1561587 386.55454,16.1915328 C386.600104,16.2323645 386.645493,16.2734292 386.690684,16.3147067 C386.826991,16.4392129 386.961359,16.5655194 387.093889,16.6937147 C387.121301,16.7202301 387.148724,16.7469135 387.176068,16.7736779 L387.210521,16.8074858 C387.370889,16.9652445 387.528503,17.1257956 387.683282,17.2890603 C387.711903,17.3192497 387.740433,17.3495397 387.768867,17.379922 C387.820043,17.4346077 387.870724,17.4893965 387.921089,17.5444794 L388.033196,17.6681547 C388.074825,17.7144797 388.116274,17.7610546 388.157499,17.8078316 C388.195686,17.8511648 388.233289,17.8942172 388.270701,17.9374381 C388.298739,17.9698259 388.327085,18.0027939 388.35532,18.0358588 C388.402217,18.0907777 388.448713,18.1458477 388.494904,18.2011812 C388.55635,18.2747911 388.617096,18.3486697 388.677299,18.4230062 C388.714577,18.4690368 388.751411,18.5149483 388.788039,18.5610317 L388.839366,18.6258928 L388.84702,18.6360195 L388.87202,18.6680195 L388.957223,18.7770223 C391.042423,21.4784307 392.42498,24.7499428 392.83114,28.3178047 C392.854855,28.4888839 392.868999,28.665093 392.868999,28.8446054 C392.868999,30.6300456 391.46986,32.0886993 389.708189,32.183959 L389.524696,32.1889075 L367.455191,32.1889075 C365.608184,32.1889075 364.110889,30.6916125 364.110889,28.8446054 C364.110889,26.9975984 365.608184,25.5003034 367.455191,25.5003034 L385.223186,25.4999077 C384.274093,23.3278712 382.727546,21.4766253 380.791278,20.153902 L380.790787,20.1544675 C380.273812,19.801012 379.728923,19.4852847 379.160106,19.2112482 C379.134405,19.1986144 379.10872,19.1863538 379.082987,19.1741782 L379.12802,19.1960195 L378.810071,19.0492363 C378.692425,18.9969794 378.573823,18.9464808 378.454298,18.8977738 L378.293805,18.8336679 L378.14802,18.7770195 L378.130539,18.7709837 L378.07302,18.7490195 L378.12902,18.7700195 L377.942959,18.7024014 L377.84402,18.6680195 L377.978036,18.7148998 L377.815406,18.6575635 L377.752274,18.6360535 C377.506098,18.5526315 377.256482,18.4766483 377.003695,18.4083717 C376.951754,18.3943157 376.899488,18.3805639 376.84709,18.3671423 L376.576616,18.3010894 L376.46702,18.2760195 L376.41602,18.2650195 L376.24302,18.2280195 L376.040901,18.1888802 L375.792812,18.1451675 L375.66202,18.1240195 L375.63402,18.1200195 L375.62102,18.1180195 L375.62602,18.1190195 L375.60102,18.1150195 L375.44002,18.0920195 L375.36602,18.0820195 L375.320676,18.0760826 L375.36002,18.0810195 L375.30602,18.0740195 L375.27902,18.0710195 L375.217913,18.063471 L375.16702,18.0580195 L375.104831,18.0505829 C375.032698,18.0426929 374.96038,18.0354147 374.887884,18.0287535 C374.650654,18.0069604 374.411749,17.9917827 374.17112,17.983384 C374.151295,17.9826928 374.131952,17.9820626 374.112598,17.9814762 L374.113079,17.9814908 L373.725757,17.9756237 C366.799481,17.9756237 361.184625,23.5904801 361.184625,30.5167565 C361.184625,37.4430329 366.799481,43.0578893 373.725757,43.0578893 L374.138889,43.051213 C374.162918,43.0504353 374.18693,43.04959 374.210924,43.0486773 L374.355817,43.042338 L374.40702,43.0390195 L374.432886,43.038289 L374.46202,43.0360195 L374.500575,43.0343451 L374.48002,43.0350195 L374.55002,43.0310195 L374.57602,43.0290195 L374.66902,43.0230195 L374.67902,43.0220195 L374.69302,43.0210195 L374.705633,43.0201736 L374.71502,43.0190195 L374.73702,43.0170195 L374.72502,43.0180195 L374.909774,43.0027289 L375.08702,42.9840195 L375.324972,42.9568843 L375.749044,42.8955282 L376.168413,42.8201485 L376.33102,42.7860195 L376.324325,42.7883347 L376.33702,42.7850195 L376.35102,42.7820195 L376.357752,42.7812437 L376.38302,42.7750195 L376.43602,42.7630195 L376.512179,42.7472377 L376.546042,42.7395055 L376.72602,42.6960195 L376.878051,42.6583979 L376.930136,42.6447935 C377.220581,42.5682592 377.506903,42.4815681 377.788701,42.3851232 L377.823698,42.3730872 L377.82602,42.3720195 L377.94576,42.330194 L378.023932,42.3019723 L378.07302,42.2830195 L378.23802,42.2200195 L378.289018,42.2018352 L378.33902,42.1810195 L378.438667,42.1422323 L378.474728,42.1275333 L378.60502,42.0720195 L378.63802,42.0580195 L378.84702,41.9670195 L378.86902,41.9570195 L378.863295,41.960686 L378.947875,41.9222772 L378.87502,41.9540195 L379.23752,41.7849149 C379.361132,41.7243367 379.483601,41.6617843 379.604886,41.5972989 L379.63902,41.5780195 L379.659844,41.5679031 L379.66702,41.5630195 L379.68402,41.5540195 L379.714769,41.5381708 L379.73502,41.5260195 L379.861833,41.4568022 L379.86502,41.4540195 L379.89002,41.4400195 L379.86802,41.4520195 L380.007684,41.3735297 L380.031279,41.3575442 L380.072462,41.3357072 C381.776373,40.3339857 383.222754,38.9412285 384.288293,37.2807453 C384.419627,37.0752067 384.574879,36.879697 384.754961,36.6996151 C386.060992,35.3935839 388.178487,35.3935839 389.484518,36.6996151 C390.528839,37.7439356 390.738106,39.3070917 390.11232,40.5593472 L390.017698,40.7369786 L389.998603,40.7678866 C389.957544,40.8371621 389.913768,40.9052742 389.867277,40.9720688 L389.90402,40.9140195 L389.81851,41.0472003 C388.201931,43.5126608 386.034057,45.5841749 383.490097,47.0865314 L383.454716,47.1073748 L383.42642,47.1239717 C383.187532,47.2638133 382.945356,47.398648 382.700037,47.5283316 C382.674419,47.5418742 382.648757,47.5553657 382.623061,47.5688007 C382.520302,47.6225279 382.416972,47.6753658 382.313106,47.7272911 C382.29078,47.7384524 382.268698,47.7494378 382.246593,47.7603819 C381.997763,47.8835807 381.745573,48.0016898 381.490472,48.1144145 C381.473535,48.1218993 381.456104,48.1295712 381.438659,48.1372179 L381.1725,48.2514923 L381.110705,48.2773435 C381.041458,48.3061708 380.971778,48.3346965 380.901896,48.3628237 C380.844441,48.3859473 380.78715,48.4086842 380.729724,48.4311528 L380.535527,48.5059177 C380.45227,48.537453 380.368392,48.5685523 380.28424,48.5990809 L380.142304,48.6499384 L379.957846,48.7141523 L379.732366,48.7897861 C379.709517,48.7972925 379.686649,48.8047573 379.663762,48.8121803 C379.410793,48.8942353 379.154951,48.97135 378.896922,49.043219 C378.864121,49.0523541 378.831798,49.0612645 378.799441,49.0700925 C378.702211,49.0966207 378.604495,49.1224509 378.506477,49.1475279 L378.364104,49.1833704 C377.951254,49.2856005 377.533924,49.3743529 377.111833,49.4493355 C377.056944,49.4590874 377.001661,49.4686591 376.946297,49.4779942 C376.836648,49.4964817 376.726874,49.5140124 376.616794,49.53061 C376.597114,49.5335777 376.577077,49.5365668 376.557029,49.539525 C376.437678,49.5571337 376.318408,49.5735897 376.198793,49.5889467 C376.158355,49.5941383 376.117922,49.599199 376.077449,49.6041339 C375.933745,49.6216589 375.789222,49.6376312 375.644225,49.651993 L375.610359,49.6553173 C375.481035,49.6678962 375.35139,49.67919 375.221384,49.6891909 L375.049908,49.7016169 C374.959913,49.7077352 374.870215,49.7132091 374.780352,49.718066 C374.72783,49.7209051 374.675112,49.7235399 374.622339,49.725962 C374.516973,49.7307974 374.411452,49.7347829 374.305716,49.7379149 C374.260606,49.7392508 374.215589,49.7404283 374.170534,49.7414509 C374.154203,49.7418218 374.137535,49.7421791 374.120862,49.7425151 L373.725757,49.7464934 C363.105467,49.7464934 354.49602,41.1370469 354.49602,30.5167565 C354.49602,19.896466 363.105467,11.2870195 373.725757,11.2870195 Z M219.051786,6.68860416 C208.893248,6.68860416 200.658125,14.9237269 200.658125,25.0822656 C200.658125,35.2408043 208.893248,43.475927 219.051786,43.475927 C229.210325,43.475927 237.445448,35.2408043 237.445448,25.0822656 C237.445448,14.9237269 229.210325,6.68860416 219.051786,6.68860416 Z M159.690424,-6.75015599e-14 C161.537431,-7.25170777e-14 163.034726,1.49729504 163.034726,3.34430208 C163.034726,5.19130912 161.537431,6.68860416 159.690424,6.68860416 L127.083479,6.68860416 C122.973888,6.68860416 119.633761,9.98306917 119.560044,14.0750533 L119.558799,14.2132838 C119.558799,18.3228745 122.853264,21.6630016 126.945248,21.7367193 L127.083479,21.7379635 L139.624612,21.7379635 L139.937799,21.7413458 C145.209213,21.8553069 149.773773,24.8391745 152.131374,29.1928438 C151.171625,28.7208456 150.096422,28.4482906 148.959673,28.4278119 L148.821443,28.4265677 L127.083479,28.4265677 C119.233699,28.4265677 112.870195,22.0630637 112.870195,14.2132838 C112.870195,6.36350393 119.233699,-6.75015599e-14 127.083479,-6.75015599e-14 L159.690424,-6.75015599e-14 Z M94.8945715,2.13162821e-14 C102.513476,2.13162821e-14 108.689818,6.17634205 108.689818,13.7952461 C108.689818,21.4141501 102.513476,27.5904922 94.8945715,27.5904922 L67.7212864,27.59 L67.7221171,24.2461901 C67.7221171,22.4607499 69.1212562,21.0020962 70.8829267,20.9068365 L71.0664192,20.901888 L94.8945715,20.901888 C98.8194615,20.901888 102.001213,17.720136 102.001213,13.7952461 C102.001213,9.9154698 98.8921848,6.76184607 95.0296143,6.68986156 L94.8945715,6.68860416 L61.8695885,6.68860416 C60.0225814,6.68860416 58.5252864,5.19130912 58.5252864,3.34430208 C58.5252864,1.49729504 60.0225814,2.16555718e-14 61.8695885,2.13162821e-14 L94.8945715,2.13162821e-14 Z M312.692244,-4.20996571e-13 C314.539252,-4.2177995e-13 316.036547,1.49729504 316.036547,3.34430208 C316.036547,5.19130912 314.539252,6.68860416 312.692244,6.68860416 C310.845237,6.68860416 309.347942,5.19130912 309.347942,3.34430208 C309.347942,1.49729504 310.845237,-4.2110137e-13 312.692244,-4.20996571e-13 Z"/>
        <filter id="wpsoffice-a" width="103.6%" height="127.9%" x="-2.3%" y="-10%" filterUnits="objectBoundingBox">
            <feOffset dx="-2" dy="2" in="SourceAlpha" result="shadowOffsetOuter1"/>
            <feGaussianBlur in="shadowOffsetOuter1" result="shadowBlurOuter1" stdDeviation="2"/>
            <feColorMatrix in="shadowBlurOuter1" values="0 0 0 0 0.662745098   0 0 0 0 0.192156863   0 0 0 0 0.145098039  0 0 0 1 0"/>
        </filter>
    </defs>
    <g fill="none" fill-rule="evenodd" transform="translate(6 2)">
        <use fill="#000" filter="url(#wpsoffice-a)" xlink:href="#wpsoffice-b"/>
        <use fill="#FFF" xlink:href="#wpsoffice-b"/>
    </g>
</svg>
