<svg width="12" height="21" viewBox="0 0 12 21" fill="none" xmlns="http://www.w3.org/2000/svg">
<mask id="path-1-inside-1_669:25157" fill="white">
<path fill-rule="evenodd" clip-rule="evenodd" d="M8.67614 10.6091L0.720121 2.65311C0.231966 2.16496 0.231966 1.3735 0.720121 0.885347C1.20828 0.397192 1.99973 0.397192 2.48789 0.885347L11.2765 9.67395C11.2944 9.68996 11.312 9.70657 11.3293 9.72379C11.8174 10.2119 11.8174 11.0034 11.3293 11.4916L2.49042 20.3304C2.00227 20.8185 1.21081 20.8185 0.722657 20.3304C0.234502 19.8422 0.234502 19.0508 0.722657 18.5626L8.67614 10.6091Z"/>
</mask>
<path fill-rule="evenodd" clip-rule="evenodd" d="M8.67614 10.6091L0.720121 2.65311C0.231966 2.16496 0.231966 1.3735 0.720121 0.885347C1.20828 0.397192 1.99973 0.397192 2.48789 0.885347L11.2765 9.67395C11.2944 9.68996 11.312 9.70657 11.3293 9.72379C11.8174 10.2119 11.8174 11.0034 11.3293 11.4916L2.49042 20.3304C2.00227 20.8185 1.21081 20.8185 0.722657 20.3304C0.234502 19.8422 0.234502 19.0508 0.722657 18.5626L8.67614 10.6091Z" fill="#3D63EA"/>
<path d="M8.67614 10.6091L9.38325 11.3162L10.0904 10.6091L9.38325 9.90203L8.67614 10.6091ZM0.720121 2.65311L1.42723 1.94601L0.720121 2.65311ZM2.48789 0.885347L1.78078 1.59245L2.48789 0.885347ZM11.2765 9.67395L10.5694 10.3811L10.5896 10.4013L10.6109 10.4203L11.2765 9.67395ZM11.3293 11.4916L10.6222 10.7844L10.6222 10.7844L11.3293 11.4916ZM2.49042 20.3304L1.78332 19.6233L1.78332 19.6233L2.49042 20.3304ZM0.722657 18.5626L1.42976 19.2697L0.722657 18.5626ZM9.38325 9.90203L1.42723 1.94601L0.0130145 3.36022L7.96904 11.3162L9.38325 9.90203ZM1.42723 1.94601C1.3296 1.84838 1.3296 1.69008 1.42723 1.59245L0.0130146 0.17824C-0.865665 1.05692 -0.865665 2.48154 0.0130145 3.36022L1.42723 1.94601ZM1.42723 1.59245C1.52486 1.49482 1.68315 1.49482 1.78078 1.59245L3.195 0.17824C2.31632 -0.700439 0.891694 -0.700439 0.0130146 0.17824L1.42723 1.59245ZM1.78078 1.59245L10.5694 10.3811L11.9836 8.96685L3.195 0.17824L1.78078 1.59245ZM10.6109 10.4203C10.6147 10.4236 10.6184 10.4272 10.6222 10.4309L12.0364 9.01668C12.0057 8.98598 11.9742 8.95628 11.9421 8.9276L10.6109 10.4203ZM10.6222 10.4309C10.7198 10.5285 10.7198 10.6868 10.6222 10.7844L12.0364 12.1987C12.915 11.32 12.915 9.89536 12.0364 9.01668L10.6222 10.4309ZM10.6222 10.7844L1.78332 19.6233L3.19753 21.0375L12.0364 12.1987L10.6222 10.7844ZM1.78332 19.6233C1.68569 19.7209 1.5274 19.7209 1.42976 19.6233L0.0155513 21.0375C0.89423 21.9162 2.31885 21.9162 3.19753 21.0375L1.78332 19.6233ZM1.42976 19.6233C1.33213 19.5257 1.33213 19.3674 1.42976 19.2697L0.0155506 17.8555C-0.863128 18.7342 -0.863129 20.1588 0.0155513 21.0375L1.42976 19.6233ZM1.42976 19.2697L9.38325 11.3162L7.96904 9.90203L0.0155506 17.8555L1.42976 19.2697Z" fill="#3D63EA" mask="url(#path-1-inside-1_669:25157)"/>
</svg>
