<svg width="159" height="30" viewBox="0 0 159 30" fill="none" xmlns="http://www.w3.org/2000/svg">
<path fill-rule="evenodd" clip-rule="evenodd" d="M146.464 4.92072V17.4396C146.464 20.3526 144.8 22.9598 141.672 24.084L141.524 24.1358L141.524 21.9544C143.477 21.1154 144.397 19.2209 144.43 17.4396V4.92072H146.464ZM53.4737 5.50287L53.4761 22.3354C53.4765 23.3148 52.6959 24.1117 51.724 24.1354L51.6794 24.1357H49.1147V22.9711H50.541C51.0372 22.9711 51.4395 22.5681 51.4395 22.071V6.66742H39.5518C39.0556 6.66742 38.6533 7.07043 38.6533 7.56757V24.1357H36.6191V7.30369C36.6191 6.30943 37.4237 5.50341 38.4161 5.50333L53.4737 5.50287ZM96.1911 6.66742V20.0062C96.1911 21.0005 95.3866 21.8066 94.3941 21.8066H91.5416V24.7179H89.5074V8.46782C89.5074 7.47349 90.312 6.66742 91.3045 6.66742H96.1911ZM74.3965 22.3355V14.2371H58.995L56.6775 18.6042H58.6518L60.3515 15.4017H63.3212L58.6859 24.1358H60.6604L65.2958 15.4017H68.2613L63.626 24.1358H65.6005L70.2359 15.4017H72.3623V22.0711C72.3623 22.5682 71.9601 22.9712 71.4639 22.9712H69.747V24.1358H72.5995C73.592 24.1358 74.3965 23.3298 74.3965 22.3355ZM129.9 9.87005V4.92072H127.575V9.87005H119.439V11.0346H127.575L127.574 11.1916C127.517 15.9374 124.847 19.4909 119.439 22.198V24.1358C124.182 21.9345 127.415 19.141 128.738 15.4875C130.066 19.1545 132.973 21.9318 137.746 24.1358V22.1999C132.303 19.4905 129.959 15.9528 129.901 11.1916L129.9 11.0346H138.037V9.87005H129.9ZM116.533 11.3256V22.3354C116.533 23.3296 115.728 24.1357 114.736 24.1357H107.815V13.1259C107.815 12.1316 108.619 11.3256 109.612 11.3256H116.533ZM104.328 13.0725V11.0345H102.294V13.0725H99.0971V14.2371H101.903L99.0971 21.8066H100.64L102.294 17.3452V24.1357H104.328V17.3426L105.227 19.7687H106.77L104.719 14.2371H106.943V13.0725H104.328ZM158.378 5.50287V6.66742H154.02V9.57879H158.378V20.0063C158.378 21.0005 157.574 21.8066 156.582 21.8066H154.891V20.642H155.446C155.942 20.642 156.344 20.239 156.344 19.7419V10.7433H154.02V24.1357H151.985V10.7433H150.559C150.063 10.7433 149.661 11.1464 149.661 11.6435V21.8066H147.626V11.3791C147.626 10.3848 148.431 9.57879 149.423 9.57879H151.985V6.66742H147.626V5.50287H158.378ZM109.849 20.0599H114.499V22.0711C114.499 22.5682 114.096 22.9712 113.6 22.9712H109.849V20.0599ZM83.9862 4.92072V7.24981H88.3451V20.5887C88.3451 21.5829 87.5406 22.389 86.5481 22.389H77.5931V9.05012C77.5931 8.05584 78.3976 7.24981 79.39 7.24981H81.952V4.92072H83.9862ZM83.9976 15.4093L86.3109 15.4017V20.3243C86.3109 20.8214 85.9086 21.2244 85.4124 21.2244H83.9861L83.9976 15.4093ZM81.952 15.4017H79.6272V21.2244H81.952V15.4017ZM92.4401 7.83197H94.157V19.7418C94.157 20.239 93.7547 20.642 93.2585 20.642H91.5416V8.73217C91.5416 8.23501 91.9439 7.83197 92.4401 7.83197ZM46.8795 8.12329L47.9457 11.4105L49.0118 8.12329H50.8451L48.8622 14.2369L50.8452 20.3511H49.0118L47.9457 17.0632L46.8795 20.3511H45.0461L47.029 14.2369L45.0462 8.12329H46.8795ZM42.1338 11.4105L41.0676 8.12329H39.2344L41.2171 14.2369L39.2342 20.3511H41.0676L42.1338 17.0632L43.2 20.3511H45.0333L43.0503 14.2369L45.0332 8.12329H43.2L42.1338 11.4105ZM114.499 16.5662H109.849V18.8953H114.499V16.5662ZM142.686 18.8953V7.24982H140.652V18.8953H142.686ZM114.499 12.4902H110.748C110.251 12.4902 109.849 12.8932 109.849 13.3903V15.4016H114.499V12.4902ZM80.5257 8.41437H81.952V14.2371H79.6272V9.31452C79.6272 8.81738 80.0295 8.41437 80.5257 8.41437ZM86.3109 8.41437H83.9861V14.2371H86.3109V8.41437ZM73.2341 11.2721V5.50287H61.0825C60.0901 5.50287 59.2856 6.3089 59.2856 7.30318V13.0724H71.4372C72.4296 13.0724 73.2341 12.2664 73.2341 11.2721ZM71.2 9.87H61.3197L61.3112 11.908H70.3015C70.7977 11.908 71.2 11.5049 71.2 11.0078V9.87ZM102.926 6.66748L103.698 5.21179H101.724L99.0971 10.1611H101.071L102.308 7.83203H103.103L104.339 10.1611H106.314L105.078 7.83203H108.104L108.119 6.66748H102.926ZM112.707 5.21179L111.934 6.66748H117.127L117.112 7.83203H114.086L115.322 10.1611H113.348L112.112 7.83203H111.316L110.08 10.1611H108.106L110.732 5.21179H112.707ZM62.2135 6.66742H71.2V8.70538H61.3197L61.315 7.57133L61.3156 7.53457C61.3329 7.05272 61.7283 6.66742 62.2135 6.66742Z" fill="#141414"/>
<rect width="30" height="30" rx="15" fill="#FC1E1E"/>
<path fill-rule="evenodd" clip-rule="evenodd" d="M21.1325 9.8379L19.4009 22.1391L19.367 22.3572C19.2986 22.7533 19.2244 22.9211 19.114 23.0884C18.9853 23.2837 18.8138 23.4327 18.6025 23.533C18.3912 23.6333 18.1862 23.6848 17.6224 23.6848H16.3522L18.0666 11.3857C18.1445 10.8268 18.2239 10.6307 18.3526 10.4352C18.4813 10.2397 18.6529 10.0904 18.8643 9.98994C19.0757 9.88949 19.2808 9.8379 19.8451 9.8379H21.1325ZM9.11738 9.8379L7.88726 18.5911L7.85343 18.8092C7.78507 19.2054 7.71088 19.3732 7.60053 19.5406C7.4718 19.7359 7.30025 19.885 7.08896 19.9853C6.89276 20.0784 6.70199 20.1295 6.22425 20.1363L4.83886 20.1371L6.06897 11.3839C6.14745 10.8255 6.22697 10.6297 6.3557 10.4344C6.48444 10.2391 6.65599 10.09 6.86728 9.9897L6.95851 9.94971C7.14447 9.87573 7.36413 9.8379 7.84746 9.8379H9.11738ZM12.337 6.29038H13.6244L11.8928 18.5916C11.8142 19.1499 11.7347 19.3457 11.606 19.5409C11.4772 19.7361 11.3057 19.8852 11.0944 19.9855C10.8831 20.0858 10.6782 20.1372 10.1143 20.1372H8.84412L10.5585 7.83814C10.6364 7.27927 10.7158 7.08322 10.8445 6.88772C10.9732 6.69222 11.1448 6.54288 11.3562 6.44242C11.5676 6.34197 11.7727 6.29038 12.337 6.29038ZM17.1279 9.8379L15.8977 18.5911L15.8639 18.8092C15.7955 19.2054 15.7214 19.3732 15.611 19.5406C15.4823 19.7359 15.3107 19.885 15.0994 19.9853C14.9032 20.0784 14.7125 20.1295 14.2347 20.1363L12.8493 20.1371L14.0795 11.3839C14.1579 10.8255 14.2374 10.6297 14.3662 10.4344C14.4949 10.2391 14.6665 10.09 14.8778 9.9897L14.969 9.94971C15.1549 9.87573 15.3746 9.8379 15.8579 9.8379H17.1279ZM25.1383 9.8379L23.9082 18.5911L23.8744 18.8092C23.806 19.2054 23.7318 19.3732 23.6215 19.5406C23.4928 19.7359 23.3212 19.885 23.1099 19.9853C22.9137 20.0784 22.7229 20.1295 22.2452 20.1363L20.8598 20.1371L22.0899 11.3839C22.1684 10.8255 22.2479 10.6297 22.3767 10.4344C22.5054 10.2391 22.677 10.09 22.8882 9.9897L22.9795 9.94971C23.1654 9.87573 23.3851 9.8379 23.8684 9.8379H25.1383Z" fill="white"/>
</svg>
